<?xml version="1.0" standalone="no"?>
<!DOCTYPE svg PUBLIC "-//W3C//DTD SVG 20010904//EN"
 "http://www.w3.org/TR/2001/REC-SVG-20010904/DTD/svg10.dtd">
<svg version="1.0" xmlns="http://www.w3.org/2000/svg"
 width="5180.000000pt" height="5020.000000pt" viewBox="0 0 5180.000000 5020.000000"
 preserveAspectRatio="xMidYMid meet">

<g transform="translate(0.000000,5020.000000) scale(0.100000,-0.100000)"
fill="#000000" stroke="none">
<path d="M20500 46280 l0 -3820 2200 0 2200 0 0 -3140 0 -3140 -145 0 c-80 0
-145 -3 -145 -6 0 -4 65 -109 145 -234 80 -125 145 -230 145 -234 0 -3 -900
-6 -2000 -6 l-2000 0 0 -3803 0 -3804 -687 -293 c-379 -161 -694 -295 -700
-297 -10 -4 -13 18 -13 91 0 113 -5 117 -81 59 -37 -28 -46 -40 -37 -50 15
-18 28 -16 55 9 l24 22 -3 -78 -3 -78 -2975 -1268 c-2595 -1106 -2975 -1266
-2978 -1249 -5 28 -29 23 -40 -9 -7 -21 -25 -36 -67 -56 -32 -15 -58 -26 -59
-24 -1 2 -13 32 -27 68 -21 54 -29 65 -48 65 -20 0 -29 -14 -65 -105 -37 -93
-46 -107 -76 -121 -29 -14 -36 -14 -45 -3 -5 7 -36 25 -67 39 -43 18 -58 30
-58 45 0 26 39 36 82 21 24 -9 33 -8 40 1 13 21 3 32 -36 40 -53 11 -114 -7
-128 -37 -20 -45 -3 -75 62 -103 33 -15 60 -30 60 -35 0 -14 -87 -46 -109 -40
-14 4 -21 1 -21 -9 0 -14 -8307 -3561 -8343 -3562 -14 -1 -29 24 -62 104 -24
58 -48 105 -53 105 -11 0 -352 -423 -352 -436 0 -5 -860 -9 -1995 -9 l-1995 0
0 -3820 0 -3820 2000 0 2000 0 0 -2540 0 -2540 -145 0 c-80 0 -145 -3 -145 -6
0 -4 65 -109 145 -234 80 -125 145 -230 145 -234 0 -3 -900 -6 -2000 -6
l-2000 0 0 -3820 0 -3820 4220 0 4220 0 0 3820 0 3820 -2200 0 c-1210 0 -2200
3 -2200 8 1 4 54 104 119 222 98 178 116 217 107 232 -9 15 -26 18 -118 18
l-108 0 0 2540 0 2540 2200 0 2200 0 0 3820 0 3820 -1475 0 c-903 0 -1475 4
-1475 9 0 6 -12 6 -32 0 -57 -16 -61 -13 -55 31 5 38 4 40 -23 40 -27 0 -28
-2 -23 -40 6 -44 2 -47 -55 -31 -20 6 -32 6 -32 0 0 -5 -70 -9 -165 -9 -91 0
-165 4 -165 9 0 4 -12 20 -26 35 -37 36 -104 37 -139 1 -14 -13 -25 -29 -25
-35 0 -6 -39 -10 -107 -10 l-108 0 -37 92 c-21 50 -37 92 -35 94 1 1 1888 806
4193 1788 3572 1522 4198 1786 4238 1786 42 0 51 5 87 41 44 45 55 46 39 5
-15 -39 -13 -46 13 -46 17 0 26 11 42 53 l20 52 65 0 65 0 20 -52 c17 -46 24
-53 47 -53 l27 0 -34 85 -33 85 26 14 c15 7 37 17 50 20 21 7 22 5 22 -56 0
-71 13 -127 32 -140 7 -4 32 -8 56 -8 35 0 42 3 42 20 0 15 -7 20 -28 20 -44
0 -52 16 -52 101 l0 78 38 3 c30 2 37 7 36 24 0 19 339 165 2930 1270 1611
687 2935 1250 2943 1252 9 3 13 -9 13 -42 0 -39 3 -46 20 -46 16 0 19 8 22 57
l3 57 190 82 c117 50 192 77 194 70 6 -17 24 -26 55 -26 28 0 28 -1 12 -22
-36 -51 -36 -55 -11 -66 23 -11 26 -9 40 24 16 40 27 38 45 -6 14 -34 18 -35
42 -16 16 12 16 15 -8 47 -23 31 -23 34 -7 37 58 9 64 13 61 35 -2 13 -9 21
-18 19 -8 -2 -30 -6 -49 -10 -30 -4 -33 -3 -28 12 4 10 7 24 7 31 0 8 178 89
448 204 l447 191 978 0 c537 0 977 -2 977 -5 0 -4 -3355 -6679 -3366 -6697 -3
-4 -59 20 -126 53 -66 33 -123 58 -125 55 -5 -5 19 -368 34 -508 l6 -58 -1802
0 -1801 0 0 -3820 0 -3820 2000 0 2000 0 0 -2540 0 -2540 -145 0 c-80 0 -145
-3 -145 -6 0 -4 65 -109 145 -234 80 -125 145 -230 145 -234 0 -3 -900 -6
-2000 -6 l-2000 0 0 -3820 0 -3820 4220 0 4220 0 0 3820 0 3820 -2200 0
c-1210 0 -2200 3 -2200 8 1 4 54 104 119 222 98 178 116 217 107 232 -9 15
-26 18 -118 18 l-108 0 0 2540 0 2540 2200 0 2200 0 0 3820 0 3820 -2402 2
-2402 3 215 137 c161 102 215 142 216 158 2 17 -18 31 -108 76 l-110 55 98
192 98 192 6 -80 c9 -118 36 -155 114 -155 71 0 105 55 105 168 0 135 -36 188
-123 179 l-47 -4 576 1146 c317 630 1022 2034 1567 3118 l992 1973 1788 0
1787 0 313 -297 c171 -163 312 -301 312 -307 1 -20 16 -36 34 -36 40 0 51 -31
51 -143 0 -100 1 -107 20 -107 17 0 19 8 22 88 l3 87 63 -59 c40 -38 62 -67
62 -81 0 -27 24 -49 45 -41 10 3 418 -376 1282 -1195 l1268 -1201 3 -54 c3
-49 5 -54 27 -54 18 0 24 6 27 26 3 23 212 -172 1839 -1713 l1837 -1738 -84
-85 c-87 -89 -103 -125 -59 -136 11 -3 124 -29 250 -59 l230 -53 -582 -1 -581
-1 5 38 c8 59 -14 146 -44 176 -35 35 -103 37 -137 2 -28 -27 -51 -121 -43
-178 l5 -38 -1289 0 -1289 0 0 -3820 0 -3820 4220 0 4220 0 0 3820 0 3820
-2217 2 -2216 3 -90 269 -89 268 -89 -88 -88 -88 -27 24 c-56 51 -3432 3245
-3496 3309 l-68 66 50 -3 c68 -5 100 4 100 27 0 17 -6 19 -58 14 -55 -5 -60
-4 -80 22 -39 49 -32 55 69 55 l91 0 -7 42 c-13 74 -45 103 -117 103 -32 0
-46 -7 -68 -32 -33 -37 -48 -107 -32 -153 14 -39 4 -38 -36 3 l-32 33 0 127 0
127 -25 0 c-24 0 -24 -1 -27 -101 l-3 -101 -1360 1289 -1360 1288 -3 58 c-3
63 -13 70 -58 41 -28 -19 19 -58 -383 321 l-243 230 1365 3 1366 2 728 -284
728 -284 3 -66 c3 -58 5 -66 22 -66 17 0 20 7 20 55 0 30 4 55 8 55 5 0 35
-11 68 -24 51 -21 59 -27 56 -48 -2 -14 3 -30 11 -37 19 -15 47 -4 47 20 0 16
4 17 33 7 17 -6 35 -16 39 -21 3 -6 16 -11 27 -12 12 -1 1452 -559 3201 -1241
l3180 -1239 0 -107 0 -108 75 0 c115 0 165 29 165 94 0 22 3 24 23 17 12 -4
30 -24 39 -44 27 -56 56 -70 130 -63 35 3 68 6 73 7 11 2 9225 -3589 9237
-3600 5 -4 -7 -43 -26 -86 l-33 -80 -156 -3 c-155 -2 -156 -2 -159 20 -4 32
-32 34 -71 4 -34 -26 -36 -26 -215 -26 -180 0 -181 0 -206 25 -35 35 -104 35
-137 0 l-24 -25 -1447 0 -1448 0 0 -3820 0 -3820 4220 0 4220 0 0 3820 0 3820
-2014 0 c-1772 0 -2015 2 -2020 15 -3 8 -78 105 -166 215 -128 160 -165 199
-181 197 -17 -3 -31 -27 -66 -109 l-44 -105 -202 78 c-111 43 -2168 846 -4572
1783 l-4370 1704 -3 176 c-2 168 -3 176 -22 176 -19 0 -20 -7 -20 -166 0 -129
-3 -165 -12 -162 -7 3 -53 20 -103 39 l-90 34 73 3 74 3 -7 42 c-13 73 -46
102 -117 102 -33 0 -46 -7 -69 -33 -16 -18 -29 -41 -29 -52 0 -28 -14 -32 -56
-14 -50 21 -49 19 -30 46 24 34 20 80 -9 108 -22 21 -38 24 -115 28 l-89 4 -3
-44 -3 -44 -3160 1232 c-1738 677 -3170 1239 -3182 1248 -12 9 -30 16 -40 16
-10 0 -78 23 -150 51 l-133 52 0 93 c0 111 -8 117 -84 57 -42 -33 -45 -38 -32
-52 14 -13 19 -13 46 7 l30 23 0 -57 c0 -30 -4 -54 -9 -52 -5 2 -326 127 -715
278 l-706 275 0 3803 0 3802 -2200 0 c-1210 0 -2200 3 -2200 8 1 4 54 104 119
222 98 178 116 217 107 232 -9 15 -26 18 -118 18 l-108 0 0 3140 0 3140 2000
0 2000 0 0 3820 0 3820 -4220 0 -4220 0 0 -3820z m8400 0 l0 -3780 -4180 0
-4180 0 0 3340 0 3340 4170 0 c4163 0 4170 0 4170 20 0 20 -7 20 -4170 20
l-4170 0 0 420 0 420 4180 0 4180 0 0 -3780z m-3788 -10172 c-11 -18 -57 -102
-102 -186 -45 -84 -85 -154 -89 -156 -5 -3 -227 336 -239 366 -2 4 98 8 223 8
l227 0 -20 -32z m4188 -4228 l0 -3780 -4180 0 -4180 0 0 3340 0 3340 4170 0
c4163 0 4170 0 4170 20 0 20 -7 20 -4170 20 l-4170 0 0 420 0 420 4180 0 4180
0 0 -3780z m-9310 -4252 c0 -10 -44 -10 -54 -1 -3 4 4 12 16 19 22 12 37 4 38
-18z m17658 -2680 c17 -15 11 -58 -9 -71 -12 -8 -30 -6 -63 7 -43 16 -46 20
-46 53 l0 36 52 -7 c29 -4 58 -12 66 -18z m-24361 -91 c-4 -12 -67 -38 -67
-28 0 5 6 24 14 42 7 19 16 43 21 54 6 17 9 14 21 -19 8 -22 13 -44 11 -49z
m16960 18 c11 -8 23 -24 26 -35 5 -19 1 -20 -58 -20 -59 0 -63 1 -58 20 6 21
39 50 58 50 6 0 20 -7 32 -15z m7670 0 c11 -8 23 -24 26 -35 5 -19 1 -20 -58
-20 -59 0 -63 1 -58 20 6 21 39 50 58 50 6 0 20 -7 32 -15z m-269 -71 c26 -18
30 -65 6 -85 -8 -7 -40 -14 -70 -17 l-54 -4 0 61 0 61 48 0 c27 0 57 -7 70
-16z m252 -95 c11 -6 8 -8 -11 -9 -15 0 -33 7 -40 16 -12 15 -11 16 11 9 14
-4 32 -11 40 -16z m-18014 -2927 c24 -16 34 -54 34 -127 0 -96 -18 -135 -60
-135 -42 0 -60 39 -60 135 0 94 18 135 60 135 8 0 20 -4 26 -8z m-365 -483
c111 -55 200 -101 198 -103 -41 -33 -374 -235 -379 -229 -4 4 -13 89 -19 188
-7 99 -15 195 -18 213 -3 20 -1 32 6 32 6 0 102 -45 212 -101z m14462 -151
c36 -109 61 -198 55 -198 -10 0 -336 74 -402 91 l-39 11 154 154 c84 84 156
150 160 146 4 -4 36 -96 72 -204z m-29463 -71 c45 -109 79 -201 76 -204 -6 -6
-427 54 -435 62 -2 3 58 81 134 175 75 95 138 170 140 168 1 -2 40 -92 85
-201z m42985 32 c75 -94 135 -172 133 -174 -10 -10 -448 -70 -445 -61 25 63
170 406 172 406 2 0 65 -77 140 -171z m-14679 -35 c11 -15 19 -54 22 -100 l5
-75 -64 3 -64 3 1 71 c0 50 5 80 17 98 23 34 61 35 83 0z m-27846 -159 c11
-13 6 -15 -35 -15 -41 0 -46 2 -35 15 7 8 23 15 35 15 12 0 28 -7 35 -15z
m41323 -12 c-7 -2 -21 -2 -30 0 -10 3 -4 5 12 5 17 0 24 -2 18 -5z m-41802
-64 l131 -21 15 21 c12 19 24 21 103 21 l88 0 -5 -38 c-8 -56 14 -146 42 -176
18 -20 34 -26 65 -26 83 0 112 42 114 162 l1 78 198 0 198 0 -28 -36 c-26 -35
-26 -37 -8 -50 27 -20 32 -18 45 21 6 19 15 35 19 35 4 0 15 -16 24 -35 15
-31 20 -34 37 -25 25 14 25 16 -6 57 l-25 33 1495 0 1496 0 0 -3780 0 -3780
-4180 0 -4180 0 0 3340 0 3340 4170 0 c4163 0 4170 0 4170 20 0 20 -7 20
-4170 20 l-4170 0 0 420 0 420 2115 0 c2096 0 2116 0 2246 -21z m507 -44 c3
-76 -20 -129 -60 -133 -37 -4 -58 31 -65 107 -8 87 -4 93 64 89 l58 -3 3 -60z
m19092 -3715 l0 -3780 -4180 0 -4180 0 0 3340 0 3340 4170 0 c4163 0 4170 0
4170 20 0 20 -7 20 -4170 20 l-4170 0 0 420 0 420 4180 0 4180 0 0 -3780z
m8590 3771 c0 -4 11 -20 25 -35 34 -36 105 -37 140 -1 14 13 25 29 25 35 0 7
862 10 2810 10 l2810 0 0 -3780 0 -3780 -4180 0 -4180 0 0 3340 0 3340 4170 0
c4163 0 4170 0 4170 20 0 20 -7 20 -4170 20 l-4170 0 0 420 0 420 1275 0 c701
0 1275 -4 1275 -9z m130 -6 c-7 -8 -23 -15 -35 -15 -12 0 -28 7 -35 15 -11 13
-6 15 35 15 41 0 46 -2 35 -15z m13360 -64 c0 -87 10 -124 42 -158 28 -30 95
-31 131 -3 32 26 51 103 44 182 l-5 59 204 -2 204 -2 0 -128 0 -129 25 0 25 0
0 130 0 130 146 0 c141 0 145 -1 139 -20 -8 -26 4 -26 160 0 117 19 181 20
2263 20 l2142 0 0 -3780 0 -3780 -4180 0 -4180 0 0 3340 0 3340 4170 0 c4163
0 4170 0 4170 20 0 20 -7 20 -4170 20 l-4170 0 0 420 0 420 1420 0 1420 0 0
-79z m165 -12 c0 -96 -16 -129 -61 -129 -44 0 -72 86 -58 177 l6 44 57 -3 56
-3 0 -86z m-42033 -12661 c-11 -18 -57 -102 -102 -186 -45 -84 -85 -154 -89
-156 -5 -3 -227 336 -239 366 -2 4 98 8 223 8 l227 0 -20 -32z m15600 0 c-11
-18 -57 -102 -102 -186 -45 -84 -85 -154 -89 -156 -5 -3 -227 336 -239 366 -2
4 98 8 223 8 l227 0 -20 -32z m-11412 -4228 l0 -3780 -4180 0 -4180 0 0 3340
0 3340 4170 0 c4163 0 4170 0 4170 20 0 20 -7 20 -4170 20 l-4170 0 0 420 0
420 4180 0 4180 0 0 -3780z m15600 0 l0 -3780 -4180 0 -4180 0 0 3340 0 3340
4170 0 c4163 0 4170 0 4170 20 0 20 -7 20 -4170 20 l-4170 0 0 420 0 420 4180
0 4180 0 0 -3780z"/>
<path d="M24264 49765 c-8 -21 3 -45 20 -45 20 0 29 16 21 40 -7 23 -33 27
-41 5z"/>
<path d="M25324 49766 c-9 -24 4 -48 23 -44 12 2 18 12 18 28 0 29 -32 41 -41
16z"/>
<path d="M23610 49653 c0 -146 11 -188 53 -213 40 -25 132 -27 165 -4 43 30
52 64 52 204 0 131 0 131 -22 128 -22 -3 -23 -7 -26 -133 -2 -116 -5 -132 -24
-152 -14 -15 -33 -23 -54 -23 -80 0 -94 29 -94 190 l0 120 -25 0 -25 0 0 -117z"/>
<path d="M25459 49711 c-6 -16 -17 -32 -25 -35 -18 -7 -18 -36 0 -36 11 0 15
-22 18 -96 4 -111 15 -127 83 -122 49 4 57 31 10 36 -16 2 -33 9 -37 15 -4 7
-8 47 -8 90 l0 77 35 0 c28 0 35 4 35 20 0 16 -7 20 -35 20 -32 0 -35 2 -35
30 0 40 -27 40 -41 1z"/>
<path d="M24035 49674 c-19 -10 -31 -11 -33 -5 -2 6 -12 11 -23 11 -18 0 -19
-9 -19 -130 l0 -130 25 0 c25 0 25 1 25 89 0 71 4 93 18 112 21 25 74 31 94
11 7 -7 14 -54 16 -112 4 -90 6 -100 23 -100 17 0 19 9 19 106 0 58 -4 114
-10 124 -10 18 -59 40 -89 40 -9 0 -29 -7 -46 -16z"/>
<path d="M24684 49681 c-55 -23 -87 -116 -64 -185 17 -53 52 -76 116 -76 65 0
84 7 84 30 0 16 -7 17 -58 13 -55 -5 -60 -4 -80 22 -39 49 -32 55 69 55 l91 0
-7 42 c-8 48 -20 70 -45 86 -26 16 -82 23 -106 13z m73 -46 c11 -8 23 -24 26
-35 5 -19 1 -20 -58 -20 -59 0 -63 1 -58 20 6 21 39 50 58 50 6 0 20 -7 32
-15z"/>
<path d="M24990 49683 c-8 -3 -23 -12 -32 -21 -16 -14 -18 -13 -18 1 0 10 -8
17 -20 17 -19 0 -20 -7 -20 -130 0 -123 1 -130 20 -130 18 0 20 7 20 75 0 108
22 145 87 145 20 0 24 4 21 23 -3 22 -28 31 -58 20z"/>
<path d="M25132 49679 c-38 -11 -58 -46 -48 -84 5 -21 21 -33 72 -56 55 -25
65 -33 62 -52 -3 -20 -8 -22 -70 -21 -58 0 -68 -2 -68 -17 0 -22 20 -29 81
-29 60 0 87 12 99 46 19 48 2 74 -66 105 -47 22 -64 34 -64 49 0 26 39 36 82
21 30 -11 47 -3 48 21 0 19 -83 30 -128 17z"/>
<path d="M24260 49549 c0 -130 0 -130 23 -127 21 3 22 7 25 131 l3 127 -26 0
-25 0 0 -131z"/>
<path d="M24340 49678 c0 -2 22 -59 48 -128 46 -119 50 -125 77 -125 27 0 30
6 75 125 37 97 44 126 33 128 -29 7 -40 -8 -72 -102 -19 -53 -35 -95 -37 -94
-1 2 -18 46 -37 98 -30 85 -37 95 -61 98 -14 2 -26 2 -26 0z"/>
<path d="M25320 49550 l0 -130 25 0 25 0 0 130 0 130 -25 0 -25 0 0 -130z"/>
<path d="M25601 49628 c89 -223 84 -205 66 -243 -14 -29 -22 -35 -47 -35 -23
0 -30 -4 -30 -20 0 -17 7 -20 39 -20 60 0 70 17 172 293 l29 78 -27 -3 c-23
-3 -30 -13 -61 -101 l-35 -98 -37 98 c-33 88 -39 98 -63 101 l-27 3 21 -53z"/>
<path d="M22831 48964 c-12 -15 -21 -39 -21 -54 0 -22 -6 -29 -26 -34 -30 -8
-27 -30 4 -34 21 -3 22 -8 22 -113 0 -102 1 -109 20 -109 19 0 20 7 20 109 l0
110 32 3 c47 4 51 35 6 40 -27 2 -32 7 -30 23 6 39 12 45 47 45 28 0 35 4 35
20 0 17 -7 20 -44 20 -36 0 -48 -5 -65 -26z"/>
<path d="M23734 48966 c-9 -24 4 -48 23 -44 12 2 18 12 18 28 0 29 -32 41 -41
16z"/>
<path d="M24804 48965 c-8 -21 3 -45 20 -45 20 0 29 16 21 40 -7 23 -33 27
-41 5z"/>
<path d="M21030 48795 l0 -175 26 0 26 0 -4 135 c-1 74 -2 135 -1 135 1 0 41
-61 89 -135 78 -121 90 -135 115 -135 l29 0 0 175 0 175 -26 0 -25 0 3 -134
c2 -74 0 -132 -3 -130 -3 2 -44 62 -90 134 -74 115 -87 130 -111 130 l-28 0 0
-175z"/>
<path d="M23092 48825 l3 -147 33 -29 c28 -25 40 -29 90 -29 75 0 117 25 131
77 6 21 11 91 11 156 l0 117 -24 0 -24 0 -4 -136 c-3 -129 -4 -137 -27 -155
-30 -25 -82 -24 -114 2 -26 20 -26 23 -29 152 -3 130 -3 132 -26 135 l-24 4 4
-147z"/>
<path d="M24940 48925 c0 -9 -12 -27 -26 -40 -26 -24 -25 -45 2 -45 11 0 14
-19 14 -93 0 -110 10 -127 78 -127 35 0 42 3 42 20 0 16 -7 20 -30 20 -39 0
-50 23 -50 109 l0 70 37 3 c26 2 39 8 41 20 2 13 -5 17 -35 20 -33 3 -38 7
-41 31 -3 28 -32 39 -32 12z"/>
<path d="M21438 48878 c-40 -10 -43 -15 -29 -36 7 -11 16 -11 50 -1 36 11 43
10 61 -6 37 -34 26 -52 -36 -58 -68 -7 -100 -27 -109 -68 -11 -50 20 -83 80
-87 33 -2 52 2 65 13 17 15 19 15 28 -1 6 -11 16 -15 27 -10 16 6 17 18 13
112 -4 86 -8 109 -24 124 -24 24 -78 31 -126 18z m97 -167 c-8 -34 -31 -51
-71 -51 -70 0 -47 76 25 82 48 4 54 1 46 -31z"/>
<path d="M21735 48875 c-19 -10 -31 -12 -33 -6 -2 6 -12 11 -23 11 -18 0 -19
-9 -19 -130 l0 -130 25 0 c25 0 25 1 25 89 0 71 4 93 18 111 21 25 69 30 83 9
5 -8 9 -58 9 -111 0 -98 0 -98 25 -98 25 0 25 1 25 89 0 70 4 93 18 109 27 32
58 36 81 13 18 -18 21 -34 21 -116 0 -88 1 -95 20 -95 19 0 20 7 20 109 0 134
-11 153 -83 155 -32 1 -52 -4 -64 -16 -15 -16 -19 -16 -34 -2 -25 23 -80 27
-114 9z"/>
<path d="M22158 48874 c-78 -42 -82 -201 -7 -239 53 -28 159 -16 159 16 0 17
-5 19 -53 13 -64 -8 -91 4 -105 46 l-11 30 90 0 c89 0 89 0 89 25 0 48 -27 95
-64 110 -44 19 -63 18 -98 -1z m87 -49 c38 -37 31 -45 -35 -45 -43 0 -60 4
-60 13 0 25 32 53 63 56 4 1 19 -10 32 -24z"/>
<path d="M22557 48878 c-56 -20 -86 -133 -52 -198 22 -42 53 -60 105 -60 75 0
120 49 120 130 0 104 -79 163 -173 128z m106 -60 c25 -29 23 -112 -3 -138 -23
-23 -68 -26 -94 -7 -23 17 -33 104 -16 136 23 44 79 48 113 9z"/>
<path d="M23513 48875 c-18 -8 -33 -10 -33 -5 0 6 -9 10 -20 10 -19 0 -20 -7
-20 -130 0 -123 1 -130 20 -130 18 0 20 7 20 68 0 98 14 138 52 151 25 9 36 8
55 -4 22 -14 23 -22 23 -115 l0 -100 26 0 26 0 -4 110 c-3 93 -6 113 -23 129
-27 27 -83 34 -122 16z"/>
<path d="M24153 48876 c-42 -19 -63 -62 -63 -132 0 -50 3 -59 34 -90 30 -30
40 -34 89 -34 68 0 87 7 87 30 0 16 -7 17 -59 13 -50 -5 -61 -3 -80 16 -11 11
-21 30 -21 41 0 18 7 20 85 20 l85 0 0 30 c0 33 -20 79 -42 97 -23 19 -81 24
-115 9z m87 -46 c37 -37 26 -50 -40 -50 -68 0 -78 14 -34 49 33 26 49 26 74 1z"/>
<path d="M24464 48880 c-12 -5 -25 -13 -29 -19 -9 -16 -25 -13 -25 4 0 8 -9
15 -20 15 -19 0 -20 -7 -20 -130 l0 -130 25 0 c25 0 25 1 25 84 0 97 20 136
70 136 19 0 29 6 33 19 8 32 -14 39 -59 21z"/>
<path d="M24601 48877 c-23 -8 -38 -21 -44 -40 -13 -40 12 -73 79 -102 46 -21
55 -28 52 -47 -3 -21 -8 -23 -70 -22 -58 0 -68 -2 -68 -17 0 -22 20 -29 84
-29 65 0 106 27 106 69 0 39 -17 57 -82 86 -62 27 -73 48 -35 66 17 8 35 8 61
1 30 -9 38 -8 43 4 3 9 2 19 -3 24 -16 16 -88 20 -123 7z"/>
<path d="M23730 48750 l0 -130 25 0 25 0 0 130 0 130 -25 0 -25 0 0 -130z"/>
<path d="M23820 48873 c0 -5 21 -63 46 -130 44 -115 49 -123 74 -123 25 0 29
8 73 124 26 68 47 127 47 130 0 3 -11 6 -24 6 -21 0 -27 -11 -56 -92 -32 -90
-50 -126 -50 -100 0 7 -14 53 -31 102 -28 79 -34 90 -55 90 -13 0 -24 -3 -24
-7z"/>
<path d="M24800 48749 c0 -130 0 -130 23 -127 21 3 22 7 25 131 l3 127 -26 0
-25 0 0 -131z"/>
<path d="M25060 48872 c0 -5 22 -64 50 -132 l50 -123 -18 -31 c-13 -23 -27
-32 -50 -34 -24 -2 -32 -8 -32 -23 0 -15 7 -19 34 -19 50 0 65 8 86 50 19 38
120 301 120 313 0 4 -11 7 -25 7 -14 0 -25 -1 -25 -3 0 -2 -15 -47 -34 -100
l-33 -97 -38 100 c-33 88 -40 100 -61 100 -13 0 -24 -4 -24 -8z"/>
<path d="M20720 48765 c0 -24 3 -25 60 -25 57 0 60 1 60 25 0 24 -3 25 -60 25
-57 0 -60 -1 -60 -25z"/>
<path d="M22140 48205 c0 -153 2 -185 14 -185 8 0 16 6 19 13 3 10 9 10 26 0
33 -20 104 -16 129 7 43 41 51 135 16 202 -20 39 -78 55 -127 34 l-37 -15 0
65 c0 57 -2 64 -20 64 -19 0 -20 -7 -20 -185z m159 20 c22 -21 26 -97 7 -133
-13 -25 -23 -32 -45 -32 -47 0 -60 10 -71 51 -27 98 45 174 109 114z"/>
<path d="M23351 48364 c-12 -15 -21 -39 -21 -54 0 -22 -6 -29 -26 -34 -30 -8
-27 -30 4 -34 21 -3 22 -8 22 -113 0 -102 1 -109 20 -109 19 0 20 7 20 109 l0
110 32 3 c47 4 51 35 6 40 -27 2 -32 7 -30 23 6 39 12 45 47 45 28 0 35 4 35
20 0 17 -7 20 -44 20 -36 0 -48 -5 -65 -26z"/>
<path d="M24480 48326 l0 -64 -43 16 c-75 27 -125 -8 -142 -99 -8 -44 9 -113
36 -140 25 -25 104 -26 131 -2 17 15 18 15 18 0 0 -10 8 -17 20 -17 19 0 20 7
20 185 0 178 -1 185 -20 185 -18 0 -20 -7 -20 -64z m-46 -86 c57 -21 58 -162
1 -176 -58 -14 -95 20 -95 87 0 38 25 86 47 92 10 3 19 5 20 6 1 0 13 -3 27
-9z"/>
<path d="M21030 48195 l0 -175 26 0 26 0 -4 135 c-1 74 -2 135 -1 135 1 0 41
-61 89 -135 78 -121 90 -135 115 -135 l29 0 0 175 0 175 -26 0 -25 0 3 -134
c2 -74 0 -132 -3 -130 -3 2 -44 62 -90 134 -74 115 -87 130 -111 130 l-28 0 0
-175z"/>
<path d="M23847 48311 c-4 -17 -14 -30 -26 -34 -27 -7 -27 -27 -1 -34 18 -5
20 -14 20 -92 0 -110 12 -131 76 -131 37 0 44 3 44 19 0 15 -8 21 -32 23 l-33
3 -3 87 -3 87 33 3 c22 2 34 9 36 21 3 14 -4 17 -32 17 -33 0 -36 2 -36 30 0
41 -35 43 -43 1z"/>
<path d="M25179 48311 c-6 -16 -17 -32 -25 -35 -18 -7 -18 -36 0 -36 11 0 15
-22 18 -96 4 -111 15 -127 83 -122 49 4 57 31 10 36 -16 2 -33 9 -37 15 -4 7
-8 47 -8 90 l0 77 35 0 c28 0 35 4 35 20 0 16 -7 20 -35 20 -32 0 -35 2 -35
30 0 40 -27 40 -41 1z"/>
<path d="M21765 48274 c-19 -10 -31 -11 -33 -5 -2 6 -12 11 -23 11 -18 0 -19
-9 -19 -131 0 -130 0 -130 23 -127 20 3 22 9 25 83 3 106 7 119 38 134 22 10
31 9 50 -4 23 -15 24 -21 24 -115 0 -100 0 -100 25 -100 25 0 25 1 25 89 0 70
4 93 18 109 23 28 54 35 77 18 16 -12 20 -30 23 -115 4 -91 6 -101 23 -101 17
0 19 9 19 106 0 58 -4 114 -10 124 -12 23 -73 44 -102 35 -13 -4 -31 -15 -41
-23 -13 -12 -20 -13 -25 -5 -8 12 -55 33 -75 33 -7 0 -25 -7 -42 -16z"/>
<path d="M22483 48276 c-42 -19 -63 -62 -63 -132 0 -50 3 -59 34 -90 30 -30
40 -34 89 -34 68 0 87 7 87 30 0 16 -7 17 -59 13 -50 -5 -61 -3 -80 16 -11 11
-21 30 -21 41 0 18 7 20 85 20 l85 0 0 30 c0 33 -20 79 -42 97 -23 19 -81 24
-115 9z m87 -46 c37 -37 26 -50 -40 -50 -68 0 -78 14 -34 49 33 26 49 26 74 1z"/>
<path d="M22800 48283 c-8 -3 -23 -12 -32 -21 -16 -13 -18 -13 -24 2 -3 9 -15
16 -25 16 -18 0 -19 -9 -19 -130 l0 -130 25 0 c25 0 25 1 25 84 0 98 18 133
73 138 24 2 32 8 32 23 0 21 -26 29 -55 18z"/>
<path d="M23093 48283 c-57 -11 -97 -114 -73 -187 17 -53 52 -76 114 -76 79 1
116 41 116 128 0 105 -57 154 -157 135z m90 -65 c9 -11 17 -30 18 -42 4 -79
-17 -116 -66 -116 -63 0 -96 80 -60 150 23 44 73 48 108 8z"/>
<path d="M23642 48279 c-38 -11 -58 -46 -48 -84 5 -21 21 -33 72 -56 55 -25
65 -33 62 -52 -3 -20 -8 -22 -70 -21 -58 0 -68 -2 -68 -17 0 -22 20 -29 81
-29 60 0 87 12 99 46 19 48 2 74 -66 105 -47 22 -64 34 -64 49 0 26 39 36 82
21 30 -11 47 -3 48 21 0 19 -83 30 -128 17z"/>
<path d="M24653 48276 c-42 -19 -63 -62 -63 -132 0 -50 3 -59 34 -90 30 -30
40 -34 89 -34 68 0 87 7 87 30 0 16 -7 17 -59 13 -50 -5 -61 -3 -80 16 -11 11
-21 30 -21 41 0 18 7 20 85 20 l85 0 0 30 c0 33 -20 79 -42 97 -23 19 -81 24
-115 9z m87 -46 c37 -37 26 -50 -40 -50 -68 0 -78 14 -34 49 33 26 49 26 74 1z"/>
<path d="M24945 48274 c-19 -10 -31 -11 -33 -5 -2 6 -12 11 -23 11 -18 0 -19
-9 -19 -130 l0 -130 25 0 c25 0 25 1 25 89 0 71 4 93 18 112 21 25 74 31 94
11 7 -7 14 -54 16 -112 4 -90 6 -100 23 -100 17 0 19 9 19 106 0 58 -4 114
-10 124 -10 18 -59 40 -89 40 -9 0 -29 -7 -46 -16z"/>
<path d="M25384 48283 c-48 -9 -73 -73 -44 -108 7 -9 35 -25 61 -36 62 -27 76
-43 58 -65 -11 -13 -26 -15 -76 -11 -47 5 -63 3 -63 -6 0 -25 25 -37 78 -37
82 0 112 21 112 77 0 35 -11 45 -91 86 -24 12 -45 28 -47 34 -6 22 41 36 82
25 31 -9 37 -8 46 8 9 16 5 20 -27 29 -39 11 -51 12 -89 4z"/>
<path d="M21390 48176 c0 -89 3 -107 21 -130 17 -21 29 -26 68 -26 26 0 56 7
69 16 20 14 22 14 22 0 0 -9 9 -16 20 -16 19 0 20 7 20 130 l0 130 -25 0 c-25
0 -25 -1 -25 -88 0 -104 -13 -132 -64 -132 -50 0 -56 13 -56 122 0 98 0 98
-25 98 l-25 0 0 -104z"/>
<path d="M24010 48170 c0 -97 2 -112 20 -130 23 -23 97 -28 133 -9 16 9 22 9
25 0 2 -6 12 -11 23 -11 18 0 19 9 19 130 l0 130 -25 0 c-25 0 -25 -1 -25 -88
0 -104 -13 -132 -63 -132 -57 0 -62 9 -65 120 -4 90 -6 100 -23 100 -18 0 -19
-8 -19 -110z"/>
<path d="M20720 48165 c0 -24 3 -25 60 -25 57 0 60 1 60 25 0 24 -3 25 -60 25
-57 0 -60 -1 -60 -25z"/>
<path d="M22140 47605 c0 -153 2 -185 14 -185 8 0 16 6 19 13 3 10 9 10 26 0
33 -20 104 -16 129 7 43 41 51 135 16 202 -20 39 -78 55 -127 34 l-37 -15 0
65 c0 57 -2 64 -20 64 -19 0 -20 -7 -20 -185z m159 20 c22 -21 26 -97 7 -133
-13 -25 -23 -32 -45 -32 -47 0 -60 10 -71 51 -27 98 45 174 109 114z"/>
<path d="M23351 47764 c-12 -15 -21 -39 -21 -54 0 -22 -6 -29 -26 -34 -30 -8
-27 -30 4 -34 21 -3 22 -8 22 -113 0 -102 1 -109 20 -109 19 0 20 7 20 109 l0
110 32 3 c47 4 51 35 6 40 -27 2 -32 7 -30 23 6 39 12 45 47 45 28 0 35 4 35
20 0 17 -7 20 -44 20 -36 0 -48 -5 -65 -26z"/>
<path d="M24550 47604 l0 -185 23 3 c20 3 22 9 25 83 3 110 7 121 44 134 25 9
36 8 55 -4 22 -14 23 -22 23 -115 0 -100 0 -100 25 -100 l25 0 0 104 c0 88 -3
107 -20 129 -26 33 -81 43 -122 23 -17 -9 -32 -16 -32 -16 -1 0 1 29 2 65 4
64 3 65 -22 65 l-26 0 0 -186z"/>
<path d="M21030 47595 l0 -175 26 0 26 0 -4 135 c-1 74 -2 135 -1 135 1 0 41
-61 89 -135 78 -121 90 -135 115 -135 l29 0 0 175 0 175 -26 0 -25 0 3 -134
c2 -74 0 -132 -3 -130 -3 2 -44 62 -90 134 -74 115 -87 130 -111 130 l-28 0 0
-175z"/>
<path d="M23617 47711 c-4 -17 -14 -30 -26 -34 -27 -7 -27 -27 -1 -34 18 -5
20 -14 20 -92 0 -110 12 -131 76 -131 37 0 44 3 44 19 0 15 -8 21 -32 23 l-33
3 -3 87 -3 87 33 3 c22 2 34 9 36 21 3 14 -4 17 -32 17 -33 0 -36 2 -36 30 0
41 -35 43 -43 1z"/>
<path d="M21765 47674 c-19 -10 -31 -11 -33 -5 -2 6 -12 11 -23 11 -18 0 -19
-9 -19 -131 0 -130 0 -130 23 -127 20 3 22 9 25 83 3 106 7 119 38 134 22 10
31 9 50 -4 23 -15 24 -21 24 -115 0 -100 0 -100 25 -100 25 0 25 1 25 89 0 70
4 93 18 109 23 28 54 35 77 18 16 -12 20 -30 23 -115 4 -91 6 -101 23 -101 17
0 19 9 19 106 0 58 -4 114 -10 124 -12 23 -73 44 -102 35 -13 -4 -31 -15 -41
-23 -13 -12 -20 -13 -25 -5 -8 12 -55 33 -75 33 -7 0 -25 -7 -42 -16z"/>
<path d="M22483 47676 c-42 -19 -63 -62 -63 -132 0 -50 3 -59 34 -90 30 -30
40 -34 89 -34 68 0 87 7 87 30 0 16 -7 17 -59 13 -50 -5 -61 -3 -80 16 -11 11
-21 30 -21 41 0 18 7 20 85 20 l85 0 0 30 c0 33 -20 79 -42 97 -23 19 -81 24
-115 9z m87 -46 c37 -37 26 -50 -40 -50 -68 0 -78 14 -34 49 33 26 49 26 74 1z"/>
<path d="M22800 47683 c-8 -3 -23 -12 -32 -21 -16 -13 -18 -13 -24 2 -3 9 -15
16 -25 16 -18 0 -19 -9 -19 -130 l0 -130 25 0 c25 0 25 1 25 84 0 98 18 133
73 138 24 2 32 8 32 23 0 21 -26 29 -55 18z"/>
<path d="M23093 47683 c-57 -11 -97 -114 -73 -187 17 -53 52 -76 114 -76 79 1
116 41 116 128 0 105 -57 154 -157 135z m90 -65 c9 -11 17 -30 18 -42 4 -79
-17 -116 -66 -116 -63 0 -96 80 -60 150 23 44 73 48 108 8z"/>
<path d="M23828 47674 c-78 -42 -82 -201 -7 -239 53 -28 159 -16 159 16 0 17
-5 19 -53 13 -64 -8 -91 4 -105 46 l-11 30 90 0 c89 0 89 0 89 25 0 48 -27 95
-64 110 -44 19 -63 18 -98 -1z m87 -49 c38 -37 31 -45 -35 -45 -43 0 -60 4
-60 13 0 25 32 53 63 56 4 1 19 -10 32 -24z"/>
<path d="M24098 47678 c-40 -10 -43 -15 -29 -36 7 -11 16 -11 50 -1 36 11 43
10 61 -6 37 -34 26 -52 -36 -58 -68 -7 -100 -27 -109 -68 -11 -50 20 -83 80
-87 33 -2 52 2 65 13 17 15 19 15 28 -1 6 -11 16 -15 27 -10 16 6 17 18 13
112 -4 86 -8 109 -24 124 -24 24 -78 31 -126 18z m97 -167 c-8 -34 -31 -51
-71 -51 -70 0 -47 76 25 82 48 4 54 1 46 -31z"/>
<path d="M24375 47676 c-45 -20 -67 -59 -67 -120 -1 -57 21 -109 52 -126 12
-6 44 -10 73 -8 44 3 52 6 55 24 3 20 -1 21 -45 17 -64 -7 -87 17 -87 87 0 68
23 92 82 89 32 -2 46 1 53 13 11 20 3 26 -47 33 -23 3 -51 0 -69 -9z"/>
<path d="M24904 47681 c-55 -23 -87 -116 -64 -185 17 -53 52 -76 116 -76 65 0
84 7 84 30 0 16 -7 17 -58 13 -55 -5 -60 -4 -80 22 -39 49 -32 55 69 55 l91 0
-7 42 c-8 48 -20 70 -45 86 -26 16 -82 23 -106 13z m73 -46 c11 -8 23 -24 26
-35 5 -19 1 -20 -58 -20 -59 0 -63 1 -58 20 6 21 39 50 58 50 6 0 20 -7 32
-15z"/>
<path d="M25210 47683 c-8 -3 -23 -12 -32 -21 -16 -14 -18 -13 -18 1 0 10 -8
17 -20 17 -19 0 -20 -7 -20 -130 0 -123 1 -130 20 -130 18 0 20 7 20 75 0 108
22 145 87 145 20 0 24 4 21 23 -3 22 -28 31 -58 20z"/>
<path d="M25352 47679 c-38 -11 -58 -46 -48 -84 5 -21 21 -33 72 -56 55 -25
65 -33 62 -52 -3 -20 -8 -22 -70 -21 -58 0 -68 -2 -68 -17 0 -22 20 -29 81
-29 60 0 87 12 99 46 19 48 2 74 -66 105 -47 22 -64 34 -64 49 0 26 39 36 82
21 30 -11 47 -3 48 21 0 19 -83 30 -128 17z"/>
<path d="M21390 47576 c0 -89 3 -107 21 -130 17 -21 29 -26 68 -26 26 0 56 7
69 16 20 14 22 14 22 0 0 -9 9 -16 20 -16 19 0 20 7 20 130 l0 130 -25 0 c-25
0 -25 -1 -25 -88 0 -104 -13 -132 -64 -132 -50 0 -56 13 -56 122 0 98 0 98
-25 98 l-25 0 0 -104z"/>
<path d="M20720 47565 c0 -24 3 -25 60 -25 57 0 60 1 60 25 0 24 -3 25 -60 25
-57 0 -60 -1 -60 -25z"/>
<path d="M22392 46983 l3 -238 48 -3 c42 -3 47 -1 47 17 0 16 -6 21 -25 21
l-25 0 0 205 0 205 25 0 c16 0 25 6 25 15 0 11 -12 15 -50 15 l-50 0 2 -237z"/>
<path d="M23350 47206 c0 -9 12 -16 28 -18 l27 -3 3 -202 2 -203 -30 0 c-23 0
-30 -4 -30 -20 0 -17 7 -20 50 -20 l50 0 0 240 0 240 -50 0 c-37 0 -50 -4 -50
-14z"/>
<path d="M22140 47005 c0 -178 1 -185 20 -185 19 0 20 7 20 185 0 178 -1 185
-20 185 -19 0 -20 -7 -20 -185z"/>
<path d="M22014 47166 c-9 -24 4 -48 23 -44 12 2 18 12 18 28 0 29 -32 41 -41
16z"/>
<path d="M23163 47140 c6 -44 -5 -50 -57 -30 -21 8 -26 6 -32 -12 -7 -25 9
-38 50 -38 28 0 28 -1 12 -22 -36 -51 -36 -55 -11 -66 23 -11 26 -9 40 24 16
40 27 38 45 -6 14 -34 18 -35 42 -16 16 12 16 15 -8 47 -23 31 -23 34 -7 37
58 9 64 13 61 35 -2 13 -9 21 -18 19 -8 -2 -29 -6 -47 -9 l-31 -5 5 41 c5 39
5 41 -22 41 -26 0 -27 -2 -22 -40z"/>
<path d="M21030 46995 l0 -175 100 0 c93 0 100 1 100 20 0 18 -7 20 -75 20
l-75 0 0 60 0 60 70 0 c63 0 70 2 70 20 0 18 -7 20 -70 20 l-70 0 0 55 0 55
75 0 c68 0 75 2 75 20 0 19 -7 20 -100 20 l-100 0 0 -175z"/>
<path d="M22589 47157 c-34 -26 -49 -74 -49 -156 0 -87 10 -124 42 -158 28
-30 95 -31 131 -3 67 53 58 282 -12 320 -27 14 -92 12 -112 -3z m97 -48 c16
-18 19 -37 19 -114 0 -102 -15 -135 -61 -135 -40 0 -58 42 -58 135 0 61 4 89
17 109 21 32 57 34 83 5z"/>
<path d="M21368 47076 c-16 -8 -30 -11 -33 -5 -4 5 -15 9 -26 9 -18 0 -19 -8
-19 -130 l0 -130 25 0 c25 0 25 1 25 89 0 70 4 93 18 109 24 28 54 35 78 18
16 -12 20 -29 22 -115 4 -91 6 -101 23 -101 17 0 19 8 19 68 0 93 15 141 47
153 19 7 32 6 49 -6 23 -15 24 -21 24 -115 l0 -100 26 0 26 0 -4 109 c-3 89
-7 113 -22 130 -29 32 -79 37 -120 13 -29 -17 -36 -18 -48 -6 -22 22 -79 27
-110 10z"/>
<path d="M21788 47078 c-40 -10 -43 -15 -29 -36 7 -11 16 -11 50 -1 36 11 43
10 61 -6 37 -34 26 -52 -36 -58 -68 -7 -100 -27 -109 -68 -11 -50 20 -83 80
-87 33 -2 52 2 65 13 17 15 19 15 28 -1 6 -11 16 -15 27 -10 16 6 17 18 13
112 -4 86 -8 109 -24 124 -24 24 -78 31 -126 18z m97 -167 c-8 -34 -31 -51
-71 -51 -70 0 -47 76 25 82 48 4 54 1 46 -31z"/>
<path d="M22010 46950 l0 -130 25 0 25 0 0 130 0 130 -25 0 -25 0 0 -130z"/>
<path d="M20720 46965 c0 -24 3 -25 60 -25 57 0 60 1 60 25 0 24 -3 25 -60 25
-57 0 -60 -1 -60 -25z"/>
<path d="M22813 46864 c-8 -20 8 -48 30 -52 19 -4 39 30 31 52 -8 21 -53 21
-61 0z"/>
<path d="M22943 46864 c-8 -20 8 -48 30 -52 19 -4 39 30 31 52 -8 21 -53 21
-61 0z"/>
<path d="M25390 35205 l0 -185 25 0 25 0 0 185 0 185 -25 0 -25 0 0 -185z"/>
<path d="M24350 35195 l0 -175 25 0 c24 0 25 2 25 75 l0 75 70 0 c63 0 70 2
70 20 0 18 -7 20 -70 20 l-70 0 0 60 0 60 75 0 c68 0 75 2 75 20 0 19 -7 20
-100 20 l-100 0 0 -175z"/>
<path d="M25530 35325 c0 -9 -12 -27 -26 -40 -26 -24 -25 -45 2 -45 11 0 14
-19 14 -93 0 -110 10 -127 78 -127 35 0 42 3 42 20 0 16 -7 20 -30 20 -39 0
-50 23 -50 109 l0 70 37 3 c26 2 39 8 41 20 2 13 -5 17 -35 20 -33 3 -38 7
-41 31 -3 28 -32 39 -32 12z"/>
<path d="M24652 35280 c-42 -10 -54 -21 -43 -39 7 -11 15 -11 41 -2 44 15 56
14 74 -5 26 -25 20 -54 -10 -54 -50 0 -115 -22 -126 -43 -16 -30 -12 -76 8
-98 22 -24 100 -26 132 -3 20 14 22 14 22 0 0 -9 9 -16 20 -16 19 0 20 7 20
94 0 115 -11 151 -52 165 -35 12 -39 12 -86 1z m88 -153 c0 -12 -7 -33 -16
-45 -20 -29 -79 -31 -93 -3 -19 35 12 56 102 70 4 0 7 -9 7 -22z"/>
<path d="M24917 35279 c-56 -22 -86 -134 -52 -199 21 -41 53 -60 101 -60 55 0
74 8 74 31 0 16 -6 17 -47 13 -65 -8 -84 8 -91 74 -3 38 0 58 13 78 15 23 22
25 66 22 41 -2 50 0 55 15 3 10 4 20 2 23 -11 10 -96 12 -121 3z"/>
<path d="M25092 35169 c3 -102 5 -112 27 -130 30 -24 107 -26 133 -2 17 15 18
15 18 0 0 -10 8 -17 20 -17 19 0 20 7 20 130 0 120 -1 130 -19 130 -16 0 -19
-11 -23 -90 -6 -104 -21 -130 -73 -130 -49 0 -55 14 -55 122 l0 98 -26 0 -26
0 4 -111z"/>
<path d="M25650 35277 c0 -2 22 -59 50 -127 32 -79 48 -131 44 -146 -7 -29
-33 -51 -64 -56 -14 -2 -26 -11 -28 -20 -3 -15 4 -18 36 -18 23 0 49 7 61 18
14 10 47 82 86 185 l63 167 -27 0 c-24 0 -29 -7 -61 -100 -25 -72 -37 -96 -42
-83 -4 10 -21 55 -38 101 -28 72 -35 82 -56 82 -13 0 -24 -1 -24 -3z"/>
<path d="M21430 34395 l0 -175 26 0 26 0 -4 135 c-1 74 -2 135 -1 135 1 0 41
-61 89 -135 78 -121 90 -135 115 -135 l29 0 0 175 0 175 -26 0 -25 0 3 -134
c2 -74 0 -132 -3 -130 -3 2 -44 62 -90 134 -74 115 -87 130 -111 130 l-28 0 0
-175z"/>
<path d="M21838 34478 c-40 -10 -43 -15 -29 -36 7 -11 16 -11 50 -1 36 11 43
10 61 -6 37 -34 26 -52 -36 -58 -68 -7 -100 -27 -109 -68 -11 -50 20 -83 80
-87 33 -2 52 2 65 13 17 15 19 15 28 -1 6 -11 16 -15 27 -10 16 6 17 18 13
112 -4 86 -8 109 -24 124 -24 24 -78 31 -126 18z m97 -167 c-8 -34 -31 -51
-71 -51 -70 0 -47 76 25 82 48 4 54 1 46 -31z"/>
<path d="M22135 34475 c-19 -10 -31 -12 -33 -6 -2 6 -12 11 -23 11 -18 0 -19
-9 -19 -130 l0 -130 25 0 c25 0 25 1 25 89 0 71 4 93 18 111 21 25 69 30 83 9
5 -8 9 -58 9 -111 0 -98 0 -98 25 -98 25 0 25 1 25 89 0 70 4 93 18 109 27 32
58 36 81 13 18 -18 21 -34 21 -116 0 -88 1 -95 20 -95 19 0 20 7 20 109 0 134
-11 153 -83 155 -32 1 -52 -4 -64 -16 -15 -16 -19 -16 -34 -2 -25 23 -80 27
-114 9z"/>
<path d="M22558 34474 c-78 -42 -82 -201 -7 -239 53 -28 159 -16 159 16 0 17
-5 19 -53 13 -64 -8 -91 4 -105 46 l-11 30 90 0 c89 0 89 0 89 25 0 48 -27 95
-64 110 -44 19 -63 18 -98 -1z m87 -49 c38 -37 31 -45 -35 -45 -43 0 -60 4
-60 13 0 25 32 53 63 56 4 1 19 -10 32 -24z"/>
<path d="M21120 34365 c0 -24 3 -25 60 -25 57 0 60 1 60 25 0 24 -3 25 -60 25
-57 0 -60 -1 -60 -25z"/>
<path d="M22540 33805 c0 -153 2 -185 14 -185 8 0 16 6 19 13 3 10 9 10 26 0
33 -20 104 -16 129 7 43 41 51 135 16 202 -20 39 -78 55 -127 34 l-37 -15 0
65 c0 57 -2 64 -20 64 -19 0 -20 -7 -20 -185z m159 20 c22 -21 26 -97 7 -133
-13 -25 -23 -32 -45 -32 -47 0 -60 10 -71 51 -27 98 45 174 109 114z"/>
<path d="M23751 33964 c-12 -15 -21 -39 -21 -54 0 -22 -6 -29 -26 -34 -30 -8
-27 -30 4 -34 21 -3 22 -8 22 -113 0 -102 1 -109 20 -109 19 0 20 7 20 109 l0
110 32 3 c47 4 51 35 6 40 -27 2 -32 7 -30 23 6 39 12 45 47 45 28 0 35 4 35
20 0 17 -7 20 -44 20 -36 0 -48 -5 -65 -26z"/>
<path d="M24880 33926 l0 -64 -43 16 c-75 27 -125 -8 -142 -99 -8 -44 9 -113
36 -140 25 -25 104 -26 131 -2 17 15 18 15 18 0 0 -10 8 -17 20 -17 19 0 20 7
20 185 0 178 -1 185 -20 185 -18 0 -20 -7 -20 -64z m-46 -86 c57 -21 58 -162
1 -176 -58 -14 -95 20 -95 87 0 38 25 86 47 92 10 3 19 5 20 6 1 0 13 -3 27
-9z"/>
<path d="M21430 33795 l0 -175 26 0 26 0 -4 135 c-1 74 -2 135 -1 135 1 0 41
-61 89 -135 78 -121 90 -135 115 -135 l29 0 0 175 0 175 -26 0 -25 0 3 -134
c2 -74 0 -132 -3 -130 -3 2 -44 62 -90 134 -74 115 -87 130 -111 130 l-28 0 0
-175z"/>
<path d="M24247 33911 c-4 -17 -14 -30 -26 -34 -27 -7 -27 -27 -1 -34 18 -5
20 -14 20 -92 0 -110 12 -131 76 -131 37 0 44 3 44 19 0 15 -8 21 -32 23 l-33
3 -3 87 -3 87 33 3 c22 2 34 9 36 21 3 14 -4 17 -32 17 -33 0 -36 2 -36 30 0
41 -35 43 -43 1z"/>
<path d="M25579 33911 c-6 -16 -17 -32 -25 -35 -18 -7 -18 -36 0 -36 11 0 15
-22 18 -96 4 -111 15 -127 83 -122 49 4 57 31 10 36 -16 2 -33 9 -37 15 -4 7
-8 47 -8 90 l0 77 35 0 c28 0 35 4 35 20 0 16 -7 20 -35 20 -32 0 -35 2 -35
30 0 40 -27 40 -41 1z"/>
<path d="M22165 33874 c-19 -10 -31 -11 -33 -5 -2 6 -12 11 -23 11 -18 0 -19
-9 -19 -131 0 -130 0 -130 23 -127 20 3 22 9 25 83 3 106 7 119 38 134 22 10
31 9 50 -4 23 -15 24 -21 24 -115 0 -100 0 -100 25 -100 25 0 25 1 25 89 0 70
4 93 18 109 23 28 54 35 77 18 16 -12 20 -30 23 -115 4 -91 6 -101 23 -101 17
0 19 9 19 106 0 58 -4 114 -10 124 -12 23 -73 44 -102 35 -13 -4 -31 -15 -41
-23 -13 -12 -20 -13 -25 -5 -8 12 -55 33 -75 33 -7 0 -25 -7 -42 -16z"/>
<path d="M22883 33876 c-42 -19 -63 -62 -63 -132 0 -50 3 -59 34 -90 30 -30
40 -34 89 -34 68 0 87 7 87 30 0 16 -7 17 -59 13 -50 -5 -61 -3 -80 16 -11 11
-21 30 -21 41 0 18 7 20 85 20 l85 0 0 30 c0 33 -20 79 -42 97 -23 19 -81 24
-115 9z m87 -46 c37 -37 26 -50 -40 -50 -68 0 -78 14 -34 49 33 26 49 26 74 1z"/>
<path d="M23200 33883 c-8 -3 -23 -12 -32 -21 -16 -13 -18 -13 -24 2 -3 9 -15
16 -25 16 -18 0 -19 -9 -19 -130 l0 -130 25 0 c25 0 25 1 25 84 0 98 18 133
73 138 24 2 32 8 32 23 0 21 -26 29 -55 18z"/>
<path d="M23493 33883 c-57 -11 -97 -114 -73 -187 17 -53 52 -76 114 -76 79 1
116 41 116 128 0 105 -57 154 -157 135z m90 -65 c9 -11 17 -30 18 -42 4 -79
-17 -116 -66 -116 -63 0 -96 80 -60 150 23 44 73 48 108 8z"/>
<path d="M24042 33879 c-38 -11 -58 -46 -48 -84 5 -21 21 -33 72 -56 55 -25
65 -33 62 -52 -3 -20 -8 -22 -70 -21 -58 0 -68 -2 -68 -17 0 -22 20 -29 81
-29 60 0 87 12 99 46 19 48 2 74 -66 105 -47 22 -64 34 -64 49 0 26 39 36 82
21 30 -11 47 -3 48 21 0 19 -83 30 -128 17z"/>
<path d="M25053 33876 c-42 -19 -63 -62 -63 -132 0 -50 3 -59 34 -90 30 -30
40 -34 89 -34 68 0 87 7 87 30 0 16 -7 17 -59 13 -50 -5 -61 -3 -80 16 -11 11
-21 30 -21 41 0 18 7 20 85 20 l85 0 0 30 c0 33 -20 79 -42 97 -23 19 -81 24
-115 9z m87 -46 c37 -37 26 -50 -40 -50 -68 0 -78 14 -34 49 33 26 49 26 74 1z"/>
<path d="M25345 33874 c-19 -10 -31 -11 -33 -5 -2 6 -12 11 -23 11 -18 0 -19
-9 -19 -130 l0 -130 25 0 c25 0 25 1 25 89 0 71 4 93 18 112 21 25 74 31 94
11 7 -7 14 -54 16 -112 4 -90 6 -100 23 -100 17 0 19 9 19 106 0 58 -4 114
-10 124 -10 18 -59 40 -89 40 -9 0 -29 -7 -46 -16z"/>
<path d="M25784 33883 c-48 -9 -73 -73 -44 -108 7 -9 35 -25 61 -36 62 -27 76
-43 58 -65 -11 -13 -26 -15 -76 -11 -47 5 -63 3 -63 -6 0 -25 25 -37 78 -37
82 0 112 21 112 77 0 35 -11 45 -91 86 -24 12 -45 28 -47 34 -6 22 41 36 82
25 31 -9 37 -8 46 8 9 16 5 20 -27 29 -39 11 -51 12 -89 4z"/>
<path d="M21790 33776 c0 -89 3 -107 21 -130 17 -21 29 -26 68 -26 26 0 56 7
69 16 20 14 22 14 22 0 0 -9 9 -16 20 -16 19 0 20 7 20 130 l0 130 -25 0 c-25
0 -25 -1 -25 -88 0 -104 -13 -132 -64 -132 -50 0 -56 13 -56 122 0 98 0 98
-25 98 l-25 0 0 -104z"/>
<path d="M24410 33770 c0 -97 2 -112 20 -130 23 -23 97 -28 133 -9 16 9 22 9
25 0 2 -6 12 -11 23 -11 18 0 19 9 19 130 l0 130 -25 0 c-25 0 -25 -1 -25 -88
0 -104 -13 -132 -63 -132 -57 0 -62 9 -65 120 -4 90 -6 100 -23 100 -18 0 -19
-8 -19 -110z"/>
<path d="M21120 33765 c0 -24 3 -25 60 -25 57 0 60 1 60 25 0 24 -3 25 -60 25
-57 0 -60 -1 -60 -25z"/>
<path d="M22540 33205 c0 -153 2 -185 14 -185 8 0 16 6 19 13 3 10 9 10 26 0
33 -20 104 -16 129 7 43 41 51 135 16 202 -20 39 -78 55 -127 34 l-37 -15 0
65 c0 57 -2 64 -20 64 -19 0 -20 -7 -20 -185z m159 20 c22 -21 26 -97 7 -133
-13 -25 -23 -32 -45 -32 -47 0 -60 10 -71 51 -27 98 45 174 109 114z"/>
<path d="M23751 33364 c-12 -15 -21 -39 -21 -54 0 -22 -6 -29 -26 -34 -30 -8
-27 -30 4 -34 21 -3 22 -8 22 -113 0 -102 1 -109 20 -109 19 0 20 7 20 109 l0
110 32 3 c47 4 51 35 6 40 -27 2 -32 7 -30 23 6 39 12 45 47 45 28 0 35 4 35
20 0 17 -7 20 -44 20 -36 0 -48 -5 -65 -26z"/>
<path d="M24950 33204 l0 -185 23 3 c20 3 22 9 25 83 3 110 7 121 44 134 25 9
36 8 55 -4 22 -14 23 -22 23 -115 0 -100 0 -100 25 -100 l25 0 0 104 c0 88 -3
107 -20 129 -26 33 -81 43 -122 23 -17 -9 -32 -16 -32 -16 -1 0 1 29 2 65 4
64 3 65 -22 65 l-26 0 0 -186z"/>
<path d="M21430 33195 l0 -175 26 0 26 0 -4 135 c-1 74 -2 135 -1 135 1 0 41
-61 89 -135 78 -121 90 -135 115 -135 l29 0 0 175 0 175 -26 0 -25 0 3 -134
c2 -74 0 -132 -3 -130 -3 2 -44 62 -90 134 -74 115 -87 130 -111 130 l-28 0 0
-175z"/>
<path d="M24017 33311 c-4 -17 -14 -30 -26 -34 -27 -7 -27 -27 -1 -34 18 -5
20 -14 20 -92 0 -110 12 -131 76 -131 37 0 44 3 44 19 0 15 -8 21 -32 23 l-33
3 -3 87 -3 87 33 3 c22 2 34 9 36 21 3 14 -4 17 -32 17 -33 0 -36 2 -36 30 0
41 -35 43 -43 1z"/>
<path d="M22165 33274 c-19 -10 -31 -11 -33 -5 -2 6 -12 11 -23 11 -18 0 -19
-9 -19 -131 0 -130 0 -130 23 -127 20 3 22 9 25 83 3 106 7 119 38 134 22 10
31 9 50 -4 23 -15 24 -21 24 -115 0 -100 0 -100 25 -100 25 0 25 1 25 89 0 70
4 93 18 109 23 28 54 35 77 18 16 -12 20 -30 23 -115 4 -91 6 -101 23 -101 17
0 19 9 19 106 0 58 -4 114 -10 124 -12 23 -73 44 -102 35 -13 -4 -31 -15 -41
-23 -13 -12 -20 -13 -25 -5 -8 12 -55 33 -75 33 -7 0 -25 -7 -42 -16z"/>
<path d="M22883 33276 c-42 -19 -63 -62 -63 -132 0 -50 3 -59 34 -90 30 -30
40 -34 89 -34 68 0 87 7 87 30 0 16 -7 17 -59 13 -50 -5 -61 -3 -80 16 -11 11
-21 30 -21 41 0 18 7 20 85 20 l85 0 0 30 c0 33 -20 79 -42 97 -23 19 -81 24
-115 9z m87 -46 c37 -37 26 -50 -40 -50 -68 0 -78 14 -34 49 33 26 49 26 74 1z"/>
<path d="M23200 33283 c-8 -3 -23 -12 -32 -21 -16 -13 -18 -13 -24 2 -3 9 -15
16 -25 16 -18 0 -19 -9 -19 -130 l0 -130 25 0 c25 0 25 1 25 84 0 98 18 133
73 138 24 2 32 8 32 23 0 21 -26 29 -55 18z"/>
<path d="M23493 33283 c-57 -11 -97 -114 -73 -187 17 -53 52 -76 114 -76 79 1
116 41 116 128 0 105 -57 154 -157 135z m90 -65 c9 -11 17 -30 18 -42 4 -79
-17 -116 -66 -116 -63 0 -96 80 -60 150 23 44 73 48 108 8z"/>
<path d="M24228 33274 c-78 -42 -82 -201 -7 -239 53 -28 159 -16 159 16 0 17
-5 19 -53 13 -64 -8 -91 4 -105 46 l-11 30 90 0 c89 0 89 0 89 25 0 48 -27 95
-64 110 -44 19 -63 18 -98 -1z m87 -49 c38 -37 31 -45 -35 -45 -43 0 -60 4
-60 13 0 25 32 53 63 56 4 1 19 -10 32 -24z"/>
<path d="M24498 33278 c-40 -10 -43 -15 -29 -36 7 -11 16 -11 50 -1 36 11 43
10 61 -6 37 -34 26 -52 -36 -58 -68 -7 -100 -27 -109 -68 -11 -50 20 -83 80
-87 33 -2 52 2 65 13 17 15 19 15 28 -1 6 -11 16 -15 27 -10 16 6 17 18 13
112 -4 86 -8 109 -24 124 -24 24 -78 31 -126 18z m97 -167 c-8 -34 -31 -51
-71 -51 -70 0 -47 76 25 82 48 4 54 1 46 -31z"/>
<path d="M24775 33276 c-45 -20 -67 -59 -67 -120 -1 -57 21 -109 52 -126 12
-6 44 -10 73 -8 44 3 52 6 55 24 3 20 -1 21 -45 17 -64 -7 -87 17 -87 87 0 68
23 92 82 89 32 -2 46 1 53 13 11 20 3 26 -47 33 -23 3 -51 0 -69 -9z"/>
<path d="M25304 33281 c-55 -23 -87 -116 -64 -185 17 -53 52 -76 116 -76 65 0
84 7 84 30 0 16 -7 17 -58 13 -55 -5 -60 -4 -80 22 -39 49 -32 55 69 55 l91 0
-7 42 c-8 48 -20 70 -45 86 -26 16 -82 23 -106 13z m73 -46 c11 -8 23 -24 26
-35 5 -19 1 -20 -58 -20 -59 0 -63 1 -58 20 6 21 39 50 58 50 6 0 20 -7 32
-15z"/>
<path d="M25610 33283 c-8 -3 -23 -12 -32 -21 -16 -14 -18 -13 -18 1 0 10 -8
17 -20 17 -19 0 -20 -7 -20 -130 0 -123 1 -130 20 -130 18 0 20 7 20 75 0 108
22 145 87 145 20 0 24 4 21 23 -3 22 -28 31 -58 20z"/>
<path d="M25752 33279 c-38 -11 -58 -46 -48 -84 5 -21 21 -33 72 -56 55 -25
65 -33 62 -52 -3 -20 -8 -22 -70 -21 -58 0 -68 -2 -68 -17 0 -22 20 -29 81
-29 60 0 87 12 99 46 19 48 2 74 -66 105 -47 22 -64 34 -64 49 0 26 39 36 82
21 30 -11 47 -3 48 21 0 19 -83 30 -128 17z"/>
<path d="M21790 33176 c0 -89 3 -107 21 -130 17 -21 29 -26 68 -26 26 0 56 7
69 16 20 14 22 14 22 0 0 -9 9 -16 20 -16 19 0 20 7 20 130 l0 130 -25 0 c-25
0 -25 -1 -25 -88 0 -104 -13 -132 -64 -132 -50 0 -56 13 -56 122 0 98 0 98
-25 98 l-25 0 0 -104z"/>
<path d="M21120 33165 c0 -24 3 -25 60 -25 57 0 60 1 60 25 0 24 -3 25 -60 25
-57 0 -60 -1 -60 -25z"/>
<path d="M5117 20674 c-13 -13 -7 -52 8 -58 27 -10 46 5 43 33 -3 26 -35 41
-51 25z"/>
<path d="M5247 20674 c-13 -13 -7 -52 8 -58 27 -10 46 5 43 33 -3 26 -35 41
-51 25z"/>
<path d="M4470 20405 c0 -178 1 -185 20 -185 18 0 20 7 20 68 0 98 14 138 52
151 25 9 36 8 55 -4 22 -14 23 -22 23 -115 l0 -100 26 0 26 0 -4 109 c-3 88
-7 113 -21 129 -26 28 -78 36 -121 18 l-36 -15 0 65 c0 57 -2 64 -20 64 -19 0
-20 -7 -20 -185z"/>
<path d="M3410 20551 c0 -17 8 -20 53 -23 l52 -3 3 -153 c3 -152 3 -153 25
-150 21 3 22 6 25 156 l3 152 49 0 c43 0 50 3 50 20 0 19 -7 20 -130 20 -122
0 -130 -1 -130 -19z"/>
<path d="M3754 20481 c-55 -23 -87 -116 -64 -185 17 -53 52 -76 116 -76 65 0
84 7 84 30 0 16 -7 17 -58 13 -55 -5 -60 -4 -80 22 -39 49 -32 55 69 55 l91 0
-7 42 c-8 48 -20 70 -45 86 -26 16 -82 23 -106 13z m73 -46 c11 -8 23 -24 26
-35 5 -19 1 -20 -58 -20 -59 0 -63 1 -58 20 6 21 39 50 58 50 6 0 20 -7 32
-15z"/>
<path d="M4045 20485 c-5 -2 -22 -6 -37 -9 -27 -6 -38 -29 -20 -40 5 -3 25 -1
45 5 46 12 77 -2 77 -35 0 -21 -6 -24 -52 -29 -69 -9 -102 -33 -106 -80 -4
-50 24 -77 81 -77 23 0 53 7 65 16 20 14 22 14 22 0 0 -9 9 -16 20 -16 19 0
20 7 20 108 0 95 -2 111 -20 130 -12 12 -26 22 -33 22 -7 0 -21 2 -32 5 -11 2
-24 2 -30 0z m65 -163 c0 -39 -30 -64 -72 -60 -26 2 -34 8 -36 27 -5 36 13 46
101 60 4 0 7 -12 7 -27z"/>
<path d="M4303 20483 c-56 -11 -94 -104 -73 -181 16 -60 51 -84 119 -80 49 3
56 6 59 25 3 21 1 22 -46 16 -45 -5 -50 -3 -70 22 -24 31 -29 83 -11 118 17
32 29 38 79 35 39 -2 45 0 48 18 2 17 -4 23 -29 28 -33 6 -39 6 -76 -1z"/>
<path d="M4817 20479 c-56 -22 -86 -134 -52 -199 23 -44 53 -60 111 -60 65 0
84 7 84 30 0 16 -7 17 -58 13 -55 -5 -60 -4 -80 22 -39 49 -31 55 63 55 l85 0
0 35 c0 41 -15 77 -39 92 -28 18 -83 23 -114 12z m81 -45 c12 -8 22 -24 22
-35 0 -17 -7 -19 -60 -19 -66 0 -73 8 -35 45 28 29 42 31 73 9z"/>
<path d="M5130 20483 c-8 -3 -23 -12 -32 -21 -16 -13 -18 -13 -24 2 -3 9 -15
16 -25 16 -18 0 -19 -9 -19 -130 l0 -130 25 0 c25 0 25 1 25 84 0 98 18 133
73 138 24 2 32 8 32 23 0 21 -26 29 -55 18z"/>
<path d="M1650 19604 l0 -185 23 3 c20 3 22 9 25 83 3 110 7 121 44 134 25 9
36 8 55 -4 22 -14 23 -22 23 -115 0 -100 0 -100 25 -100 l25 0 0 104 c0 88 -3
107 -20 129 -26 33 -81 43 -122 23 -17 -9 -32 -16 -32 -16 -1 0 1 29 2 65 4
64 3 65 -22 65 l-26 0 0 -186z"/>
<path d="M590 19751 c0 -17 8 -20 53 -23 l52 -3 3 -153 c3 -152 3 -153 25
-150 21 3 22 6 25 156 l3 152 49 0 c43 0 50 3 50 20 0 19 -7 20 -130 20 -122
0 -130 -1 -130 -19z"/>
<path d="M2390 19754 c0 -9 9 -18 20 -21 19 -5 20 -14 20 -138 0 -125 -1 -134
-20 -140 -11 -3 -20 -13 -20 -21 0 -11 15 -14 65 -14 50 0 65 3 65 14 0 8 -9
18 -20 21 -19 6 -20 15 -20 140 0 124 1 133 20 138 11 3 20 12 20 21 0 13 -12
16 -65 16 -53 0 -65 -3 -65 -16z"/>
<path d="M2580 19595 l0 -177 90 4 c96 4 123 16 164 71 30 41 34 134 7 189
-30 62 -68 81 -173 86 l-88 4 0 -177z m172 114 c58 -26 77 -150 32 -200 -25
-29 -75 -49 -119 -49 l-35 0 0 136 0 137 48 -6 c26 -3 60 -11 74 -18z"/>
<path d="M934 19681 c-55 -23 -87 -116 -64 -185 17 -53 52 -76 116 -76 65 0
84 7 84 30 0 16 -7 17 -58 13 -55 -5 -60 -4 -80 22 -39 49 -32 55 69 55 l91 0
-7 42 c-8 48 -20 70 -45 86 -26 16 -82 23 -106 13z m73 -46 c11 -8 23 -24 26
-35 5 -19 1 -20 -58 -20 -59 0 -63 1 -58 20 6 21 39 50 58 50 6 0 20 -7 32
-15z"/>
<path d="M1202 19680 c-41 -9 -46 -15 -38 -35 3 -10 13 -14 23 -11 70 21 94
13 108 -31 6 -21 3 -23 -27 -23 -52 0 -106 -19 -123 -43 -21 -30 -19 -73 5
-97 24 -24 95 -27 127 -5 19 13 22 13 27 0 3 -8 12 -15 21 -15 12 0 15 17 15
106 0 58 -5 114 -10 124 -8 16 -71 43 -90 39 -3 -1 -20 -5 -38 -9z m92 -139
c11 -18 -16 -71 -39 -77 -41 -10 -70 -1 -73 25 -5 36 10 45 100 60 4 0 9 -3
12 -8z"/>
<path d="M1483 19683 c-56 -11 -94 -104 -73 -181 16 -60 51 -84 119 -80 49 3
56 6 59 25 3 21 1 22 -46 16 -45 -5 -50 -3 -70 22 -24 31 -29 83 -11 118 17
32 29 38 79 35 39 -2 45 0 48 18 2 17 -4 23 -29 28 -33 6 -39 6 -76 -1z"/>
<path d="M1997 19679 c-56 -22 -86 -134 -52 -199 23 -44 53 -60 111 -60 65 0
84 7 84 30 0 16 -7 17 -58 13 -55 -5 -60 -4 -80 22 -39 49 -31 55 63 55 l85 0
0 35 c0 41 -15 77 -39 92 -28 18 -83 23 -114 12z m81 -45 c12 -8 22 -24 22
-35 0 -17 -7 -19 -60 -19 -66 0 -73 8 -35 45 28 29 42 31 73 9z"/>
<path d="M2310 19683 c-8 -3 -23 -12 -32 -21 -16 -13 -18 -13 -24 2 -3 9 -15
16 -25 16 -18 0 -19 -9 -19 -130 l0 -130 25 0 c25 0 25 1 25 84 0 98 18 133
73 138 24 2 32 8 32 23 0 21 -26 29 -55 18z"/>
<path d="M320 19565 c0 -24 3 -25 60 -25 57 0 60 1 60 25 0 24 -3 25 -60 25
-57 0 -60 -1 -60 -25z"/>
<path d="M19900 20526 l0 -64 -43 16 c-75 27 -125 -8 -142 -99 -8 -44 9 -113
36 -140 25 -25 104 -26 131 -2 17 15 18 15 18 0 0 -10 8 -17 20 -17 19 0 20 7
20 185 0 178 -1 185 -20 185 -18 0 -20 -7 -20 -64z m-46 -86 c57 -21 58 -162
1 -176 -58 -14 -95 20 -95 87 0 38 25 86 47 92 10 3 19 5 20 6 1 0 13 -3 27
-9z"/>
<path d="M19009 20541 c-56 -56 -34 -118 57 -161 70 -33 91 -58 74 -90 -16
-31 -72 -38 -149 -19 -19 5 -27 -31 -9 -42 22 -14 137 -10 168 6 34 18 55 71
41 106 -12 32 -37 53 -86 73 -73 31 -93 66 -58 101 16 17 74 17 114 1 11 -5
18 -1 22 14 7 27 -24 40 -94 40 -42 0 -55 -5 -80 -29z"/>
<path d="M19267 20511 c-4 -17 -14 -30 -26 -34 -27 -7 -27 -27 -1 -34 18 -5
20 -14 20 -92 0 -110 12 -131 76 -131 37 0 44 3 44 19 0 15 -8 21 -32 23 l-33
3 -3 87 -3 87 33 3 c22 2 34 9 36 21 3 14 -4 17 -32 17 -33 0 -36 2 -36 30 0
41 -35 43 -43 1z"/>
<path d="M20599 20511 c-6 -16 -17 -32 -25 -35 -18 -7 -18 -36 0 -36 11 0 15
-22 18 -96 4 -111 15 -127 83 -122 49 4 57 31 10 36 -16 2 -33 9 -37 15 -4 7
-8 47 -8 90 l0 77 35 0 c28 0 35 4 35 20 0 16 -7 20 -35 20 -32 0 -35 2 -35
30 0 40 -27 40 -41 1z"/>
<path d="M20073 20476 c-42 -19 -63 -62 -63 -132 0 -50 3 -59 34 -90 30 -30
40 -34 89 -34 68 0 87 7 87 30 0 16 -7 17 -59 13 -50 -5 -61 -3 -80 16 -11 11
-21 30 -21 41 0 18 7 20 85 20 l85 0 0 30 c0 33 -20 79 -42 97 -23 19 -81 24
-115 9z m87 -46 c37 -37 26 -50 -40 -50 -68 0 -78 14 -34 49 33 26 49 26 74 1z"/>
<path d="M20365 20474 c-19 -10 -31 -11 -33 -5 -2 6 -12 11 -23 11 -18 0 -19
-9 -19 -130 l0 -130 25 0 c25 0 25 1 25 89 0 71 4 93 18 112 21 25 74 31 94
11 7 -7 14 -54 16 -112 4 -90 6 -100 23 -100 17 0 19 9 19 106 0 58 -4 114
-10 124 -10 18 -59 40 -89 40 -9 0 -29 -7 -46 -16z"/>
<path d="M19430 20370 c0 -97 2 -112 20 -130 23 -23 97 -28 133 -9 16 9 22 9
25 0 2 -6 12 -11 23 -11 18 0 19 9 19 130 l0 130 -25 0 c-25 0 -25 -1 -25 -88
0 -104 -13 -132 -63 -132 -57 0 -62 9 -65 120 -4 90 -6 100 -23 100 -18 0 -19
-8 -19 -110z"/>
<path d="M17130 19726 l0 -65 -27 15 c-34 17 -50 17 -92 3 -48 -17 -67 -67
-62 -166 0 -18 12 -45 27 -62 22 -26 33 -31 71 -31 24 0 54 5 66 11 16 9 22 9
25 0 2 -6 12 -11 23 -11 18 0 19 9 19 185 l0 185 -25 0 c-24 0 -25 -2 -25 -64z
m-21 -101 c8 -8 16 -36 19 -64 6 -67 -15 -101 -62 -101 -56 0 -86 57 -66 129
15 56 69 74 109 36z"/>
<path d="M16254 19751 c-37 -23 -48 -62 -29 -108 11 -25 29 -40 82 -66 50 -25
69 -39 71 -56 8 -52 -54 -75 -136 -52 -30 9 -32 8 -32 -14 0 -29 16 -35 97
-35 58 0 67 3 94 29 31 32 38 75 18 113 -6 11 -39 33 -75 49 -70 32 -91 57
-74 89 14 26 54 35 98 22 37 -12 51 -5 52 24 0 29 -121 32 -166 5z"/>
<path d="M17977 19763 c-12 -12 -7 -22 13 -28 19 -6 20 -15 20 -142 0 -126 -1
-135 -20 -140 -11 -3 -20 -12 -20 -19 0 -11 16 -14 65 -14 50 0 65 3 65 14 0
8 -9 18 -20 21 -19 6 -20 15 -20 140 0 124 1 133 20 138 11 3 20 12 20 21 0
13 -12 16 -58 16 -32 0 -62 -3 -65 -7z"/>
<path d="M18168 19764 c-5 -4 -8 -84 -8 -177 l0 -169 88 4 c140 6 192 54 192
175 0 116 -52 164 -184 171 -45 2 -84 1 -88 -4z m174 -55 c45 -24 64 -130 33
-188 -16 -33 -77 -61 -130 -61 l-35 0 0 128 c0 71 3 132 8 136 9 10 99 -1 124
-15z"/>
<path d="M16504 19715 c-3 -14 -15 -30 -25 -36 -23 -12 -25 -39 -4 -39 12 0
15 -14 15 -68 0 -74 13 -131 32 -144 7 -4 32 -8 56 -8 35 0 42 3 42 20 0 15
-7 20 -28 20 -44 0 -52 16 -52 101 l0 78 37 3 c27 2 39 8 41 21 3 14 -4 17
-37 17 -39 0 -41 2 -41 30 0 38 -27 41 -36 5z"/>
<path d="M17840 19725 c0 -9 -12 -27 -26 -40 -26 -24 -25 -45 2 -45 11 0 14
-19 14 -93 0 -110 10 -127 78 -127 35 0 42 3 42 20 0 16 -7 20 -30 20 -39 0
-50 23 -50 109 l0 70 37 3 c26 2 39 8 41 20 2 13 -5 17 -35 20 -33 3 -38 7
-41 31 -3 28 -32 39 -32 12z"/>
<path d="M17314 19681 c-55 -23 -87 -116 -64 -185 17 -53 52 -76 116 -76 65 0
84 7 84 30 0 16 -7 17 -58 13 -55 -5 -60 -4 -80 22 -39 49 -32 55 69 55 l91 0
-7 42 c-8 48 -20 70 -45 86 -26 16 -82 23 -106 13z m73 -46 c11 -8 23 -24 26
-35 5 -19 1 -20 -58 -20 -59 0 -63 1 -58 20 6 21 39 50 58 50 6 0 20 -7 32
-15z"/>
<path d="M17603 19675 c-18 -8 -33 -10 -33 -5 0 6 -9 10 -20 10 -19 0 -20 -7
-20 -130 0 -123 1 -130 20 -130 18 0 20 7 20 68 0 98 14 138 52 151 25 9 36 8
55 -4 22 -14 23 -22 23 -115 l0 -100 26 0 26 0 -4 110 c-3 93 -6 113 -23 129
-27 27 -83 34 -122 16z"/>
<path d="M16662 19569 c3 -102 5 -112 27 -130 30 -24 107 -26 133 -2 17 15 18
15 18 0 0 -10 8 -17 20 -17 19 0 20 7 20 130 0 120 -1 130 -19 130 -16 0 -19
-11 -23 -90 -6 -104 -21 -130 -73 -130 -49 0 -55 14 -55 122 l0 98 -26 0 -26
0 4 -111z"/>
<path d="M15920 19565 c0 -24 3 -25 60 -25 57 0 60 1 60 25 0 24 -3 25 -60 25
-57 0 -60 -1 -60 -25z"/>
<path d="M32957 20844 c-13 -13 -7 -52 8 -58 27 -10 46 5 43 33 -3 26 -35 41
-51 25z"/>
<path d="M33087 20844 c-13 -13 -7 -52 8 -58 27 -10 46 5 43 33 -3 26 -35 41
-51 25z"/>
<path d="M34220 20405 l0 -185 24 0 c23 0 24 2 28 95 3 107 15 128 69 128 49
0 59 -22 59 -131 0 -91 1 -93 23 -90 21 3 22 7 21 103 0 58 -5 109 -12 122
-19 34 -79 49 -125 29 l-37 -15 0 65 c0 62 -1 64 -25 64 l-25 0 0 -185z"/>
<path d="M35424 20565 c-8 -21 3 -45 20 -45 20 0 29 16 21 40 -7 23 -33 27
-41 5z"/>
<path d="M32470 20395 c0 -168 1 -175 20 -175 18 0 20 7 20 70 l0 70 35 0 c32
0 37 -5 75 -70 33 -57 46 -70 65 -70 14 0 25 3 25 7 0 4 -18 37 -40 74 l-40
67 30 30 c34 35 39 75 15 122 -18 35 -63 50 -147 50 l-58 0 0 -175z m122 125
c40 -11 54 -35 44 -75 -7 -26 -59 -49 -98 -43 -20 3 -23 10 -26 52 -5 79 4 87
80 66z"/>
<path d="M34650 20395 l0 -175 25 0 c24 0 25 2 25 64 l0 64 47 7 c91 13 123
43 123 113 0 72 -48 101 -167 102 l-53 0 0 -175z m119 125 c40 -11 51 -24 51
-62 0 -35 -33 -58 -82 -58 l-38 0 0 65 c0 72 3 74 69 55z"/>
<path d="M36060 20525 c0 -9 -12 -27 -26 -40 -26 -24 -25 -45 2 -45 11 0 14
-19 14 -93 0 -110 10 -127 78 -127 35 0 42 3 42 20 0 16 -7 20 -30 20 -39 0
-50 23 -50 109 l0 70 37 3 c26 2 39 8 41 20 2 13 -5 17 -35 20 -33 3 -38 7
-41 31 -3 28 -32 39 -32 12z"/>
<path d="M32808 20474 c-78 -42 -82 -201 -7 -239 53 -28 159 -16 159 16 0 17
-5 19 -53 13 -64 -8 -91 4 -105 46 l-11 30 90 0 c89 0 89 0 89 25 0 48 -27 95
-64 110 -44 19 -63 18 -98 -1z m87 -49 c38 -37 31 -45 -35 -45 -43 0 -60 4
-60 13 0 25 32 53 63 56 4 1 19 -10 32 -24z"/>
<path d="M33061 20477 c-23 -8 -38 -21 -44 -40 -13 -40 12 -73 79 -102 46 -21
55 -28 52 -47 -3 -21 -8 -23 -70 -22 -58 0 -68 -2 -68 -17 0 -22 20 -29 84
-29 65 0 106 27 106 69 0 39 -17 57 -82 86 -62 27 -73 48 -35 66 17 8 35 8 61
1 30 -9 38 -8 43 4 3 9 2 19 -3 24 -16 16 -88 20 -123 7z"/>
<path d="M33308 20474 c-78 -42 -82 -201 -7 -239 53 -28 159 -16 159 16 0 17
-5 19 -53 13 -64 -8 -91 4 -105 46 l-11 30 90 0 c89 0 89 0 89 25 0 48 -27 95
-64 110 -44 19 -63 18 -98 -1z m87 -49 c38 -37 31 -45 -35 -45 -43 0 -60 4
-60 13 0 25 32 53 63 56 4 1 19 -10 32 -24z"/>
<path d="M33578 20478 c-40 -10 -43 -15 -29 -36 7 -11 16 -11 50 -1 36 11 43
10 61 -6 37 -34 26 -52 -36 -58 -68 -7 -100 -27 -109 -68 -11 -50 20 -83 80
-87 33 -2 52 2 65 13 17 15 19 15 28 -1 6 -11 16 -15 27 -10 16 6 17 18 13
112 -4 86 -8 109 -24 124 -24 24 -78 31 -126 18z m97 -167 c-8 -34 -31 -51
-71 -51 -70 0 -47 76 25 82 48 4 54 1 46 -31z"/>
<path d="M33873 20470 c-27 -16 -33 -17 -33 -5 0 8 -9 15 -20 15 -19 0 -20 -7
-20 -131 0 -130 0 -130 23 -127 21 3 22 9 27 96 6 103 17 122 72 122 23 0 28
4 28 25 0 32 -31 34 -77 5z"/>
<path d="M34047 20479 c-56 -22 -86 -134 -52 -199 21 -41 53 -60 101 -60 55 0
74 8 74 31 0 16 -6 17 -47 13 -65 -8 -84 8 -91 74 -3 38 0 58 13 78 15 23 22
25 66 22 41 -2 50 0 55 15 3 10 4 20 2 23 -11 10 -96 12 -121 3z"/>
<path d="M35030 20483 c-8 -3 -23 -12 -32 -21 -16 -14 -18 -13 -18 1 0 10 -8
17 -20 17 -19 0 -20 -7 -20 -130 0 -123 1 -130 20 -130 18 0 20 7 20 75 0 108
22 145 87 145 20 0 24 4 21 23 -3 22 -28 31 -58 20z"/>
<path d="M35185 20476 c-43 -19 -66 -58 -67 -115 -2 -63 18 -108 53 -126 33
-17 102 -20 130 -5 50 27 70 149 33 205 -18 28 -69 55 -101 55 -10 -1 -32 -7
-48 -14z m116 -83 c23 -70 -9 -133 -67 -133 -53 0 -83 60 -64 129 8 29 17 42
38 49 42 14 79 -3 93 -45z"/>
<path d="M35597 20479 c-56 -22 -86 -134 -52 -199 23 -44 53 -60 111 -60 65 0
84 7 84 30 0 16 -7 17 -58 13 -55 -5 -60 -4 -80 22 -39 49 -31 55 63 55 l85 0
0 35 c0 41 -15 77 -39 92 -28 18 -83 23 -114 12z m81 -45 c12 -8 22 -24 22
-35 0 -17 -7 -19 -60 -19 -66 0 -73 8 -35 45 28 29 42 31 73 9z"/>
<path d="M35867 20479 c-56 -22 -86 -134 -52 -199 21 -41 53 -60 101 -60 55 0
74 8 74 31 0 16 -6 17 -47 13 -65 -8 -84 8 -91 74 -3 38 0 58 13 78 15 23 22
25 66 22 41 -2 50 0 55 15 3 10 4 20 2 23 -11 10 -96 12 -121 3z"/>
<path d="M35420 20331 c0 -82 -3 -156 -6 -165 -4 -10 -18 -16 -35 -16 -22 0
-29 -5 -29 -20 0 -16 7 -20 38 -20 20 0 43 4 50 8 23 15 32 76 32 219 l0 143
-25 0 -25 0 0 -149z"/>
<path d="M31190 19605 l0 -185 25 0 25 0 0 185 0 185 -25 0 -25 0 0 -185z"/>
<path d="M30894 19766 c-9 -24 4 -48 23 -44 12 2 18 12 18 28 0 29 -32 41 -41
16z"/>
<path d="M30590 19751 c0 -17 8 -20 53 -23 l52 -3 3 -153 c3 -152 3 -153 25
-150 21 3 22 6 25 156 l3 152 49 0 c43 0 50 3 50 20 0 19 -7 20 -130 20 -122
0 -130 -1 -130 -19z"/>
<path d="M31027 19711 c-4 -17 -14 -30 -26 -34 -27 -7 -27 -27 -1 -34 18 -5
20 -14 20 -92 0 -110 12 -131 76 -131 37 0 44 3 44 19 0 15 -8 21 -32 23 l-33
3 -3 87 -3 87 33 3 c22 2 34 9 36 21 3 14 -4 17 -32 17 -33 0 -36 2 -36 30 0
41 -35 43 -43 1z"/>
<path d="M31367 19679 c-56 -22 -86 -134 -52 -199 23 -44 53 -60 111 -60 65 0
84 7 84 30 0 16 -7 17 -58 13 -55 -5 -60 -4 -80 22 -39 49 -31 55 63 55 l85 0
0 35 c0 41 -15 77 -39 92 -28 18 -83 23 -114 12z m81 -45 c12 -8 22 -24 22
-35 0 -17 -7 -19 -60 -19 -66 0 -73 8 -35 45 28 29 42 31 73 9z"/>
<path d="M30890 19550 l0 -130 25 0 25 0 0 130 0 130 -25 0 -25 0 0 -130z"/>
<path d="M30320 19565 c0 -24 3 -25 60 -25 57 0 60 1 60 25 0 24 -3 25 -60 25
-57 0 -60 -1 -60 -25z"/>
<path d="M31911 19166 c-13 -16 -4 -46 14 -46 7 0 18 7 25 15 10 12 10 18 0
30 -15 19 -24 19 -39 1z"/>
<path d="M32504 19165 c-8 -21 3 -45 20 -45 20 0 29 16 21 40 -7 23 -33 27
-41 5z"/>
<path d="M30630 18995 l0 -177 90 4 c96 4 123 16 164 71 30 41 34 134 7 189
-30 62 -68 81 -173 86 l-88 4 0 -177z m172 114 c58 -26 77 -150 32 -200 -25
-29 -75 -49 -119 -49 l-35 0 0 136 0 137 48 -6 c26 -3 60 -11 74 -18z"/>
<path d="M32337 19111 c-4 -17 -14 -30 -26 -34 -27 -7 -27 -27 -1 -34 18 -5
20 -14 20 -92 0 -110 12 -131 76 -131 37 0 44 3 44 19 0 15 -8 21 -32 23 l-33
3 -3 87 -3 87 33 3 c22 2 34 9 36 21 3 14 -4 17 -32 17 -33 0 -36 2 -36 30 0
41 -35 43 -43 1z"/>
<path d="M31034 19081 c-55 -23 -87 -116 -64 -185 17 -53 52 -76 116 -76 65 0
84 7 84 30 0 16 -7 17 -58 13 -55 -5 -60 -4 -80 22 -39 49 -32 55 69 55 l91 0
-7 42 c-8 48 -20 70 -45 86 -26 16 -82 23 -106 13z m73 -46 c11 -8 23 -24 26
-35 5 -19 1 -20 -58 -20 -59 0 -63 1 -58 20 6 21 39 50 58 50 6 0 20 -7 32
-15z"/>
<path d="M31281 19077 c-23 -8 -38 -21 -44 -40 -13 -40 12 -73 79 -102 46 -21
55 -28 52 -47 -3 -21 -8 -23 -70 -22 -58 0 -68 -2 -68 -17 0 -22 20 -29 84
-29 65 0 106 27 106 69 0 39 -17 57 -82 86 -62 27 -73 48 -35 66 17 8 35 8 61
1 30 -9 38 -8 43 4 3 9 2 19 -3 24 -16 16 -88 20 -123 7z"/>
<path d="M31535 19076 c-45 -20 -67 -59 -67 -120 -1 -57 21 -109 52 -126 12
-6 44 -10 73 -8 44 3 52 6 55 24 3 20 -1 21 -45 17 -64 -7 -87 17 -87 87 0 68
23 92 82 89 32 -2 46 1 53 13 11 20 3 26 -47 33 -23 3 -51 0 -69 -9z"/>
<path d="M31783 19070 c-27 -16 -33 -17 -33 -5 0 8 -9 15 -20 15 -19 0 -20 -7
-20 -131 0 -130 0 -130 23 -127 21 3 22 9 27 96 6 103 17 122 72 122 23 0 28
4 28 25 0 32 -31 34 -77 5z"/>
<path d="M32105 19074 c-19 -10 -31 -11 -33 -5 -2 6 -12 11 -23 11 -18 0 -19
-9 -19 -185 l0 -185 25 0 c24 0 25 2 25 65 0 62 1 65 19 55 25 -13 87 -13 112
0 30 16 49 64 49 122 0 107 -73 165 -155 122z m90 -57 c20 -28 19 -107 -1
-135 -10 -15 -25 -22 -49 -22 -43 0 -65 29 -65 88 0 52 13 80 43 91 29 11 55
3 72 -22z"/>
<path d="M32673 19076 c-46 -21 -66 -66 -61 -139 4 -52 9 -64 36 -88 27 -24
41 -29 83 -29 42 0 55 5 79 28 50 51 49 162 -4 211 -30 28 -91 36 -133 17z
m88 -36 c15 0 39 -57 39 -93 0 -75 -86 -119 -124 -65 -18 26 -21 100 -5 129
12 23 47 40 67 33 8 -2 18 -4 23 -4z"/>
<path d="M32993 19076 c-19 -9 -35 -11 -38 -5 -4 5 -15 9 -26 9 -18 0 -19 -8
-19 -130 l0 -130 24 0 c23 0 24 2 28 95 3 107 15 128 69 128 49 0 59 -22 59
-131 0 -91 1 -93 23 -90 19 3 22 10 25 58 5 79 -7 156 -26 179 -23 27 -79 34
-119 17z"/>
<path d="M31910 18950 c0 -123 1 -130 20 -130 19 0 20 7 20 130 0 123 -1 130
-20 130 -19 0 -20 -7 -20 -130z"/>
<path d="M32500 18949 c0 -130 0 -130 23 -127 21 3 22 7 25 131 l3 127 -26 0
-25 0 0 -131z"/>
<path d="M30320 18965 c0 -24 3 -25 60 -25 57 0 60 1 60 25 0 24 -3 25 -60 25
-57 0 -60 -1 -60 -25z"/>
<path d="M46453 20644 c-8 -20 8 -48 30 -52 19 -4 39 30 31 52 -8 21 -53 21
-61 0z"/>
<path d="M46587 20653 c-12 -11 -8 -40 7 -52 22 -18 46 -2 46 30 0 24 -4 29
-23 29 -13 0 -27 -3 -30 -7z"/>
<path d="M46615 20556 c-60 -26 -87 -78 -87 -167 0 -114 51 -169 159 -169 74
0 93 6 93 31 0 16 -6 18 -65 12 -63 -6 -65 -5 -100 30 -32 32 -35 40 -35 95 0
105 61 159 151 135 35 -9 41 -8 50 8 8 16 5 21 -16 29 -37 14 -114 12 -150 -4z"/>
<path d="M47417 20511 c-4 -17 -14 -30 -26 -34 -27 -7 -27 -27 -1 -34 18 -5
20 -14 20 -92 0 -110 12 -131 76 -131 37 0 44 3 44 19 0 15 -8 21 -32 23 l-33
3 -3 87 -3 87 33 3 c22 2 34 9 36 21 3 14 -4 17 -32 17 -33 0 -36 2 -36 30 0
41 -35 43 -43 1z"/>
<path d="M46892 20480 c-41 -9 -46 -15 -38 -35 3 -10 13 -14 23 -11 70 21 94
13 108 -31 6 -21 3 -23 -27 -23 -52 0 -106 -19 -123 -43 -21 -30 -19 -73 5
-97 24 -24 95 -27 127 -5 19 13 22 13 27 0 3 -8 12 -15 21 -15 12 0 15 17 15
106 0 58 -5 114 -10 124 -8 16 -71 43 -90 39 -3 -1 -20 -5 -38 -9z m92 -139
c11 -18 -16 -71 -39 -77 -41 -10 -70 -1 -73 25 -5 36 10 45 100 60 4 0 9 -3
12 -8z"/>
<path d="M47185 20474 c-19 -10 -31 -11 -33 -5 -2 6 -12 11 -23 11 -18 0 -19
-9 -19 -131 0 -130 0 -130 23 -127 20 3 22 9 25 83 3 110 7 121 44 134 25 9
36 8 55 -4 22 -14 23 -22 23 -115 0 -100 0 -100 25 -100 25 0 25 0 25 100 0
119 -10 146 -59 160 -47 13 -51 13 -86 -6z"/>
<path d="M47628 20474 c-78 -42 -82 -201 -7 -239 53 -28 159 -16 159 16 0 17
-5 19 -53 13 -64 -8 -91 4 -105 46 l-11 30 90 0 c89 0 89 0 89 25 0 48 -27 95
-64 110 -44 19 -63 18 -98 -1z m87 -49 c38 -37 31 -45 -35 -45 -43 0 -60 4
-60 13 0 25 32 53 63 56 4 1 19 -10 32 -24z"/>
<path d="M47898 20474 c-78 -42 -82 -201 -7 -239 53 -28 159 -16 159 16 0 17
-5 19 -53 13 -64 -8 -91 4 -105 46 l-11 30 90 0 c89 0 89 0 89 25 0 48 -27 95
-64 110 -44 19 -63 18 -98 -1z m87 -49 c38 -37 31 -45 -35 -45 -43 0 -60 4
-60 13 0 25 32 53 63 56 4 1 19 -10 32 -24z"/>
<path d="M48195 20474 c-19 -10 -31 -11 -33 -5 -2 6 -12 11 -23 11 -18 0 -19
-9 -19 -130 l0 -130 25 0 c25 0 25 1 25 89 0 71 4 93 18 112 21 25 74 31 94
11 7 -7 14 -54 16 -112 4 -90 6 -100 23 -100 17 0 19 9 19 106 0 58 -4 114
-10 124 -10 18 -59 40 -89 40 -9 0 -29 -7 -46 -16z"/>
<path d="M43830 19596 l0 -176 25 0 24 0 3 131 3 130 49 -130 c41 -112 51
-131 70 -131 18 0 29 21 73 138 l52 137 0 -137 1 -138 25 0 25 0 0 175 0 175
-34 0 c-38 0 -34 7 -118 -217 -11 -30 -22 -52 -25 -50 -2 3 -26 63 -53 134
l-48 128 -36 3 -36 3 0 -175z"/>
<path d="M44313 19676 c-42 -19 -63 -62 -63 -132 0 -50 3 -59 34 -90 30 -30
40 -34 89 -34 68 0 87 7 87 30 0 16 -7 17 -59 13 -50 -5 -61 -3 -80 16 -11 11
-21 30 -21 41 0 18 7 20 85 20 l85 0 0 30 c0 33 -20 79 -42 97 -23 19 -81 24
-115 9z m87 -46 c37 -37 26 -50 -40 -50 -68 0 -78 14 -34 49 33 26 49 26 74 1z"/>
<path d="M44613 19676 c-19 -9 -35 -11 -38 -5 -4 5 -15 9 -26 9 -18 0 -19 -8
-19 -130 l0 -130 24 0 c23 0 24 2 28 95 3 107 15 128 69 128 49 0 59 -22 59
-131 0 -91 1 -93 23 -90 19 3 22 10 25 58 5 79 -7 156 -26 179 -23 27 -79 34
-119 17z"/>
<path d="M44830 19570 c0 -97 2 -112 20 -130 23 -23 97 -28 133 -9 16 9 22 9
25 0 2 -6 12 -11 23 -11 18 0 19 9 19 130 l0 130 -25 0 c-25 0 -25 -1 -25 -88
0 -104 -13 -132 -63 -132 -57 0 -62 9 -65 120 -4 90 -6 100 -23 100 -18 0 -19
-8 -19 -110z"/>
<path d="M43520 19565 c0 -24 3 -25 60 -25 57 0 60 1 60 25 0 24 -3 25 -60 25
-57 0 -60 -1 -60 -25z"/>
<path d="M45194 19166 c-9 -24 4 -48 23 -44 12 2 18 12 18 28 0 29 -32 41 -41
16z"/>
<path d="M43905 19156 c-60 -26 -87 -78 -87 -167 0 -114 51 -169 159 -169 74
0 93 6 93 31 0 16 -6 18 -65 12 -63 -6 -65 -5 -100 30 -32 32 -35 40 -35 95 0
105 61 159 151 135 35 -9 41 -8 50 8 8 16 5 21 -16 29 -37 14 -114 12 -150 -4z"/>
<path d="M45329 19111 c-6 -16 -17 -32 -25 -35 -18 -7 -18 -36 0 -36 11 0 15
-22 18 -96 4 -111 15 -127 83 -122 49 4 57 31 10 36 -16 2 -33 9 -37 15 -4 7
-8 47 -8 90 l0 77 35 0 c28 0 35 4 35 20 0 16 -7 20 -35 20 -32 0 -35 2 -35
30 0 40 -27 40 -41 1z"/>
<path d="M44182 19080 c-41 -9 -46 -15 -38 -35 3 -10 13 -14 23 -11 70 21 94
13 108 -31 6 -21 3 -23 -27 -23 -52 0 -106 -19 -123 -43 -21 -30 -19 -73 5
-97 24 -24 95 -27 127 -5 19 13 22 13 27 0 3 -8 12 -15 21 -15 12 0 15 17 15
106 0 58 -5 114 -10 124 -8 16 -71 43 -90 39 -3 -1 -20 -5 -38 -9z m92 -139
c11 -18 -16 -71 -39 -77 -41 -10 -70 -1 -73 25 -5 36 10 45 100 60 4 0 9 -3
12 -8z"/>
<path d="M44475 19074 c-19 -10 -31 -11 -33 -5 -2 6 -12 11 -23 11 -18 0 -19
-9 -19 -185 l0 -185 26 0 c26 0 26 1 22 65 -4 60 2 79 17 55 8 -13 91 -13 117
1 47 25 64 147 28 207 -31 51 -81 64 -135 36z m92 -60 c18 -28 14 -114 -7
-139 -19 -23 -76 -19 -94 7 -17 23 -22 113 -8 135 11 17 53 31 75 25 10 -2 25
-15 34 -28z"/>
<path d="M44752 19080 c-42 -10 -54 -21 -43 -39 7 -11 15 -11 41 -2 44 15 56
14 74 -5 26 -25 20 -54 -10 -54 -50 0 -115 -22 -126 -43 -16 -30 -12 -76 8
-98 22 -24 100 -26 132 -3 20 14 22 14 22 0 0 -9 9 -16 20 -16 19 0 20 7 20
94 0 115 -11 151 -52 165 -35 12 -39 12 -86 1z m88 -153 c0 -12 -7 -33 -16
-45 -20 -29 -79 -31 -93 -3 -19 35 12 56 102 70 4 0 7 -9 7 -22z"/>
<path d="M45017 19079 c-56 -22 -86 -134 -52 -199 21 -41 53 -60 101 -60 55 0
74 8 74 31 0 16 -6 17 -47 13 -65 -8 -84 8 -91 74 -3 38 0 58 13 78 15 23 22
25 66 22 41 -2 50 0 55 15 3 10 4 20 2 23 -11 10 -96 12 -121 3z"/>
<path d="M45190 18950 l0 -130 25 0 25 0 0 130 0 130 -25 0 -25 0 0 -130z"/>
<path d="M45471 19028 c89 -223 84 -205 66 -243 -14 -29 -22 -35 -47 -35 -23
0 -30 -4 -30 -20 0 -17 7 -20 39 -20 60 0 70 17 172 293 l29 78 -27 -3 c-23
-3 -30 -13 -61 -101 l-35 -98 -37 98 c-33 88 -39 98 -63 101 l-27 3 21 -53z"/>
<path d="M43520 18965 c0 -24 3 -25 60 -25 57 0 60 1 60 25 0 24 -3 25 -60 25
-57 0 -60 -1 -60 -25z"/>
<path d="M3560 7195 c0 -168 1 -175 20 -175 18 0 20 7 20 64 l0 65 54 6 c74
10 113 35 122 79 17 93 -35 136 -163 136 l-53 0 0 -175z m152 108 c25 -23 23
-68 -4 -87 -12 -9 -42 -16 -65 -16 l-43 0 0 58 c0 32 3 62 8 66 11 12 84 -3
104 -21z"/>
<path d="M3893 7276 c-42 -19 -63 -62 -63 -132 0 -50 3 -59 34 -90 30 -30 40
-34 89 -34 68 0 87 7 87 30 0 16 -7 17 -59 13 -50 -5 -61 -3 -80 16 -11 11
-21 30 -21 41 0 18 7 20 85 20 l85 0 0 30 c0 33 -20 79 -42 97 -23 19 -81 24
-115 9z m87 -46 c37 -37 26 -50 -40 -50 -68 0 -78 14 -34 49 33 26 49 26 74 1z"/>
<path d="M4204 7280 c-12 -5 -25 -13 -29 -19 -9 -16 -25 -13 -25 4 0 8 -9 15
-20 15 -19 0 -20 -7 -20 -130 l0 -130 25 0 c25 0 25 1 25 84 0 97 20 136 70
136 19 0 29 6 33 19 8 32 -14 39 -59 21z"/>
<path d="M4341 7277 c-23 -8 -38 -21 -44 -40 -13 -40 12 -73 79 -102 46 -21
55 -28 52 -47 -3 -21 -8 -23 -70 -22 -58 0 -68 -2 -68 -17 0 -22 20 -29 84
-29 65 0 106 27 106 69 0 39 -17 57 -82 86 -62 27 -73 48 -35 66 17 8 35 8 61
1 30 -9 38 -8 43 4 3 9 2 19 -3 24 -16 16 -88 20 -123 7z"/>
<path d="M4595 7276 c-43 -19 -66 -58 -67 -115 -2 -63 18 -108 53 -126 33 -17
102 -20 130 -5 50 27 70 149 33 205 -18 28 -69 55 -101 55 -10 -1 -32 -7 -48
-14z m116 -83 c23 -70 -9 -133 -67 -133 -53 0 -83 60 -64 129 8 29 17 42 38
49 42 14 79 -3 93 -45z"/>
<path d="M4905 7274 c-19 -10 -31 -11 -33 -5 -2 6 -12 11 -23 11 -18 0 -19 -9
-19 -130 l0 -130 25 0 c25 0 25 1 25 89 0 71 4 93 18 112 21 25 74 31 94 11 7
-7 14 -54 16 -112 4 -90 6 -100 23 -100 17 0 19 9 19 106 0 58 -4 114 -10 124
-10 18 -59 40 -89 40 -9 0 -29 -7 -46 -16z"/>
<path d="M924 6566 c-9 -24 4 -48 23 -44 12 2 18 12 18 28 0 29 -32 41 -41 16z"/>
<path d="M1860 6395 l0 -175 26 0 26 0 -4 135 c-1 74 -2 135 -1 135 1 0 41
-61 89 -135 78 -121 90 -135 115 -135 l29 0 0 175 0 175 -26 0 -25 0 3 -134
c2 -74 0 -132 -3 -130 -3 2 -44 62 -90 134 -74 115 -87 130 -111 130 l-28 0 0
-175z"/>
<path d="M675 6476 c-70 -30 -84 -179 -23 -236 25 -23 106 -28 126 -8 17 17
25 4 17 -31 -9 -43 -36 -55 -107 -47 -52 5 -58 4 -58 -13 0 -25 19 -31 94 -31
55 0 67 3 90 26 26 27 26 27 26 185 0 152 -1 159 -20 159 -11 0 -20 -4 -20 -9
0 -6 -16 -3 -35 5 -41 17 -51 17 -90 0z m115 -82 c14 -41 6 -97 -16 -119 -9
-8 -31 -15 -49 -15 -28 0 -37 6 -50 30 -19 37 -19 83 0 120 27 52 96 43 115
-16z"/>
<path d="M1338 6474 c-78 -42 -82 -201 -7 -239 53 -28 159 -16 159 16 0 17 -5
19 -53 13 -64 -8 -91 4 -105 46 l-11 30 90 0 c89 0 89 0 89 25 0 48 -27 95
-64 110 -44 19 -63 18 -98 -1z m87 -49 c38 -37 31 -45 -35 -45 -43 0 -60 4
-60 13 0 25 32 53 63 56 4 1 19 -10 32 -24z"/>
<path d="M1635 6474 c-19 -10 -31 -11 -33 -5 -2 6 -12 11 -23 11 -18 0 -19 -9
-19 -130 l0 -130 25 0 c25 0 25 1 25 89 0 71 4 93 18 112 21 25 74 31 94 11 7
-7 14 -54 16 -112 4 -90 6 -100 23 -100 17 0 19 9 19 106 0 58 -4 114 -10 124
-10 18 -59 40 -89 40 -9 0 -29 -7 -46 -16z"/>
<path d="M2268 6478 c-40 -10 -43 -15 -29 -36 7 -11 16 -11 50 -1 36 11 43 10
61 -6 37 -34 26 -52 -36 -58 -68 -7 -100 -27 -109 -68 -11 -50 20 -83 80 -87
33 -2 52 2 65 13 17 15 19 15 28 -1 6 -11 16 -15 27 -10 16 6 17 18 13 112 -4
86 -8 109 -24 124 -24 24 -78 31 -126 18z m97 -167 c-8 -34 -31 -51 -71 -51
-70 0 -47 76 25 82 48 4 54 1 46 -31z"/>
<path d="M2565 6475 c-19 -10 -31 -12 -33 -6 -2 6 -12 11 -23 11 -18 0 -19 -9
-19 -130 l0 -130 25 0 c25 0 25 1 25 89 0 71 4 93 18 111 21 25 69 30 83 9 5
-8 9 -58 9 -111 0 -98 0 -98 25 -98 25 0 25 1 25 89 0 70 4 93 18 109 27 32
58 36 81 13 18 -18 21 -34 21 -116 0 -88 1 -95 20 -95 19 0 20 7 20 109 0 134
-11 153 -83 155 -32 1 -52 -4 -64 -16 -15 -16 -19 -16 -34 -2 -25 23 -80 27
-114 9z"/>
<path d="M2988 6474 c-78 -42 -82 -201 -7 -239 53 -28 159 -16 159 16 0 17 -5
19 -53 13 -64 -8 -91 4 -105 46 l-11 30 90 0 c89 0 89 0 89 25 0 48 -27 95
-64 110 -44 19 -63 18 -98 -1z m87 -49 c38 -37 31 -45 -35 -45 -43 0 -60 4
-60 13 0 25 32 53 63 56 4 1 19 -10 32 -24z"/>
<path d="M920 6350 l0 -130 25 0 25 0 0 130 0 130 -25 0 -25 0 0 -130z"/>
<path d="M1010 6473 c0 -5 21 -63 46 -130 44 -115 49 -123 74 -123 25 0 29 8
73 124 26 68 47 127 47 130 0 3 -11 6 -24 6 -21 0 -27 -11 -56 -92 -32 -90
-50 -126 -50 -100 0 7 -14 53 -31 102 -28 79 -34 90 -55 90 -13 0 -24 -3 -24
-7z"/>
<path d="M320 6365 c0 -24 3 -25 60 -25 57 0 60 1 60 25 0 24 -3 25 -60 25
-57 0 -60 -1 -60 -25z"/>
<path d="M661 5964 c-12 -15 -21 -39 -21 -54 0 -22 -6 -29 -26 -34 -30 -8 -27
-30 4 -34 21 -3 22 -8 22 -113 0 -102 1 -109 20 -109 19 0 20 7 20 109 l0 110
32 3 c47 4 51 35 6 40 -27 2 -32 7 -30 23 6 39 12 45 47 45 28 0 35 4 35 20 0
17 -7 20 -44 20 -36 0 -48 -5 -65 -26z"/>
<path d="M1630 5805 l0 -185 25 0 25 0 0 185 0 185 -25 0 -25 0 0 -185z"/>
<path d="M1514 5965 c-8 -21 3 -45 20 -45 20 0 29 16 21 40 -7 23 -33 27 -41
5z"/>
<path d="M2010 5796 c0 -168 1 -176 20 -176 18 0 20 8 22 135 l3 135 85 -135
c75 -118 88 -134 113 -135 l27 0 0 175 c0 167 -1 175 -20 175 -18 0 -20 -8
-22 -136 l-3 -136 -85 134 c-72 111 -90 134 -113 136 l-27 3 0 -175z"/>
<path d="M838 5878 c-40 -10 -43 -15 -29 -36 7 -11 16 -11 50 -1 36 11 43 10
61 -6 37 -34 26 -52 -36 -58 -68 -7 -100 -27 -109 -68 -11 -50 20 -83 80 -87
33 -2 52 2 65 13 17 15 19 15 28 -1 6 -11 16 -15 27 -10 16 6 17 18 13 112 -4
86 -8 109 -24 124 -24 24 -78 31 -126 18z m97 -167 c-8 -34 -31 -51 -71 -51
-70 0 -47 76 25 82 48 4 54 1 46 -31z"/>
<path d="M1135 5875 c-19 -10 -31 -12 -33 -6 -2 6 -12 11 -23 11 -18 0 -19 -9
-19 -130 l0 -130 25 0 c25 0 25 1 25 89 0 71 4 93 18 111 21 25 69 30 83 9 5
-8 9 -58 9 -111 0 -98 0 -98 25 -98 25 0 25 1 25 89 0 70 4 93 18 109 27 32
58 36 81 13 18 -18 21 -34 21 -116 0 -88 1 -95 20 -95 19 0 20 7 20 109 0 134
-11 153 -83 155 -32 1 -52 -4 -64 -16 -15 -16 -19 -16 -34 -2 -25 23 -80 27
-114 9z"/>
<path d="M2445 5885 c-5 -2 -22 -6 -37 -9 -27 -6 -38 -29 -20 -40 5 -3 25 -1
45 5 46 12 77 -2 77 -35 0 -21 -6 -24 -52 -29 -69 -9 -102 -33 -106 -80 -4
-50 24 -77 81 -77 23 0 53 7 65 16 20 14 22 14 22 0 0 -9 9 -16 20 -16 19 0
20 7 20 108 0 95 -2 111 -20 130 -12 12 -26 22 -33 22 -7 0 -21 2 -32 5 -11 2
-24 2 -30 0z m65 -163 c0 -39 -30 -64 -72 -60 -26 2 -34 8 -36 27 -5 36 13 46
101 60 4 0 7 -12 7 -27z"/>
<path d="M2708 5875 c-16 -9 -28 -11 -28 -5 0 5 -9 10 -20 10 -19 0 -20 -7
-20 -130 0 -123 1 -130 20 -130 18 0 20 7 20 75 0 74 19 145 39 145 5 0 16 3
24 6 9 3 25 -4 36 -15 18 -18 21 -33 21 -116 0 -95 0 -95 25 -95 25 0 25 1 25
93 0 50 4 97 8 103 21 32 75 38 94 10 4 -6 8 -55 8 -108 0 -98 0 -98 25 -98
25 0 25 0 25 100 0 119 -10 146 -61 161 -32 10 -44 9 -78 -8 -34 -17 -42 -18
-54 -6 -21 21 -78 25 -109 8z"/>
<path d="M3137 5879 c-56 -22 -86 -134 -52 -199 23 -44 53 -60 111 -60 65 0
84 7 84 30 0 16 -7 17 -58 13 -55 -5 -60 -4 -80 22 -39 49 -31 55 63 55 l85 0
0 35 c0 41 -15 77 -39 92 -28 18 -83 23 -114 12z m81 -45 c12 -8 22 -24 22
-35 0 -17 -7 -19 -60 -19 -66 0 -73 8 -35 45 28 29 42 31 73 9z"/>
<path d="M1510 5749 c0 -130 0 -130 23 -127 21 3 22 7 25 131 l3 127 -26 0
-25 0 0 -131z"/>
<path d="M1720 5872 c0 -5 22 -64 50 -132 l50 -123 -18 -31 c-13 -23 -27 -32
-50 -34 -24 -2 -32 -8 -32 -23 0 -15 7 -19 34 -19 50 0 65 8 86 50 19 38 120
301 120 313 0 4 -11 7 -25 7 -14 0 -25 -1 -25 -3 0 -2 -15 -47 -34 -100 l-33
-97 -38 100 c-33 88 -40 100 -61 100 -13 0 -24 -4 -24 -8z"/>
<path d="M320 5765 c0 -24 3 -25 60 -25 57 0 60 1 60 25 0 24 -3 25 -60 25
-57 0 -60 -1 -60 -25z"/>
<path d="M19160 7195 c0 -168 1 -175 20 -175 18 0 20 7 20 64 l0 65 54 6 c74
10 113 35 122 79 17 93 -35 136 -163 136 l-53 0 0 -175z m152 108 c25 -23 23
-68 -4 -87 -12 -9 -42 -16 -65 -16 l-43 0 0 58 c0 32 3 62 8 66 11 12 84 -3
104 -21z"/>
<path d="M19493 7276 c-42 -19 -63 -62 -63 -132 0 -50 3 -59 34 -90 30 -30 40
-34 89 -34 68 0 87 7 87 30 0 16 -7 17 -59 13 -50 -5 -61 -3 -80 16 -11 11
-21 30 -21 41 0 18 7 20 85 20 l85 0 0 30 c0 33 -20 79 -42 97 -23 19 -81 24
-115 9z m87 -46 c37 -37 26 -50 -40 -50 -68 0 -78 14 -34 49 33 26 49 26 74 1z"/>
<path d="M19804 7280 c-12 -5 -25 -13 -29 -19 -9 -16 -25 -13 -25 4 0 8 -9 15
-20 15 -19 0 -20 -7 -20 -130 l0 -130 25 0 c25 0 25 1 25 84 0 97 20 136 70
136 19 0 29 6 33 19 8 32 -14 39 -59 21z"/>
<path d="M19941 7277 c-23 -8 -38 -21 -44 -40 -13 -40 12 -73 79 -102 46 -21
55 -28 52 -47 -3 -21 -8 -23 -70 -22 -58 0 -68 -2 -68 -17 0 -22 20 -29 84
-29 65 0 106 27 106 69 0 39 -17 57 -82 86 -62 27 -73 48 -35 66 17 8 35 8 61
1 30 -9 38 -8 43 4 3 9 2 19 -3 24 -16 16 -88 20 -123 7z"/>
<path d="M20195 7276 c-43 -19 -66 -58 -67 -115 -2 -63 18 -108 53 -126 33
-17 102 -20 130 -5 50 27 70 149 33 205 -18 28 -69 55 -101 55 -10 -1 -32 -7
-48 -14z m116 -83 c23 -70 -9 -133 -67 -133 -53 0 -83 60 -64 129 8 29 17 42
38 49 42 14 79 -3 93 -45z"/>
<path d="M20505 7274 c-19 -10 -31 -11 -33 -5 -2 6 -12 11 -23 11 -18 0 -19
-9 -19 -130 l0 -130 25 0 c25 0 25 1 25 89 0 71 4 93 18 112 21 25 74 31 94
11 7 -7 14 -54 16 -112 4 -90 6 -100 23 -100 17 0 19 9 19 106 0 58 -4 114
-10 124 -10 18 -59 40 -89 40 -9 0 -29 -7 -46 -16z"/>
<path d="M16234 6566 c-9 -24 4 -48 23 -44 12 2 18 12 18 28 0 29 -32 41 -41
16z"/>
<path d="M17177 6563 c-4 -3 -7 -82 -7 -175 l0 -168 25 0 24 0 3 132 3 133 85
-133 c75 -117 88 -132 113 -132 l27 0 0 175 c0 167 -1 175 -20 175 -18 0 -20
-8 -22 -137 l-3 -138 -89 138 c-70 108 -93 137 -110 137 -13 0 -26 -3 -29 -7z"/>
<path d="M15995 6481 c-52 -22 -79 -94 -65 -172 11 -59 43 -89 97 -89 25 0 53
5 64 10 16 9 19 7 19 -12 0 -13 -7 -34 -16 -47 -16 -22 -22 -23 -85 -18 -62 5
-69 4 -69 -12 0 -23 27 -31 100 -31 103 0 120 32 120 238 0 123 -1 132 -19
132 -11 0 -21 -5 -23 -11 -3 -8 -14 -7 -35 5 -35 17 -57 19 -88 7z m98 -63
c22 -26 23 -105 1 -136 -10 -15 -25 -22 -48 -22 -56 0 -86 57 -66 129 16 60
73 75 113 29z"/>
<path d="M16653 6476 c-42 -19 -63 -62 -63 -132 0 -50 3 -59 34 -90 30 -30 40
-34 89 -34 68 0 87 7 87 30 0 16 -7 17 -59 13 -50 -5 -61 -3 -80 16 -11 11
-21 30 -21 41 0 18 7 20 85 20 l85 0 0 30 c0 33 -20 79 -42 97 -23 19 -81 24
-115 9z m87 -46 c37 -37 26 -50 -40 -50 -68 0 -78 14 -34 49 33 26 49 26 74 1z"/>
<path d="M16945 6474 c-19 -10 -31 -11 -33 -5 -2 6 -12 11 -23 11 -18 0 -19
-9 -19 -130 l0 -130 25 0 c25 0 25 1 25 89 0 71 4 93 18 112 21 25 74 31 94
11 7 -7 14 -54 16 -112 4 -90 6 -100 23 -100 17 0 19 9 19 106 0 58 -4 114
-10 124 -10 18 -59 40 -89 40 -9 0 -29 -7 -46 -16z"/>
<path d="M17592 6480 c-42 -10 -54 -21 -43 -39 7 -11 15 -11 41 -2 44 15 56
14 74 -5 26 -25 20 -54 -10 -54 -50 0 -115 -22 -126 -43 -16 -30 -12 -76 8
-98 22 -24 100 -26 132 -3 20 14 22 14 22 0 0 -9 9 -16 20 -16 19 0 20 7 20
94 0 115 -11 151 -52 165 -35 12 -39 12 -86 1z m88 -153 c0 -12 -7 -33 -16
-45 -20 -29 -79 -31 -93 -3 -19 35 12 56 102 70 4 0 7 -9 7 -22z"/>
<path d="M17878 6476 c-16 -8 -30 -11 -33 -5 -4 5 -15 9 -26 9 -18 0 -19 -8
-19 -130 l0 -130 25 0 c25 0 25 1 25 89 0 70 4 93 18 109 24 28 54 35 78 18
16 -12 20 -29 22 -115 4 -91 6 -101 23 -101 17 0 19 8 19 68 0 93 15 141 47
153 19 7 32 6 49 -6 23 -15 24 -21 24 -115 l0 -100 26 0 26 0 -4 109 c-3 89
-7 113 -22 130 -29 32 -79 37 -120 13 -29 -17 -36 -18 -48 -6 -22 22 -79 27
-110 10z"/>
<path d="M18303 6476 c-42 -19 -63 -62 -63 -132 0 -50 3 -59 34 -90 30 -30 40
-34 89 -34 68 0 87 7 87 30 0 16 -7 17 -59 13 -50 -5 -61 -3 -80 16 -11 11
-21 30 -21 41 0 18 7 20 85 20 l85 0 0 30 c0 33 -20 79 -42 97 -23 19 -81 24
-115 9z m87 -46 c37 -37 26 -50 -40 -50 -68 0 -78 14 -34 49 33 26 49 26 74 1z"/>
<path d="M16230 6350 l0 -130 25 0 25 0 0 130 0 130 -25 0 -25 0 0 -130z"/>
<path d="M16323 6468 c97 -262 90 -248 119 -248 23 0 29 7 46 53 11 28 32 83
46 121 32 83 32 86 3 86 -20 0 -27 -13 -59 -102 -32 -92 -37 -100 -45 -78 -5
14 -22 60 -37 103 -25 68 -31 77 -53 77 -16 0 -23 -5 -20 -12z"/>
<path d="M15971 5964 c-12 -15 -21 -39 -21 -54 0 -22 -6 -29 -26 -34 -30 -8
-27 -30 4 -34 21 -3 22 -8 22 -113 l0 -109 25 0 25 0 0 110 0 110 30 0 c23 0
30 4 30 20 0 16 -7 20 -30 20 -25 0 -30 4 -30 23 0 30 18 47 51 47 25 0 45 21
32 34 -4 3 -26 6 -49 6 -34 0 -47 -5 -63 -26z"/>
<path d="M16950 5805 c0 -178 1 -185 20 -185 19 0 20 7 20 185 0 178 -1 185
-20 185 -19 0 -20 -7 -20 -185z"/>
<path d="M16824 5966 c-9 -24 4 -48 23 -44 12 2 18 12 18 28 0 29 -32 41 -41
16z"/>
<path d="M17320 5795 c0 -167 1 -175 20 -175 18 0 20 8 22 136 l3 137 86 -134
c78 -121 89 -134 118 -137 l31 -3 -2 173 c-3 170 -3 173 -25 176 -22 3 -22 1
-25 -131 l-3 -135 -85 134 c-75 118 -88 134 -112 134 l-28 0 0 -175z"/>
<path d="M16162 5880 c-42 -10 -54 -21 -43 -39 7 -11 15 -11 41 -2 44 15 56
14 74 -5 26 -25 20 -54 -10 -54 -50 0 -115 -22 -126 -43 -16 -30 -12 -76 8
-98 22 -24 100 -26 132 -3 20 14 22 14 22 0 0 -9 9 -16 20 -16 19 0 20 7 20
94 0 115 -11 151 -52 165 -35 12 -39 12 -86 1z m88 -153 c0 -12 -7 -33 -16
-45 -20 -29 -79 -31 -93 -3 -19 35 12 56 102 70 4 0 7 -9 7 -22z"/>
<path d="M16448 5876 c-16 -8 -30 -11 -33 -5 -4 5 -15 9 -26 9 -18 0 -19 -8
-19 -130 l0 -130 25 0 c25 0 25 1 25 89 0 70 4 93 18 109 24 28 54 35 78 18
16 -12 20 -29 22 -115 4 -91 6 -101 23 -101 17 0 19 8 19 68 0 93 15 141 47
153 19 7 32 6 49 -6 23 -15 24 -21 24 -115 l0 -100 26 0 26 0 -4 109 c-3 89
-7 113 -22 130 -29 32 -79 37 -120 13 -29 -17 -36 -18 -48 -6 -22 22 -79 27
-110 10z"/>
<path d="M17732 5880 c-41 -9 -46 -15 -38 -35 3 -10 13 -14 23 -11 70 21 94
13 108 -31 6 -21 3 -23 -27 -23 -52 0 -106 -19 -123 -43 -21 -30 -19 -73 5
-97 24 -24 95 -27 127 -5 19 13 22 13 27 0 3 -8 12 -15 21 -15 12 0 15 17 15
106 0 58 -5 114 -10 124 -8 16 -71 43 -90 39 -3 -1 -20 -5 -38 -9z m92 -139
c11 -18 -16 -71 -39 -77 -41 -10 -70 -1 -73 25 -5 36 10 45 100 60 4 0 9 -3
12 -8z"/>
<path d="M18025 5874 c-19 -10 -31 -11 -33 -5 -2 6 -12 11 -23 11 -18 0 -19
-9 -19 -131 0 -130 0 -130 23 -127 20 3 22 9 25 83 3 106 7 119 38 134 22 10
31 9 50 -4 23 -15 24 -21 24 -115 0 -100 0 -100 25 -100 25 0 25 1 25 89 0 70
4 93 18 109 23 28 54 35 77 18 16 -12 20 -30 23 -115 4 -91 6 -101 23 -101 17
0 19 9 19 106 0 58 -4 114 -10 124 -12 23 -73 44 -102 35 -13 -4 -31 -15 -41
-23 -13 -12 -20 -13 -25 -5 -8 12 -55 33 -75 33 -7 0 -25 -7 -42 -16z"/>
<path d="M18454 5881 c-55 -23 -87 -116 -64 -185 17 -53 52 -76 116 -76 65 0
84 7 84 30 0 16 -7 17 -58 13 -55 -5 -60 -4 -80 22 -39 49 -32 55 69 55 l91 0
-7 42 c-8 48 -20 70 -45 86 -26 16 -82 23 -106 13z m73 -46 c11 -8 23 -24 26
-35 5 -19 1 -20 -58 -20 -59 0 -63 1 -58 20 6 21 39 50 58 50 6 0 20 -7 32
-15z"/>
<path d="M16820 5750 l0 -130 25 0 25 0 0 130 0 130 -25 0 -25 0 0 -130z"/>
<path d="M17030 5877 c0 -2 22 -59 50 -127 32 -79 48 -131 44 -146 -7 -29 -33
-51 -64 -56 -14 -2 -26 -11 -28 -20 -3 -15 4 -18 36 -18 23 0 49 7 61 18 14
10 47 82 86 185 l63 167 -27 0 c-24 0 -29 -7 -61 -100 -25 -72 -37 -96 -42
-83 -4 10 -21 55 -38 101 -28 72 -35 82 -56 82 -13 0 -24 -1 -24 -3z"/>
<path d="M25146 41694 c-40 -31 -45 -38 -35 -55 l11 -21 22 21 c12 12 25 21
29 21 4 0 7 -63 7 -140 l0 -140 25 0 25 0 0 175 c0 202 -1 203 -84 139z"/>
<path d="M25666 41693 c-42 -33 -45 -38 -32 -52 14 -13 19 -13 46 7 l30 23 0
-146 c0 -138 1 -145 20 -145 19 0 20 7 20 175 0 202 -1 203 -84 138z"/>
<path d="M25367 41434 c-13 -13 -7 -52 8 -58 27 -10 46 5 43 33 -3 26 -35 41
-51 25z"/>
<path d="M25490 41412 c0 -34 24 -49 47 -31 23 20 12 54 -19 57 -25 3 -28 0
-28 -26z"/>
<path d="M26140 38985 l0 -185 25 0 25 0 0 185 0 185 -25 0 -25 0 0 -185z"/>
<path d="M27101 39151 c-11 -11 -23 -35 -26 -55 -5 -22 -14 -36 -26 -39 -25
-7 -25 -37 1 -37 19 0 20 -7 20 -110 l0 -110 25 0 25 0 0 110 0 110 30 0 c23
0 30 4 30 20 0 16 -7 20 -30 20 -25 0 -30 4 -30 24 0 29 16 43 55 48 19 2 31
9 33 21 5 26 -81 24 -107 -2z"/>
<path d="M25107 39143 c-4 -3 -7 -82 -7 -175 l0 -168 25 0 c23 0 24 3 27 73
l3 72 68 3 c59 3 67 5 67 22 0 18 -7 20 -70 20 l-71 0 3 58 3 57 73 3 c64 3
72 5 72 22 0 18 -7 20 -93 20 -52 0 -97 -3 -100 -7z"/>
<path d="M26751 39132 c-49 -27 -73 -79 -73 -156 0 -120 49 -176 156 -176 106
0 157 56 158 171 1 69 -21 125 -60 154 -39 28 -136 32 -181 7z m138 -36 c36
-19 51 -55 51 -122 0 -92 -33 -134 -105 -134 -47 0 -71 13 -90 50 -18 36 -19
136 -1 169 26 48 91 64 145 37z"/>
<path d="M26279 39091 c-6 -16 -17 -32 -25 -35 -18 -7 -18 -36 0 -36 11 0 15
-22 18 -96 4 -111 15 -127 83 -122 49 4 57 31 10 36 -16 2 -33 9 -37 15 -4 7
-8 47 -8 90 l0 77 35 0 c28 0 35 4 35 20 0 16 -7 20 -35 20 -32 0 -35 2 -35
30 0 40 -27 40 -41 1z"/>
<path d="M25402 39060 c-41 -9 -46 -15 -38 -35 3 -10 13 -14 23 -11 70 21 94
13 108 -31 6 -21 3 -23 -27 -23 -52 0 -106 -19 -123 -43 -21 -30 -19 -73 5
-97 24 -24 95 -27 127 -5 19 13 22 13 27 0 3 -8 12 -15 21 -15 12 0 15 17 15
106 0 58 -5 114 -10 124 -8 16 -71 43 -90 39 -3 -1 -20 -5 -38 -9z m92 -139
c11 -18 -16 -71 -39 -77 -41 -10 -70 -1 -73 25 -5 36 10 45 100 60 4 0 9 -3
12 -8z"/>
<path d="M25683 39063 c-56 -11 -94 -104 -73 -181 16 -60 51 -84 119 -80 49 3
56 6 59 25 3 21 1 22 -46 16 -45 -5 -50 -3 -70 22 -24 31 -29 83 -11 118 17
32 29 38 79 35 39 -2 45 0 48 18 2 17 -4 23 -29 28 -33 6 -39 6 -76 -1z"/>
<path d="M25850 38950 c0 -97 2 -112 20 -130 23 -23 97 -28 133 -9 16 9 22 9
25 0 2 -6 12 -11 23 -11 18 0 19 9 19 130 l0 130 -25 0 c-25 0 -25 -1 -25 -88
0 -104 -13 -132 -63 -132 -57 0 -62 9 -65 120 -4 90 -6 100 -23 100 -18 0 -19
-8 -19 -110z"/>
<path d="M26421 39008 c89 -223 84 -205 66 -243 -14 -29 -22 -35 -47 -35 -23
0 -30 -4 -30 -20 0 -17 7 -20 39 -20 60 0 70 17 172 293 l29 78 -27 -3 c-23
-3 -30 -13 -61 -101 l-35 -98 -37 98 c-33 88 -39 98 -63 101 l-27 3 21 -53z"/>
<path d="M25707 36656 l5 -45 -46 14 -47 14 3 -27 c3 -23 8 -27 41 -30 l37 -3
-27 -36 c-26 -34 -26 -36 -8 -49 27 -20 32 -18 45 21 6 19 15 35 19 35 4 0 15
-16 24 -35 15 -31 20 -34 37 -25 25 14 25 16 -6 57 l-25 33 30 0 c46 0 59 8
54 35 -5 23 -6 23 -50 10 l-45 -14 5 45 c4 43 4 44 -23 44 -27 0 -27 -1 -23
-44z"/>
<path d="M25128 36670 c-43 -33 -61 -156 -37 -244 16 -58 49 -86 101 -86 78 1
108 48 108 170 0 89 -15 139 -51 164 -32 22 -91 20 -121 -4z m109 -46 c13 -20
17 -48 17 -109 0 -94 -18 -135 -59 -135 -50 0 -70 52 -63 165 3 44 10 70 22
84 26 29 62 27 83 -5z"/>
<path d="M25367 36394 c-13 -13 -7 -52 8 -58 27 -10 46 5 43 33 -3 26 -35 41
-51 25z"/>
<path d="M25490 36372 c0 -34 24 -49 47 -31 23 20 12 54 -19 57 -25 3 -28 0
-28 -26z"/>
<path d="M31248 27673 c-36 -28 -45 -40 -36 -50 15 -18 28 -16 55 9 l23 21 0
-146 c0 -140 1 -147 20 -147 19 0 20 7 20 175 0 201 0 202 -82 138z"/>
<path d="M27703 27484 c-24 -20 -43 -40 -43 -45 0 -21 32 -20 56 1 l24 23 0
-146 0 -147 25 0 25 0 -2 173 c-3 163 -4 172 -23 175 -11 1 -39 -14 -62 -34z"/>
<path d="M19633 27384 c-8 -20 8 -48 30 -52 19 -4 39 30 31 52 -8 21 -53 21
-61 0z"/>
<path d="M19767 27393 c-12 -11 -8 -40 7 -52 22 -18 46 -2 46 30 0 24 -4 29
-23 29 -13 0 -27 -3 -30 -7z"/>
<path d="M22876 27353 c-42 -33 -45 -38 -32 -52 14 -13 19 -13 46 7 l30 23 0
-146 c0 -138 1 -145 20 -145 19 0 20 7 20 175 0 202 -1 203 -84 138z"/>
<path d="M23396 27353 c-42 -33 -45 -38 -32 -52 14 -13 19 -13 46 7 l30 23 0
-146 c0 -138 1 -145 20 -145 19 0 20 7 20 175 0 202 -1 203 -84 138z"/>
<path d="M27527 27223 c-12 -11 -8 -40 7 -52 22 -18 46 -2 46 30 0 24 -4 29
-23 29 -13 0 -27 -3 -30 -7z"/>
<path d="M23097 27094 c-13 -13 -7 -52 8 -58 27 -10 46 5 43 33 -3 26 -35 41
-51 25z"/>
<path d="M23227 27094 c-13 -13 -7 -52 8 -58 27 -10 46 5 43 33 -3 26 -35 41
-51 25z"/>
<path d="M12350 24844 l0 -185 23 3 c20 3 22 9 25 83 3 110 7 121 44 134 25 9
36 8 55 -4 22 -14 23 -22 23 -115 0 -100 0 -100 25 -100 l25 0 0 104 c0 88 -3
107 -20 129 -26 33 -81 43 -122 23 -17 -9 -32 -16 -32 -16 -1 0 1 29 2 65 4
64 3 65 -22 65 l-26 0 0 -186z"/>
<path d="M30830 24966 l0 -64 -43 16 c-75 27 -125 -8 -142 -99 -8 -44 9 -113
36 -140 25 -25 104 -26 131 -2 17 15 18 15 18 0 0 -10 8 -17 20 -17 19 0 20 7
20 185 0 178 -1 185 -20 185 -18 0 -20 -7 -20 -64z m-46 -86 c57 -21 58 -162
1 -176 -58 -14 -95 20 -95 87 0 38 25 86 47 92 10 3 19 5 20 6 1 0 13 -3 27
-9z"/>
<path d="M11290 24991 c0 -17 8 -20 53 -23 l52 -3 3 -153 c3 -152 3 -153 25
-150 21 3 22 6 25 156 l3 152 49 0 c43 0 50 3 50 20 0 19 -7 20 -130 20 -122
0 -130 -1 -130 -19z"/>
<path d="M39030 24990 c0 -17 7 -20 50 -20 l50 0 0 -155 0 -155 25 0 24 0 3
153 3 152 53 3 c44 3 52 6 52 23 0 18 -8 19 -130 19 -123 0 -130 -1 -130 -20z"/>
<path d="M11628 24914 c-78 -42 -82 -201 -7 -239 53 -28 159 -16 159 16 0 17
-5 19 -53 13 -64 -8 -91 4 -105 46 l-11 30 90 0 c89 0 89 0 89 25 0 48 -27 95
-64 110 -44 19 -63 18 -98 -1z m87 -49 c38 -37 31 -45 -35 -45 -43 0 -60 4
-60 13 0 25 32 53 63 56 4 1 19 -10 32 -24z"/>
<path d="M11902 24920 c-41 -9 -46 -15 -38 -35 3 -10 13 -14 23 -11 70 21 94
13 108 -31 6 -21 3 -23 -27 -23 -52 0 -106 -19 -123 -43 -21 -30 -19 -73 5
-97 24 -24 95 -27 127 -5 19 13 22 13 27 0 3 -8 12 -15 21 -15 12 0 15 17 15
106 0 58 -5 114 -10 124 -8 16 -71 43 -90 39 -3 -1 -20 -5 -38 -9z m92 -139
c11 -18 -16 -71 -39 -77 -41 -10 -70 -1 -73 25 -5 36 10 45 100 60 4 0 9 -3
12 -8z"/>
<path d="M12175 24916 c-45 -20 -67 -59 -67 -120 -1 -57 21 -109 52 -126 12
-6 44 -10 73 -8 44 3 52 6 55 24 3 20 -1 21 -45 17 -64 -7 -87 17 -87 87 0 68
23 92 82 89 32 -2 46 1 53 13 11 20 3 26 -47 33 -23 3 -51 0 -69 -9z"/>
<path d="M12697 24919 c-56 -22 -86 -134 -52 -199 23 -44 53 -60 111 -60 65 0
84 7 84 30 0 16 -7 17 -58 13 -55 -5 -60 -4 -80 22 -39 49 -31 55 63 55 l85 0
0 35 c0 41 -15 77 -39 92 -28 18 -83 23 -114 12z m81 -45 c12 -8 22 -24 22
-35 0 -17 -7 -19 -60 -19 -66 0 -73 8 -35 45 28 29 42 31 73 9z"/>
<path d="M30442 24920 c-41 -9 -46 -15 -38 -35 3 -10 13 -14 23 -11 70 21 94
13 108 -31 6 -21 3 -23 -27 -23 -52 0 -106 -19 -123 -43 -21 -30 -19 -73 5
-97 24 -24 95 -27 127 -5 19 13 22 13 27 0 3 -8 12 -15 21 -15 12 0 15 17 15
106 0 58 -5 114 -10 124 -8 16 -71 43 -90 39 -3 -1 -20 -5 -38 -9z m92 -139
c11 -18 -16 -71 -39 -77 -41 -10 -70 -1 -73 25 -5 36 10 45 100 60 4 0 9 -3
12 -8z"/>
<path d="M30980 24913 c-31 -16 -35 -22 -35 -58 0 -38 2 -41 55 -68 75 -38 87
-51 69 -73 -11 -13 -25 -15 -71 -11 -51 4 -58 3 -58 -13 0 -23 19 -30 85 -30
67 0 99 22 97 69 -1 42 -15 58 -78 86 -62 27 -74 43 -48 62 18 13 60 12 98 -3
15 -6 31 25 19 37 -20 18 -98 20 -133 2z"/>
<path d="M38233 24916 c-46 -21 -66 -66 -61 -139 4 -52 9 -64 36 -88 27 -24
41 -29 83 -29 42 0 55 5 79 28 50 51 49 162 -4 211 -30 28 -91 36 -133 17z
m88 -36 c15 0 39 -57 39 -93 0 -75 -86 -119 -124 -65 -18 26 -21 100 -5 129
12 23 47 40 67 33 8 -2 18 -4 23 -4z"/>
<path d="M38545 24914 c-19 -10 -31 -11 -33 -5 -2 6 -12 11 -23 11 -18 0 -19
-9 -19 -130 l0 -130 25 0 c25 0 25 1 25 89 0 71 4 93 18 112 21 25 74 31 94
11 7 -7 14 -54 16 -112 4 -90 6 -100 23 -100 17 0 19 9 19 106 0 58 -4 114
-10 124 -10 18 -59 40 -89 40 -9 0 -29 -7 -46 -16z"/>
<path d="M38815 24916 c-70 -30 -84 -179 -23 -236 25 -23 106 -28 126 -8 17
17 25 4 17 -31 -9 -43 -36 -55 -107 -47 -52 5 -58 4 -58 -13 0 -25 19 -31 94
-31 55 0 67 3 90 26 26 27 26 27 26 185 0 152 -1 159 -20 159 -11 0 -20 -4
-20 -9 0 -6 -16 -3 -35 5 -41 17 -51 17 -90 0z m115 -82 c14 -41 6 -97 -16
-119 -9 -8 -31 -15 -49 -15 -28 0 -37 6 -50 30 -19 37 -19 83 0 120 27 52 96
43 115 -16z"/>
<path d="M39367 24918 c-56 -20 -86 -133 -52 -198 22 -42 53 -60 105 -60 75 0
120 49 120 130 0 104 -79 163 -173 128z m106 -60 c25 -29 23 -112 -3 -138 -23
-23 -68 -26 -94 -7 -23 17 -33 104 -16 136 23 44 79 48 113 9z"/>
<path d="M22600 24085 c0 -178 1 -185 20 -185 19 0 20 7 20 185 0 178 -1 185
-20 185 -19 0 -20 -7 -20 -185z"/>
<path d="M22720 24084 l0 -185 23 3 c22 3 22 5 25 186 l2 182 -25 0 -25 0 0
-186z"/>
<path d="M23283 24255 c-3 -9 -3 -38 -1 -65 3 -28 4 -50 3 -50 -1 0 -17 7 -35
16 -67 34 -136 -10 -147 -94 -13 -99 25 -162 99 -162 24 0 54 7 66 16 20 14
22 14 22 0 0 -9 9 -16 20 -16 19 0 20 7 20 185 0 179 -1 185 -20 185 -11 0
-23 -7 -27 -15z m-40 -136 c32 -17 37 -28 37 -88 0 -66 -18 -91 -66 -91 -43 0
-64 30 -64 93 0 38 5 53 25 72 27 28 37 30 68 14z"/>
<path d="M21557 24243 c-4 -3 -7 -82 -7 -175 l0 -168 100 0 c93 0 100 1 100
20 0 17 -8 19 -72 22 l-73 3 -3 58 -3 57 71 0 c63 0 70 2 70 20 0 17 -8 19
-67 22 l-68 3 0 50 0 50 73 3 c64 3 72 5 72 22 0 18 -7 20 -93 20 -52 0 -97
-3 -100 -7z"/>
<path d="M23390 24235 c0 -9 9 -19 20 -22 19 -5 20 -14 20 -138 0 -125 -1
-134 -20 -140 -11 -3 -20 -13 -20 -21 0 -12 13 -14 62 -12 61 3 88 20 48 31
-19 5 -20 13 -20 140 0 128 1 136 21 142 39 13 13 30 -49 33 -52 2 -62 0 -62
-13z"/>
<path d="M21893 24155 c-18 -8 -33 -10 -33 -5 0 6 -9 10 -20 10 -19 0 -20 -7
-20 -130 0 -123 1 -130 20 -130 18 0 20 7 20 68 0 98 14 138 52 151 25 9 36 8
55 -4 22 -14 23 -22 23 -115 l0 -100 26 0 26 0 -4 110 c-3 93 -6 113 -23 129
-27 27 -83 34 -122 16z"/>
<path d="M22204 24160 c-12 -5 -25 -13 -29 -19 -9 -16 -25 -13 -25 4 0 8 -9
15 -20 15 -19 0 -20 -7 -20 -130 l0 -130 25 0 c25 0 25 1 25 84 0 97 20 136
70 136 19 0 29 6 33 19 8 32 -14 39 -59 21z"/>
<path d="M22373 24163 c-57 -11 -97 -114 -73 -187 17 -53 52 -76 114 -76 79 1
116 41 116 128 0 105 -57 154 -157 135z m90 -65 c9 -11 17 -30 18 -42 4 -79
-17 -116 -66 -116 -63 0 -96 80 -60 150 23 44 73 48 108 8z"/>
<path d="M22897 24159 c-56 -22 -86 -134 -52 -199 23 -44 53 -60 111 -60 65 0
84 7 84 30 0 16 -7 17 -58 13 -55 -5 -60 -4 -80 22 -39 49 -31 55 63 55 l85 0
0 35 c0 41 -15 77 -39 92 -28 18 -83 23 -114 12z m81 -45 c12 -8 22 -24 22
-35 0 -17 -7 -19 -60 -19 -66 0 -73 8 -35 45 28 29 42 31 73 9z"/>
<path d="M23645 24154 c-19 -10 -31 -11 -33 -5 -2 6 -12 11 -23 11 -18 0 -19
-9 -19 -130 l0 -130 25 0 c25 0 25 1 25 89 0 71 4 93 18 112 21 25 74 31 94
11 7 -7 14 -54 16 -112 4 -90 6 -100 23 -100 17 0 19 9 19 106 0 58 -4 114
-10 124 -10 18 -59 40 -89 40 -9 0 -29 -7 -46 -16z"/>
<path d="M20375 21796 l7 -45 -45 14 c-43 13 -45 13 -51 -8 -6 -25 8 -37 47
-37 33 0 33 -3 2 -44 l-25 -33 25 -11 c23 -11 26 -9 44 26 l19 37 18 -38 c20
-41 22 -43 49 -23 17 13 17 15 -10 50 l-27 36 25 0 c39 0 57 10 57 32 0 18 -4
20 -45 14 l-45 -7 0 40 c0 37 -2 41 -26 41 -24 0 -25 -2 -19 -44z"/>
<path d="M20030 21512 c0 -34 24 -49 47 -31 23 20 12 54 -19 57 -25 3 -28 0
-28 -26z"/>
<path d="M20160 21512 c0 -34 24 -49 47 -31 23 20 12 54 -19 57 -25 3 -28 0
-28 -26z"/>
<path d="M33297 21106 l5 -45 -46 14 -47 14 3 -27 c3 -23 8 -27 41 -30 l37 -3
-27 -36 c-26 -34 -26 -36 -8 -49 27 -20 32 -18 45 21 6 19 15 35 19 35 4 0 15
-16 24 -35 15 -31 20 -34 37 -25 25 14 25 16 -6 57 l-25 33 30 0 c46 0 59 8
54 35 -5 23 -6 23 -50 10 l-45 -14 5 45 c4 43 4 44 -23 44 -27 0 -27 -1 -23
-44z"/>
</g>
</svg>
