<?xml version="1.0" standalone="no"?>
<!DOCTYPE svg PUBLIC "-//W3C//DTD SVG 20010904//EN"
 "http://www.w3.org/TR/2001/REC-SVG-20010904/DTD/svg10.dtd">
<svg version="1.0" xmlns="http://www.w3.org/2000/svg"
 width="4340.000000pt" height="4380.000000pt" viewBox="0 0 4340.000000 4380.000000"
 preserveAspectRatio="xMidYMid meet">

<g transform="translate(0.000000,4380.000000) scale(0.100000,-0.100000)"
fill="#000000" stroke="none">
<path d="M16100 39880 l0 -3820 2200 0 2200 0 0 -2340 0 -2340 -145 0 c-80 0
-145 -3 -145 -6 0 -4 65 -109 145 -234 80 -125 145 -230 145 -234 0 -3 -990
-6 -2200 -6 l-2200 0 0 -1804 0 -1805 -2512 -1965 -2513 -1965 -3 34 c-2 27
-8 35 -23 35 -16 0 -19 -7 -19 -54 0 -30 -4 -57 -8 -60 -5 -3 -25 0 -45 6 -68
21 -118 -19 -133 -108 -4 -26 -16 -47 -35 -62 l-29 -24 0 72 c0 87 -9 106 -58
119 -34 9 -105 2 -119 -13 -12 -12 8 -37 24 -32 70 21 94 13 108 -31 6 -21 3
-23 -27 -23 -84 0 -138 -35 -138 -90 0 -41 23 -63 70 -69 l44 -6 -2660 -2079
c-1462 -1144 -2677 -2095 -2700 -2113 l-41 -33 -79 100 c-43 55 -83 99 -89 97
-5 -2 -58 -121 -118 -265 l-110 -262 -2393 0 -2394 0 0 -3820 0 -3820 4220 0
4220 0 0 3820 0 3820 -952 0 c-524 0 -947 4 -941 8 10 6 7 17 -12 43 -23 31
-24 34 -8 37 58 9 64 13 61 35 -2 13 -9 21 -18 19 -8 -2 -29 -6 -47 -9 l-31
-5 5 41 c5 39 5 41 -22 41 -26 0 -27 -2 -22 -40 6 -44 -5 -50 -57 -30 -21 8
-26 6 -31 -11 -9 -26 -3 -31 40 -38 l36 -6 -26 -34 c-19 -26 -22 -37 -12 -43
6 -4 -69 -8 -169 -8 l-181 0 -6 60 c-7 68 -28 114 -56 130 -27 14 -92 12 -112
-3 -29 -22 -49 -75 -49 -132 l0 -55 -487 1 c-269 1 -481 3 -473 5 8 2 105 17
215 34 110 17 212 33 227 36 51 10 45 38 -31 132 -65 81 -68 88 -53 103 24 22
5430 4249 5435 4249 3 0 22 16 43 36 35 31 40 33 49 18 24 -42 45 -54 92 -54
29 0 53 6 65 17 17 15 18 15 18 0 0 -10 8 -17 20 -17 19 0 20 7 20 118 0 116
0 119 28 144 34 32 4991 3908 4997 3908 3 0 5 -893 5 -1985 l0 -1985 2377 -2
2377 -3 -354 -281 -355 -282 -5 31 c-3 20 -12 33 -23 35 -18 4 -107 -62 -107
-79 0 -21 32 -20 56 1 l24 23 -1 -29 c0 -25 -18 -43 -137 -136 -126 -99 -138
-106 -146 -87 -7 14 -17 19 -35 17 -31 -4 -39 -32 -17 -57 14 -15 -32 -54
-605 -509 l-620 -492 -50 0 c-42 0 -49 -3 -49 -19 0 -12 8 -21 21 -23 19 -3
16 -7 -22 -37 -26 -22 -44 -30 -47 -23 -4 14 -42 16 -42 3 0 -6 -17 -3 -37 5
-30 13 -44 14 -75 5 -52 -16 -72 -56 -72 -140 0 -57 -2 -68 -25 -88 -14 -12
-29 -23 -33 -23 -5 0 -8 47 -8 105 0 91 -3 108 -19 124 -29 29 -83 36 -123 17
-20 -11 -34 -13 -36 -6 -2 5 -12 10 -23 10 -18 0 -19 -9 -19 -130 l0 -130 25
0 c25 0 25 1 25 89 0 71 4 93 18 112 21 25 74 31 94 11 7 -7 14 -54 16 -112 3
-76 8 -100 19 -102 15 -3 -2764 -2213 -2783 -2213 -7 0 -44 41 -84 90 -40 50
-77 90 -83 90 -6 0 -60 -118 -120 -262 l-110 -263 -1793 0 -1794 0 0 -3820 0
-3820 4220 0 4220 0 0 3820 0 3820 -1760 0 -1760 0 0 100 c0 118 -7 123 -84
64 -40 -31 -45 -38 -35 -55 l11 -21 22 21 c12 12 25 21 29 21 4 0 7 -29 7 -65
l0 -65 -200 0 -200 0 0 43 c0 100 -40 157 -109 157 -70 0 -111 -55 -111 -150
l0 -50 -297 1 c-164 1 -291 3 -283 5 8 2 105 17 215 34 110 17 212 33 227 36
51 10 45 37 -32 135 -40 49 -71 91 -69 93 2 2 650 515 1439 1141 1232 977
1437 1136 1452 1126 23 -15 101 -14 116 1 17 17 25 4 17 -31 -9 -43 -36 -55
-107 -47 -52 5 -58 4 -58 -13 0 -25 19 -31 94 -31 55 0 67 3 90 26 25 26 26
31 26 145 l0 118 73 57 72 56 3 -146 3 -146 24 0 24 0 3 153 3 152 53 3 c43 3
52 6 52 22 0 15 -9 20 -43 22 l-44 3 634 503 c484 383 638 501 648 492 20 -17
45 -1 45 30 0 24 13 39 78 89 l77 60 3 -89 c3 -88 3 -90 27 -90 l25 0 0 113 0
112 395 313 394 312 191 0 190 0 370 -246 369 -247 -24 -19 c-21 -16 -23 -23
-14 -40 l11 -20 22 21 c12 12 25 21 29 21 4 0 7 -63 7 -140 l0 -140 25 0 24 0
3 129 3 130 149 -97 c111 -72 144 -98 128 -100 -17 -3 -22 -10 -22 -32 0 -32
25 -47 47 -28 8 6 13 21 11 33 -4 16 319 -193 1276 -830 l1281 -852 3 -171 2
-172 25 0 25 0 0 150 c0 83 3 150 6 150 3 0 25 -14 50 -30 41 -29 43 -32 29
-53 -21 -33 -29 -100 -15 -141 17 -53 52 -76 116 -76 65 0 84 7 84 30 0 16 -7
17 -58 13 -55 -5 -60 -4 -80 22 -39 49 -31 55 63 55 99 0 125 -12 155 -70 21
-41 36 -50 81 -50 23 0 329 -198 1297 -841 697 -463 1271 -846 1276 -850 6 -5
-9 -35 -35 -71 -24 -35 -57 -82 -73 -105 -16 -24 -27 -45 -24 -48 2 -3 108
-13 234 -24 l229 -18 -336 -2 -337 -1 -16 25 c-16 24 -16 25 8 25 38 0 56 10
56 32 0 18 -4 20 -45 14 l-45 -7 0 40 c0 37 -2 41 -26 41 -24 0 -25 -2 -19
-44 l7 -45 -45 14 c-43 13 -45 13 -51 -8 -6 -25 8 -37 47 -37 32 0 34 -10 9
-33 -16 -15 -45 -17 -194 -17 l-175 0 -7 51 c-9 68 -48 109 -103 109 -21 0
-49 -7 -62 -16 -28 -20 -51 -72 -51 -114 l0 -30 -1455 0 -1455 0 0 -3820 0
-3820 2000 0 2000 0 0 -1340 0 -1340 -145 0 c-80 0 -145 -3 -145 -6 0 -4 65
-109 145 -234 80 -125 145 -230 145 -234 0 -3 -900 -6 -2000 -6 l-2000 0 0
-3820 0 -3820 4220 0 4220 0 0 3820 0 3820 -2200 0 c-1210 0 -2200 3 -2200 8
1 4 54 104 119 222 98 178 116 217 107 232 -9 15 -26 18 -118 18 l-108 0 0
1340 0 1340 2200 0 2200 0 0 3820 0 3820 -2013 0 -2013 0 -127 234 c-106 194
-131 233 -148 232 -15 -1 -40 -27 -78 -81 -32 -44 -61 -79 -65 -79 -4 1 -563
371 -1243 823 l-1235 821 2 190 c1 185 0 190 -20 190 -18 0 -20 -6 -20 -64 l0
-64 -39 15 c-69 27 -121 -1 -141 -76 -11 -41 -11 -41 -35 -25 -14 9 -25 24
-25 34 0 27 -47 67 -86 75 -20 3 -38 4 -41 1 -3 -2 -240 152 -526 343 -287
191 -870 579 -1296 861 -446 297 -768 516 -758 518 15 3 17 22 17 178 0 200
-1 202 -84 138 -40 -31 -45 -38 -35 -55 11 -21 11 -21 35 2 13 12 26 20 29 17
3 -3 4 -64 3 -137 l-3 -131 -232 155 c-131 87 -233 162 -233 170 0 9 -9 15
-25 15 -16 0 -149 82 -366 228 l-342 227 1572 3 1571 2 2 2188 3 2188 340
-223 c187 -123 347 -228 355 -233 13 -8 10 -13 -14 -33 -26 -21 -27 -24 -12
-36 15 -12 21 -11 46 8 l30 22 0 -146 c0 -138 1 -145 20 -145 18 0 20 8 22
134 l3 134 2750 -1804 c1513 -992 2759 -1812 2770 -1822 11 -11 29 -22 40 -26
11 -3 31 -15 44 -25 l24 -19 -43 -7 c-117 -20 -123 -155 -7 -155 23 0 52 7 64
15 19 13 22 13 27 0 3 -8 12 -15 21 -15 12 0 15 12 15 55 0 32 4 55 11 55 6 0
33 -23 60 -51 30 -31 63 -54 82 -59 18 -4 1572 -1016 3452 -2250 1881 -1234
3422 -2245 3424 -2247 2 -1 -16 -31 -40 -65 -24 -35 -57 -82 -73 -105 -16 -24
-27 -45 -24 -48 2 -3 108 -13 234 -24 l229 -18 -337 -2 -337 -1 -16 23 c-14
20 -14 22 2 25 58 9 64 13 61 35 -2 13 -9 21 -18 19 -8 -2 -29 -6 -47 -9 l-31
-5 5 41 c5 39 5 41 -22 41 -26 0 -27 -2 -22 -40 6 -44 -5 -50 -57 -30 -21 8
-26 6 -31 -11 -9 -26 -3 -31 40 -38 35 -6 35 -7 20 -28 -16 -22 -21 -23 -195
-23 l-178 0 -7 42 c-9 54 -30 94 -54 108 -27 14 -92 12 -112 -3 -25 -19 -49
-73 -49 -112 l0 -35 -1255 0 -1255 0 0 -3820 0 -3820 2200 0 2200 0 0 -1340 0
-1340 -145 0 c-80 0 -145 -3 -145 -6 0 -4 65 -109 145 -234 80 -125 145 -230
145 -234 0 -3 -900 -6 -2000 -6 l-2000 0 0 -3820 0 -3820 4220 0 4220 0 0
3820 0 3820 -2200 0 c-1210 0 -2200 3 -2200 8 1 4 54 104 119 222 98 178 116
217 107 232 -9 15 -26 18 -118 18 l-108 0 0 1340 0 1340 2000 0 2000 0 0 3820
0 3820 -2213 0 -2213 0 -126 233 c-99 181 -132 233 -148 234 -15 1 -35 -19
-76 -77 -30 -44 -59 -82 -63 -84 -4 -3 -1537 998 -3407 2225 -2847 1868 -3400
2234 -3402 2255 -3 20 -7 23 -27 18 -28 -7 -89 26 -106 57 -13 24 -3 77 19
102 12 13 28 18 60 16 32 -2 46 1 53 13 11 19 6 23 -38 33 -67 14 -143 -38
-143 -97 0 -36 -9 -40 -41 -17 -18 13 -29 29 -29 45 0 13 -9 33 -20 44 -19 19
-31 22 -96 24 -23 1 -716 451 -2812 1826 -1530 1004 -2782 1830 -2782 1837 0
6 -10 13 -23 15 -13 2 -190 113 -395 247 l-372 245 0 1603 0 1603 -2000 0
c-1100 0 -2000 3 -2000 8 1 4 54 104 119 222 98 178 116 217 107 232 -9 15
-26 18 -118 18 l-108 0 0 2340 0 2340 2000 0 2000 0 0 3820 0 3820 -4220 0
-4220 0 0 -3820z m8400 0 l0 -3780 -4180 0 -4180 0 0 3340 0 3340 4170 0
c4163 0 4170 0 4170 20 0 20 -7 20 -4170 20 l-4170 0 0 420 0 420 4180 0 4180
0 0 -3780z m0 -12800 l0 -3780 -4180 0 -4180 0 0 3340 0 3340 4170 0 c4163 0
4170 0 4170 20 0 20 -7 20 -4170 20 l-4170 0 0 420 0 420 4180 0 4180 0 0
-3780z m6494 -3699 c11 -18 -16 -71 -39 -77 -41 -10 -70 -1 -73 25 -5 36 10
45 100 60 4 0 9 -3 12 -8z m-20034 -106 c-7 -9 -26 -25 -43 -37 l-29 -21 16
31 c14 27 28 37 60 41 5 0 3 -6 -4 -14z m66 -59 c14 -76 -27 -128 -89 -112
-19 4 -55 53 -45 61 2 1 27 21 56 43 30 23 58 42 62 42 5 0 12 -15 16 -34z
m-292 -35 c11 -18 -16 -71 -39 -77 -41 -10 -70 -1 -73 25 -5 36 10 45 100 60
4 0 9 -3 12 -8z m7586 -1926 c0 -11 -101 -95 -115 -95 -3 0 -5 14 -5 30 0 40
25 87 47 92 26 6 73 -12 73 -27z m15 -94 c-4 -17 -13 -38 -22 -46 -16 -16 -83
-21 -83 -6 0 11 101 93 107 87 3 -3 2 -18 -2 -35z m7198 -480 c47 -18 60 -126
21 -165 -13 -14 -20 -12 -64 17 -40 26 -50 38 -50 60 0 36 25 84 47 90 10 3
19 5 20 6 1 0 13 -3 26 -8z m-294 -33 l36 -23 -27 -3 c-16 -2 -39 -2 -52 0
-20 3 -22 6 -15 26 5 12 11 22 15 22 4 0 23 -10 43 -22z m-19164 -2008 c12
-14 20 -41 23 -80 l4 -60 -67 0 -67 0 7 58 c3 31 13 67 21 80 18 28 55 29 79
2z m9611 12 c22 -14 34 -51 34 -101 l0 -51 -60 0 -60 0 0 51 c0 68 22 109 60
109 8 0 20 -4 26 -8z m11460 -40 c19 -12 34 -49 34 -81 l0 -31 -60 0 -60 0 0
31 c0 49 27 89 60 89 8 0 20 -4 26 -8z m10008 -11 c10 -11 20 -38 23 -60 l6
-41 -66 0 -66 0 6 38 c11 76 58 106 97 63z m-30559 -71 l16 -30 -31 0 c-32 0
-36 9 -20 41 14 25 17 24 35 -11z m21070 -20 c3 -5 1 -10 -4 -10 -6 0 -11 5
-11 10 0 6 2 10 4 10 3 0 8 -4 11 -10z m10000 0 c3 -5 -1 -10 -10 -10 -9 0
-13 5 -10 10 3 6 8 10 10 10 2 0 7 -4 10 -10z m-31726 -82 c19 -54 49 -78 96
-78 54 0 92 29 101 75 l6 35 1179 0 1179 0 0 -3780 0 -3780 -4180 0 -4180 0 0
3340 0 3340 4170 0 c4163 0 4170 0 4170 20 0 20 -7 20 -4170 20 l-4170 0 0
420 0 420 2894 0 2894 0 11 -32z m154 15 c-19 -54 -70 -70 -97 -31 -28 40 -21
48 44 48 52 0 59 -2 53 -17z m9469 -20 c12 -45 51 -73 103 -73 47 0 77 24 96
78 l11 32 199 0 199 0 0 -55 c0 -52 1 -55 25 -55 24 0 25 3 25 55 l0 55 1740
0 1740 0 0 -3780 0 -3780 -4180 0 -4180 0 0 3340 0 3340 4170 0 c4163 0 4170
0 4170 20 0 20 -7 20 -4170 20 l-4170 0 0 420 0 420 2107 -2 2107 -3 8 -32z
m158 32 c0 -4 -7 -19 -15 -35 -12 -23 -22 -30 -45 -30 -23 0 -33 7 -45 30 -8
16 -15 31 -15 35 0 3 27 5 60 5 33 0 60 -2 60 -5z m11295 -42 c10 -66 49 -103
107 -103 33 0 50 6 66 23 24 26 42 69 42 102 l0 25 2635 0 2635 0 0 -3780 0
-3780 -4180 0 -4180 0 0 3340 0 3340 4170 0 c4163 0 4170 0 4170 20 0 20 -7
20 -4170 20 l-4170 0 0 420 0 420 1434 0 1434 0 7 -47z m165 22 c0 -15 -7 -39
-15 -55 -12 -23 -22 -30 -45 -30 -23 0 -33 7 -45 30 -8 16 -15 40 -15 55 0 24
2 25 60 25 58 0 60 -1 60 -25z m9830 1 c0 -34 18 -77 42 -103 16 -17 33 -23
63 -23 60 0 91 27 106 95 l12 55 2834 0 2833 0 0 -3780 0 -3780 -4180 0 -4180
0 0 3340 0 3340 4170 0 c4163 0 4170 0 4170 20 0 20 -7 20 -4170 20 l-4170 0
0 420 0 420 1235 0 1235 0 0 -24z m167 -12 c-7 -44 -32 -74 -62 -74 -29 0 -46
21 -55 70 l-7 40 65 0 65 0 -6 -36z m-8865 -10316 c-11 -18 -57 -102 -102
-186 -45 -84 -85 -154 -89 -156 -5 -3 -227 336 -239 366 -2 4 98 8 223 8 l227
0 -20 -32z m10800 0 c-11 -18 -57 -102 -102 -186 -45 -84 -85 -154 -89 -156
-5 -3 -227 336 -239 366 -2 4 98 8 223 8 l227 0 -20 -32z m-6612 -4228 l0
-3780 -4180 0 -4180 0 0 3340 0 3340 4170 0 c4163 0 4170 0 4170 20 0 20 -7
20 -4170 20 l-4170 0 0 420 0 420 4180 0 4180 0 0 -3780z m10800 0 l0 -3780
-4180 0 -4180 0 0 3340 0 3340 4170 0 c4163 0 4170 0 4170 20 0 20 -7 20
-4170 20 l-4170 0 0 420 0 420 4180 0 4180 0 0 -3780z"/>
<path d="M19864 43365 c-8 -21 3 -45 20 -45 20 0 29 16 21 40 -7 23 -33 27
-41 5z"/>
<path d="M20924 43366 c-9 -24 4 -48 23 -44 12 2 18 12 18 28 0 29 -32 41 -41
16z"/>
<path d="M19210 43253 c0 -146 11 -188 53 -213 40 -25 132 -27 165 -4 43 30
52 64 52 204 0 131 0 131 -22 128 -22 -3 -23 -7 -26 -133 -2 -116 -5 -132 -24
-152 -14 -15 -33 -23 -54 -23 -80 0 -94 29 -94 190 l0 120 -25 0 -25 0 0 -117z"/>
<path d="M21059 43311 c-6 -16 -17 -32 -25 -35 -18 -7 -18 -36 0 -36 11 0 15
-22 18 -96 4 -111 15 -127 83 -122 49 4 57 31 10 36 -16 2 -33 9 -37 15 -4 7
-8 47 -8 90 l0 77 35 0 c28 0 35 4 35 20 0 16 -7 20 -35 20 -32 0 -35 2 -35
30 0 40 -27 40 -41 1z"/>
<path d="M19635 43274 c-19 -10 -31 -11 -33 -5 -2 6 -12 11 -23 11 -18 0 -19
-9 -19 -130 l0 -130 25 0 c25 0 25 1 25 89 0 71 4 93 18 112 21 25 74 31 94
11 7 -7 14 -54 16 -112 4 -90 6 -100 23 -100 17 0 19 9 19 106 0 58 -4 114
-10 124 -10 18 -59 40 -89 40 -9 0 -29 -7 -46 -16z"/>
<path d="M20284 43281 c-55 -23 -87 -116 -64 -185 17 -53 52 -76 116 -76 65 0
84 7 84 30 0 16 -7 17 -58 13 -55 -5 -60 -4 -80 22 -39 49 -32 55 69 55 l91 0
-7 42 c-8 48 -20 70 -45 86 -26 16 -82 23 -106 13z m73 -46 c11 -8 23 -24 26
-35 5 -19 1 -20 -58 -20 -59 0 -63 1 -58 20 6 21 39 50 58 50 6 0 20 -7 32
-15z"/>
<path d="M20590 43283 c-8 -3 -23 -12 -32 -21 -16 -14 -18 -13 -18 1 0 10 -8
17 -20 17 -19 0 -20 -7 -20 -130 0 -123 1 -130 20 -130 18 0 20 7 20 75 0 108
22 145 87 145 20 0 24 4 21 23 -3 22 -28 31 -58 20z"/>
<path d="M20732 43279 c-38 -11 -58 -46 -48 -84 5 -21 21 -33 72 -56 55 -25
65 -33 62 -52 -3 -20 -8 -22 -70 -21 -58 0 -68 -2 -68 -17 0 -22 20 -29 81
-29 60 0 87 12 99 46 19 48 2 74 -66 105 -47 22 -64 34 -64 49 0 26 39 36 82
21 30 -11 47 -3 48 21 0 19 -83 30 -128 17z"/>
<path d="M19860 43149 c0 -130 0 -130 23 -127 21 3 22 7 25 131 l3 127 -26 0
-25 0 0 -131z"/>
<path d="M19940 43278 c0 -2 22 -59 48 -128 46 -119 50 -125 77 -125 27 0 30
6 75 125 37 97 44 126 33 128 -29 7 -40 -8 -72 -102 -19 -53 -35 -95 -37 -94
-1 2 -18 46 -37 98 -30 85 -37 95 -61 98 -14 2 -26 2 -26 0z"/>
<path d="M20920 43150 l0 -130 25 0 25 0 0 130 0 130 -25 0 -25 0 0 -130z"/>
<path d="M21201 43228 c89 -223 84 -205 66 -243 -14 -29 -22 -35 -47 -35 -23
0 -30 -4 -30 -20 0 -17 7 -20 39 -20 60 0 70 17 172 293 l29 78 -27 -3 c-23
-3 -30 -13 -61 -101 l-35 -98 -37 98 c-33 88 -39 98 -63 101 l-27 3 21 -53z"/>
<path d="M18431 42564 c-12 -15 -21 -39 -21 -54 0 -22 -6 -29 -26 -34 -30 -8
-27 -30 4 -34 21 -3 22 -8 22 -113 0 -102 1 -109 20 -109 19 0 20 7 20 109 l0
110 32 3 c47 4 51 35 6 40 -27 2 -32 7 -30 23 6 39 12 45 47 45 28 0 35 4 35
20 0 17 -7 20 -44 20 -36 0 -48 -5 -65 -26z"/>
<path d="M19334 42566 c-9 -24 4 -48 23 -44 12 2 18 12 18 28 0 29 -32 41 -41
16z"/>
<path d="M20404 42565 c-8 -21 3 -45 20 -45 20 0 29 16 21 40 -7 23 -33 27
-41 5z"/>
<path d="M16630 42395 l0 -175 26 0 26 0 -4 135 c-1 74 -2 135 -1 135 1 0 41
-61 89 -135 78 -121 90 -135 115 -135 l29 0 0 175 0 175 -26 0 -25 0 3 -134
c2 -74 0 -132 -3 -130 -3 2 -44 62 -90 134 -74 115 -87 130 -111 130 l-28 0 0
-175z"/>
<path d="M18692 42425 l3 -147 33 -29 c28 -25 40 -29 90 -29 75 0 117 25 131
77 6 21 11 91 11 156 l0 117 -24 0 -24 0 -4 -136 c-3 -129 -4 -137 -27 -155
-30 -25 -82 -24 -114 2 -26 20 -26 23 -29 152 -3 130 -3 132 -26 135 l-24 4 4
-147z"/>
<path d="M20540 42525 c0 -9 -12 -27 -26 -40 -26 -24 -25 -45 2 -45 11 0 14
-19 14 -93 0 -110 10 -127 78 -127 35 0 42 3 42 20 0 16 -7 20 -30 20 -39 0
-50 23 -50 109 l0 70 37 3 c26 2 39 8 41 20 2 13 -5 17 -35 20 -33 3 -38 7
-41 31 -3 28 -32 39 -32 12z"/>
<path d="M17038 42478 c-40 -10 -43 -15 -29 -36 7 -11 16 -11 50 -1 36 11 43
10 61 -6 37 -34 26 -52 -36 -58 -68 -7 -100 -27 -109 -68 -11 -50 20 -83 80
-87 33 -2 52 2 65 13 17 15 19 15 28 -1 6 -11 16 -15 27 -10 16 6 17 18 13
112 -4 86 -8 109 -24 124 -24 24 -78 31 -126 18z m97 -167 c-8 -34 -31 -51
-71 -51 -70 0 -47 76 25 82 48 4 54 1 46 -31z"/>
<path d="M17335 42475 c-19 -10 -31 -12 -33 -6 -2 6 -12 11 -23 11 -18 0 -19
-9 -19 -130 l0 -130 25 0 c25 0 25 1 25 89 0 71 4 93 18 111 21 25 69 30 83 9
5 -8 9 -58 9 -111 0 -98 0 -98 25 -98 25 0 25 1 25 89 0 70 4 93 18 109 27 32
58 36 81 13 18 -18 21 -34 21 -116 0 -88 1 -95 20 -95 19 0 20 7 20 109 0 134
-11 153 -83 155 -32 1 -52 -4 -64 -16 -15 -16 -19 -16 -34 -2 -25 23 -80 27
-114 9z"/>
<path d="M17758 42474 c-78 -42 -82 -201 -7 -239 53 -28 159 -16 159 16 0 17
-5 19 -53 13 -64 -8 -91 4 -105 46 l-11 30 90 0 c89 0 89 0 89 25 0 48 -27 95
-64 110 -44 19 -63 18 -98 -1z m87 -49 c38 -37 31 -45 -35 -45 -43 0 -60 4
-60 13 0 25 32 53 63 56 4 1 19 -10 32 -24z"/>
<path d="M18157 42478 c-56 -20 -86 -133 -52 -198 22 -42 53 -60 105 -60 75 0
120 49 120 130 0 104 -79 163 -173 128z m106 -60 c25 -29 23 -112 -3 -138 -23
-23 -68 -26 -94 -7 -23 17 -33 104 -16 136 23 44 79 48 113 9z"/>
<path d="M19113 42475 c-18 -8 -33 -10 -33 -5 0 6 -9 10 -20 10 -19 0 -20 -7
-20 -130 0 -123 1 -130 20 -130 18 0 20 7 20 68 0 98 14 138 52 151 25 9 36 8
55 -4 22 -14 23 -22 23 -115 l0 -100 26 0 26 0 -4 110 c-3 93 -6 113 -23 129
-27 27 -83 34 -122 16z"/>
<path d="M19753 42476 c-42 -19 -63 -62 -63 -132 0 -50 3 -59 34 -90 30 -30
40 -34 89 -34 68 0 87 7 87 30 0 16 -7 17 -59 13 -50 -5 -61 -3 -80 16 -11 11
-21 30 -21 41 0 18 7 20 85 20 l85 0 0 30 c0 33 -20 79 -42 97 -23 19 -81 24
-115 9z m87 -46 c37 -37 26 -50 -40 -50 -68 0 -78 14 -34 49 33 26 49 26 74 1z"/>
<path d="M20064 42480 c-12 -5 -25 -13 -29 -19 -9 -16 -25 -13 -25 4 0 8 -9
15 -20 15 -19 0 -20 -7 -20 -130 l0 -130 25 0 c25 0 25 1 25 84 0 97 20 136
70 136 19 0 29 6 33 19 8 32 -14 39 -59 21z"/>
<path d="M20201 42477 c-23 -8 -38 -21 -44 -40 -13 -40 12 -73 79 -102 46 -21
55 -28 52 -47 -3 -21 -8 -23 -70 -22 -58 0 -68 -2 -68 -17 0 -22 20 -29 84
-29 65 0 106 27 106 69 0 39 -17 57 -82 86 -62 27 -73 48 -35 66 17 8 35 8 61
1 30 -9 38 -8 43 4 3 9 2 19 -3 24 -16 16 -88 20 -123 7z"/>
<path d="M19330 42350 l0 -130 25 0 25 0 0 130 0 130 -25 0 -25 0 0 -130z"/>
<path d="M19420 42473 c0 -5 21 -63 46 -130 44 -115 49 -123 74 -123 25 0 29
8 73 124 26 68 47 127 47 130 0 3 -11 6 -24 6 -21 0 -27 -11 -56 -92 -32 -90
-50 -126 -50 -100 0 7 -14 53 -31 102 -28 79 -34 90 -55 90 -13 0 -24 -3 -24
-7z"/>
<path d="M20400 42349 c0 -130 0 -130 23 -127 21 3 22 7 25 131 l3 127 -26 0
-25 0 0 -131z"/>
<path d="M20660 42472 c0 -5 22 -64 50 -132 l50 -123 -18 -31 c-13 -23 -27
-32 -50 -34 -24 -2 -32 -8 -32 -23 0 -15 7 -19 34 -19 50 0 65 8 86 50 19 38
120 301 120 313 0 4 -11 7 -25 7 -14 0 -25 -1 -25 -3 0 -2 -15 -47 -34 -100
l-33 -97 -38 100 c-33 88 -40 100 -61 100 -13 0 -24 -4 -24 -8z"/>
<path d="M16320 42365 c0 -24 3 -25 60 -25 57 0 60 1 60 25 0 24 -3 25 -60 25
-57 0 -60 -1 -60 -25z"/>
<path d="M17740 41805 c0 -153 2 -185 14 -185 8 0 16 6 19 13 3 10 9 10 26 0
33 -20 104 -16 129 7 43 41 51 135 16 202 -20 39 -78 55 -127 34 l-37 -15 0
65 c0 57 -2 64 -20 64 -19 0 -20 -7 -20 -185z m159 20 c22 -21 26 -97 7 -133
-13 -25 -23 -32 -45 -32 -47 0 -60 10 -71 51 -27 98 45 174 109 114z"/>
<path d="M18951 41964 c-12 -15 -21 -39 -21 -54 0 -22 -6 -29 -26 -34 -30 -8
-27 -30 4 -34 21 -3 22 -8 22 -113 0 -102 1 -109 20 -109 19 0 20 7 20 109 l0
110 32 3 c47 4 51 35 6 40 -27 2 -32 7 -30 23 6 39 12 45 47 45 28 0 35 4 35
20 0 17 -7 20 -44 20 -36 0 -48 -5 -65 -26z"/>
<path d="M20080 41926 l0 -64 -43 16 c-75 27 -125 -8 -142 -99 -8 -44 9 -113
36 -140 25 -25 104 -26 131 -2 17 15 18 15 18 0 0 -10 8 -17 20 -17 19 0 20 7
20 185 0 178 -1 185 -20 185 -18 0 -20 -7 -20 -64z m-46 -86 c57 -21 58 -162
1 -176 -58 -14 -95 20 -95 87 0 38 25 86 47 92 10 3 19 5 20 6 1 0 13 -3 27
-9z"/>
<path d="M16630 41795 l0 -175 26 0 26 0 -4 135 c-1 74 -2 135 -1 135 1 0 41
-61 89 -135 78 -121 90 -135 115 -135 l29 0 0 175 0 175 -26 0 -25 0 3 -134
c2 -74 0 -132 -3 -130 -3 2 -44 62 -90 134 -74 115 -87 130 -111 130 l-28 0 0
-175z"/>
<path d="M19447 41911 c-4 -17 -14 -30 -26 -34 -27 -7 -27 -27 -1 -34 18 -5
20 -14 20 -92 0 -110 12 -131 76 -131 37 0 44 3 44 19 0 15 -8 21 -32 23 l-33
3 -3 87 -3 87 33 3 c22 2 34 9 36 21 3 14 -4 17 -32 17 -33 0 -36 2 -36 30 0
41 -35 43 -43 1z"/>
<path d="M20779 41911 c-6 -16 -17 -32 -25 -35 -18 -7 -18 -36 0 -36 11 0 15
-22 18 -96 4 -111 15 -127 83 -122 49 4 57 31 10 36 -16 2 -33 9 -37 15 -4 7
-8 47 -8 90 l0 77 35 0 c28 0 35 4 35 20 0 16 -7 20 -35 20 -32 0 -35 2 -35
30 0 40 -27 40 -41 1z"/>
<path d="M17365 41874 c-19 -10 -31 -11 -33 -5 -2 6 -12 11 -23 11 -18 0 -19
-9 -19 -131 0 -130 0 -130 23 -127 20 3 22 9 25 83 3 106 7 119 38 134 22 10
31 9 50 -4 23 -15 24 -21 24 -115 0 -100 0 -100 25 -100 25 0 25 1 25 89 0 70
4 93 18 109 23 28 54 35 77 18 16 -12 20 -30 23 -115 4 -91 6 -101 23 -101 17
0 19 9 19 106 0 58 -4 114 -10 124 -12 23 -73 44 -102 35 -13 -4 -31 -15 -41
-23 -13 -12 -20 -13 -25 -5 -8 12 -55 33 -75 33 -7 0 -25 -7 -42 -16z"/>
<path d="M18083 41876 c-42 -19 -63 -62 -63 -132 0 -50 3 -59 34 -90 30 -30
40 -34 89 -34 68 0 87 7 87 30 0 16 -7 17 -59 13 -50 -5 -61 -3 -80 16 -11 11
-21 30 -21 41 0 18 7 20 85 20 l85 0 0 30 c0 33 -20 79 -42 97 -23 19 -81 24
-115 9z m87 -46 c37 -37 26 -50 -40 -50 -68 0 -78 14 -34 49 33 26 49 26 74 1z"/>
<path d="M18400 41883 c-8 -3 -23 -12 -32 -21 -16 -13 -18 -13 -24 2 -3 9 -15
16 -25 16 -18 0 -19 -9 -19 -130 l0 -130 25 0 c25 0 25 1 25 84 0 98 18 133
73 138 24 2 32 8 32 23 0 21 -26 29 -55 18z"/>
<path d="M18693 41883 c-57 -11 -97 -114 -73 -187 17 -53 52 -76 114 -76 79 1
116 41 116 128 0 105 -57 154 -157 135z m90 -65 c9 -11 17 -30 18 -42 4 -79
-17 -116 -66 -116 -63 0 -96 80 -60 150 23 44 73 48 108 8z"/>
<path d="M19242 41879 c-38 -11 -58 -46 -48 -84 5 -21 21 -33 72 -56 55 -25
65 -33 62 -52 -3 -20 -8 -22 -70 -21 -58 0 -68 -2 -68 -17 0 -22 20 -29 81
-29 60 0 87 12 99 46 19 48 2 74 -66 105 -47 22 -64 34 -64 49 0 26 39 36 82
21 30 -11 47 -3 48 21 0 19 -83 30 -128 17z"/>
<path d="M20253 41876 c-42 -19 -63 -62 -63 -132 0 -50 3 -59 34 -90 30 -30
40 -34 89 -34 68 0 87 7 87 30 0 16 -7 17 -59 13 -50 -5 -61 -3 -80 16 -11 11
-21 30 -21 41 0 18 7 20 85 20 l85 0 0 30 c0 33 -20 79 -42 97 -23 19 -81 24
-115 9z m87 -46 c37 -37 26 -50 -40 -50 -68 0 -78 14 -34 49 33 26 49 26 74 1z"/>
<path d="M20545 41874 c-19 -10 -31 -11 -33 -5 -2 6 -12 11 -23 11 -18 0 -19
-9 -19 -130 l0 -130 25 0 c25 0 25 1 25 89 0 71 4 93 18 112 21 25 74 31 94
11 7 -7 14 -54 16 -112 4 -90 6 -100 23 -100 17 0 19 9 19 106 0 58 -4 114
-10 124 -10 18 -59 40 -89 40 -9 0 -29 -7 -46 -16z"/>
<path d="M20984 41883 c-48 -9 -73 -73 -44 -108 7 -9 35 -25 61 -36 62 -27 76
-43 58 -65 -11 -13 -26 -15 -76 -11 -47 5 -63 3 -63 -6 0 -25 25 -37 78 -37
82 0 112 21 112 77 0 35 -11 45 -91 86 -24 12 -45 28 -47 34 -6 22 41 36 82
25 31 -9 37 -8 46 8 9 16 5 20 -27 29 -39 11 -51 12 -89 4z"/>
<path d="M16990 41776 c0 -89 3 -107 21 -130 17 -21 29 -26 68 -26 26 0 56 7
69 16 20 14 22 14 22 0 0 -9 9 -16 20 -16 19 0 20 7 20 130 l0 130 -25 0 c-25
0 -25 -1 -25 -88 0 -104 -13 -132 -64 -132 -50 0 -56 13 -56 122 0 98 0 98
-25 98 l-25 0 0 -104z"/>
<path d="M19610 41770 c0 -97 2 -112 20 -130 23 -23 97 -28 133 -9 16 9 22 9
25 0 2 -6 12 -11 23 -11 18 0 19 9 19 130 l0 130 -25 0 c-25 0 -25 -1 -25 -88
0 -104 -13 -132 -63 -132 -57 0 -62 9 -65 120 -4 90 -6 100 -23 100 -18 0 -19
-8 -19 -110z"/>
<path d="M16320 41765 c0 -24 3 -25 60 -25 57 0 60 1 60 25 0 24 -3 25 -60 25
-57 0 -60 -1 -60 -25z"/>
<path d="M17740 41205 c0 -153 2 -185 14 -185 8 0 16 6 19 13 3 10 9 10 26 0
33 -20 104 -16 129 7 43 41 51 135 16 202 -20 39 -78 55 -127 34 l-37 -15 0
65 c0 57 -2 64 -20 64 -19 0 -20 -7 -20 -185z m159 20 c22 -21 26 -97 7 -133
-13 -25 -23 -32 -45 -32 -47 0 -60 10 -71 51 -27 98 45 174 109 114z"/>
<path d="M18951 41364 c-12 -15 -21 -39 -21 -54 0 -22 -6 -29 -26 -34 -30 -8
-27 -30 4 -34 21 -3 22 -8 22 -113 0 -102 1 -109 20 -109 19 0 20 7 20 109 l0
110 32 3 c47 4 51 35 6 40 -27 2 -32 7 -30 23 6 39 12 45 47 45 28 0 35 4 35
20 0 17 -7 20 -44 20 -36 0 -48 -5 -65 -26z"/>
<path d="M20150 41204 l0 -185 23 3 c20 3 22 9 25 83 3 110 7 121 44 134 25 9
36 8 55 -4 22 -14 23 -22 23 -115 0 -100 0 -100 25 -100 l25 0 0 104 c0 88 -3
107 -20 129 -26 33 -81 43 -122 23 -17 -9 -32 -16 -32 -16 -1 0 1 29 2 65 4
64 3 65 -22 65 l-26 0 0 -186z"/>
<path d="M16630 41195 l0 -175 26 0 26 0 -4 135 c-1 74 -2 135 -1 135 1 0 41
-61 89 -135 78 -121 90 -135 115 -135 l29 0 0 175 0 175 -26 0 -25 0 3 -134
c2 -74 0 -132 -3 -130 -3 2 -44 62 -90 134 -74 115 -87 130 -111 130 l-28 0 0
-175z"/>
<path d="M19217 41311 c-4 -17 -14 -30 -26 -34 -27 -7 -27 -27 -1 -34 18 -5
20 -14 20 -92 0 -110 12 -131 76 -131 37 0 44 3 44 19 0 15 -8 21 -32 23 l-33
3 -3 87 -3 87 33 3 c22 2 34 9 36 21 3 14 -4 17 -32 17 -33 0 -36 2 -36 30 0
41 -35 43 -43 1z"/>
<path d="M17365 41274 c-19 -10 -31 -11 -33 -5 -2 6 -12 11 -23 11 -18 0 -19
-9 -19 -131 0 -130 0 -130 23 -127 20 3 22 9 25 83 3 106 7 119 38 134 22 10
31 9 50 -4 23 -15 24 -21 24 -115 0 -100 0 -100 25 -100 25 0 25 1 25 89 0 70
4 93 18 109 23 28 54 35 77 18 16 -12 20 -30 23 -115 4 -91 6 -101 23 -101 17
0 19 9 19 106 0 58 -4 114 -10 124 -12 23 -73 44 -102 35 -13 -4 -31 -15 -41
-23 -13 -12 -20 -13 -25 -5 -8 12 -55 33 -75 33 -7 0 -25 -7 -42 -16z"/>
<path d="M18083 41276 c-42 -19 -63 -62 -63 -132 0 -50 3 -59 34 -90 30 -30
40 -34 89 -34 68 0 87 7 87 30 0 16 -7 17 -59 13 -50 -5 -61 -3 -80 16 -11 11
-21 30 -21 41 0 18 7 20 85 20 l85 0 0 30 c0 33 -20 79 -42 97 -23 19 -81 24
-115 9z m87 -46 c37 -37 26 -50 -40 -50 -68 0 -78 14 -34 49 33 26 49 26 74 1z"/>
<path d="M18400 41283 c-8 -3 -23 -12 -32 -21 -16 -13 -18 -13 -24 2 -3 9 -15
16 -25 16 -18 0 -19 -9 -19 -130 l0 -130 25 0 c25 0 25 1 25 84 0 98 18 133
73 138 24 2 32 8 32 23 0 21 -26 29 -55 18z"/>
<path d="M18693 41283 c-57 -11 -97 -114 -73 -187 17 -53 52 -76 114 -76 79 1
116 41 116 128 0 105 -57 154 -157 135z m90 -65 c9 -11 17 -30 18 -42 4 -79
-17 -116 -66 -116 -63 0 -96 80 -60 150 23 44 73 48 108 8z"/>
<path d="M19428 41274 c-78 -42 -82 -201 -7 -239 53 -28 159 -16 159 16 0 17
-5 19 -53 13 -64 -8 -91 4 -105 46 l-11 30 90 0 c89 0 89 0 89 25 0 48 -27 95
-64 110 -44 19 -63 18 -98 -1z m87 -49 c38 -37 31 -45 -35 -45 -43 0 -60 4
-60 13 0 25 32 53 63 56 4 1 19 -10 32 -24z"/>
<path d="M19698 41278 c-40 -10 -43 -15 -29 -36 7 -11 16 -11 50 -1 36 11 43
10 61 -6 37 -34 26 -52 -36 -58 -68 -7 -100 -27 -109 -68 -11 -50 20 -83 80
-87 33 -2 52 2 65 13 17 15 19 15 28 -1 6 -11 16 -15 27 -10 16 6 17 18 13
112 -4 86 -8 109 -24 124 -24 24 -78 31 -126 18z m97 -167 c-8 -34 -31 -51
-71 -51 -70 0 -47 76 25 82 48 4 54 1 46 -31z"/>
<path d="M19975 41276 c-45 -20 -67 -59 -67 -120 -1 -57 21 -109 52 -126 12
-6 44 -10 73 -8 44 3 52 6 55 24 3 20 -1 21 -45 17 -64 -7 -87 17 -87 87 0 68
23 92 82 89 32 -2 46 1 53 13 11 20 3 26 -47 33 -23 3 -51 0 -69 -9z"/>
<path d="M20504 41281 c-55 -23 -87 -116 -64 -185 17 -53 52 -76 116 -76 65 0
84 7 84 30 0 16 -7 17 -58 13 -55 -5 -60 -4 -80 22 -39 49 -32 55 69 55 l91 0
-7 42 c-8 48 -20 70 -45 86 -26 16 -82 23 -106 13z m73 -46 c11 -8 23 -24 26
-35 5 -19 1 -20 -58 -20 -59 0 -63 1 -58 20 6 21 39 50 58 50 6 0 20 -7 32
-15z"/>
<path d="M20810 41283 c-8 -3 -23 -12 -32 -21 -16 -14 -18 -13 -18 1 0 10 -8
17 -20 17 -19 0 -20 -7 -20 -130 0 -123 1 -130 20 -130 18 0 20 7 20 75 0 108
22 145 87 145 20 0 24 4 21 23 -3 22 -28 31 -58 20z"/>
<path d="M20952 41279 c-38 -11 -58 -46 -48 -84 5 -21 21 -33 72 -56 55 -25
65 -33 62 -52 -3 -20 -8 -22 -70 -21 -58 0 -68 -2 -68 -17 0 -22 20 -29 81
-29 60 0 87 12 99 46 19 48 2 74 -66 105 -47 22 -64 34 -64 49 0 26 39 36 82
21 30 -11 47 -3 48 21 0 19 -83 30 -128 17z"/>
<path d="M16990 41176 c0 -89 3 -107 21 -130 17 -21 29 -26 68 -26 26 0 56 7
69 16 20 14 22 14 22 0 0 -9 9 -16 20 -16 19 0 20 7 20 130 l0 130 -25 0 c-25
0 -25 -1 -25 -88 0 -104 -13 -132 -64 -132 -50 0 -56 13 -56 122 0 98 0 98
-25 98 l-25 0 0 -104z"/>
<path d="M16320 41165 c0 -24 3 -25 60 -25 57 0 60 1 60 25 0 24 -3 25 -60 25
-57 0 -60 -1 -60 -25z"/>
<path d="M17992 40583 l3 -238 48 -3 c42 -3 47 -1 47 17 0 16 -6 21 -25 21
l-25 0 0 205 0 205 25 0 c16 0 25 6 25 15 0 11 -12 15 -50 15 l-50 0 2 -237z"/>
<path d="M18950 40806 c0 -9 12 -16 28 -18 l27 -3 3 -202 2 -203 -30 0 c-23 0
-30 -4 -30 -20 0 -17 7 -20 50 -20 l50 0 0 240 0 240 -50 0 c-37 0 -50 -4 -50
-14z"/>
<path d="M17740 40605 c0 -178 1 -185 20 -185 19 0 20 7 20 185 0 178 -1 185
-20 185 -19 0 -20 -7 -20 -185z"/>
<path d="M17614 40766 c-9 -24 4 -48 23 -44 12 2 18 12 18 28 0 29 -32 41 -41
16z"/>
<path d="M18763 40740 c6 -44 -5 -50 -57 -30 -21 8 -26 6 -32 -12 -7 -25 9
-38 50 -38 28 0 28 -1 12 -22 -36 -51 -36 -55 -11 -66 23 -11 26 -9 40 24 16
40 27 38 45 -6 14 -34 18 -35 42 -16 16 12 16 15 -8 47 -23 31 -23 34 -7 37
58 9 64 13 61 35 -2 13 -9 21 -18 19 -8 -2 -29 -6 -47 -9 l-31 -5 5 41 c5 39
5 41 -22 41 -26 0 -27 -2 -22 -40z"/>
<path d="M16630 40595 l0 -175 100 0 c93 0 100 1 100 20 0 18 -7 20 -75 20
l-75 0 0 60 0 60 70 0 c63 0 70 2 70 20 0 18 -7 20 -70 20 l-70 0 0 55 0 55
75 0 c68 0 75 2 75 20 0 19 -7 20 -100 20 l-100 0 0 -175z"/>
<path d="M18189 40757 c-34 -26 -49 -74 -49 -156 0 -87 10 -124 42 -158 28
-30 95 -31 131 -3 67 53 58 282 -12 320 -27 14 -92 12 -112 -3z m97 -48 c16
-18 19 -37 19 -114 0 -102 -15 -135 -61 -135 -40 0 -58 42 -58 135 0 61 4 89
17 109 21 32 57 34 83 5z"/>
<path d="M16968 40676 c-16 -8 -30 -11 -33 -5 -4 5 -15 9 -26 9 -18 0 -19 -8
-19 -130 l0 -130 25 0 c25 0 25 1 25 89 0 70 4 93 18 109 24 28 54 35 78 18
16 -12 20 -29 22 -115 4 -91 6 -101 23 -101 17 0 19 8 19 68 0 93 15 141 47
153 19 7 32 6 49 -6 23 -15 24 -21 24 -115 l0 -100 26 0 26 0 -4 109 c-3 89
-7 113 -22 130 -29 32 -79 37 -120 13 -29 -17 -36 -18 -48 -6 -22 22 -79 27
-110 10z"/>
<path d="M17388 40678 c-40 -10 -43 -15 -29 -36 7 -11 16 -11 50 -1 36 11 43
10 61 -6 37 -34 26 -52 -36 -58 -68 -7 -100 -27 -109 -68 -11 -50 20 -83 80
-87 33 -2 52 2 65 13 17 15 19 15 28 -1 6 -11 16 -15 27 -10 16 6 17 18 13
112 -4 86 -8 109 -24 124 -24 24 -78 31 -126 18z m97 -167 c-8 -34 -31 -51
-71 -51 -70 0 -47 76 25 82 48 4 54 1 46 -31z"/>
<path d="M17610 40550 l0 -130 25 0 25 0 0 130 0 130 -25 0 -25 0 0 -130z"/>
<path d="M16320 40565 c0 -24 3 -25 60 -25 57 0 60 1 60 25 0 24 -3 25 -60 25
-57 0 -60 -1 -60 -25z"/>
<path d="M18413 40464 c-8 -20 8 -48 30 -52 19 -4 39 30 31 52 -8 21 -53 21
-61 0z"/>
<path d="M18543 40464 c-8 -20 8 -48 30 -52 19 -4 39 30 31 52 -8 21 -53 21
-61 0z"/>
<path d="M20590 30405 l0 -185 25 0 25 0 0 185 0 185 -25 0 -25 0 0 -185z"/>
<path d="M19550 30395 l0 -175 25 0 c24 0 25 2 25 75 l0 75 70 0 c63 0 70 2
70 20 0 18 -7 20 -70 20 l-70 0 0 60 0 60 75 0 c68 0 75 2 75 20 0 19 -7 20
-100 20 l-100 0 0 -175z"/>
<path d="M20730 30525 c0 -9 -12 -27 -26 -40 -26 -24 -25 -45 2 -45 11 0 14
-19 14 -93 0 -110 10 -127 78 -127 35 0 42 3 42 20 0 16 -7 20 -30 20 -39 0
-50 23 -50 109 l0 70 37 3 c26 2 39 8 41 20 2 13 -5 17 -35 20 -33 3 -38 7
-41 31 -3 28 -32 39 -32 12z"/>
<path d="M19852 30480 c-42 -10 -54 -21 -43 -39 7 -11 15 -11 41 -2 44 15 56
14 74 -5 26 -25 20 -54 -10 -54 -50 0 -115 -22 -126 -43 -16 -30 -12 -76 8
-98 22 -24 100 -26 132 -3 20 14 22 14 22 0 0 -9 9 -16 20 -16 19 0 20 7 20
94 0 115 -11 151 -52 165 -35 12 -39 12 -86 1z m88 -153 c0 -12 -7 -33 -16
-45 -20 -29 -79 -31 -93 -3 -19 35 12 56 102 70 4 0 7 -9 7 -22z"/>
<path d="M20117 30479 c-56 -22 -86 -134 -52 -199 21 -41 53 -60 101 -60 55 0
74 8 74 31 0 16 -6 17 -47 13 -65 -8 -84 8 -91 74 -3 38 0 58 13 78 15 23 22
25 66 22 41 -2 50 0 55 15 3 10 4 20 2 23 -11 10 -96 12 -121 3z"/>
<path d="M20292 30369 c3 -102 5 -112 27 -130 30 -24 107 -26 133 -2 17 15 18
15 18 0 0 -10 8 -17 20 -17 19 0 20 7 20 130 0 120 -1 130 -19 130 -16 0 -19
-11 -23 -90 -6 -104 -21 -130 -73 -130 -49 0 -55 14 -55 122 l0 98 -26 0 -26
0 4 -111z"/>
<path d="M20850 30477 c0 -2 22 -59 50 -127 32 -79 48 -131 44 -146 -7 -29
-33 -51 -64 -56 -14 -2 -26 -11 -28 -20 -3 -15 4 -18 36 -18 23 0 49 7 61 18
14 10 47 82 86 185 l63 167 -27 0 c-24 0 -29 -7 -61 -100 -25 -72 -37 -96 -42
-83 -4 10 -21 55 -38 101 -28 72 -35 82 -56 82 -13 0 -24 -1 -24 -3z"/>
<path d="M16630 29595 l0 -175 26 0 26 0 -4 135 c-1 74 -2 135 -1 135 1 0 41
-61 89 -135 78 -121 90 -135 115 -135 l29 0 0 175 0 175 -26 0 -25 0 3 -134
c2 -74 0 -132 -3 -130 -3 2 -44 62 -90 134 -74 115 -87 130 -111 130 l-28 0 0
-175z"/>
<path d="M17038 29678 c-40 -10 -43 -15 -29 -36 7 -11 16 -11 50 -1 36 11 43
10 61 -6 37 -34 26 -52 -36 -58 -68 -7 -100 -27 -109 -68 -11 -50 20 -83 80
-87 33 -2 52 2 65 13 17 15 19 15 28 -1 6 -11 16 -15 27 -10 16 6 17 18 13
112 -4 86 -8 109 -24 124 -24 24 -78 31 -126 18z m97 -167 c-8 -34 -31 -51
-71 -51 -70 0 -47 76 25 82 48 4 54 1 46 -31z"/>
<path d="M17335 29675 c-19 -10 -31 -12 -33 -6 -2 6 -12 11 -23 11 -18 0 -19
-9 -19 -130 l0 -130 25 0 c25 0 25 1 25 89 0 71 4 93 18 111 21 25 69 30 83 9
5 -8 9 -58 9 -111 0 -98 0 -98 25 -98 25 0 25 1 25 89 0 70 4 93 18 109 27 32
58 36 81 13 18 -18 21 -34 21 -116 0 -88 1 -95 20 -95 19 0 20 7 20 109 0 134
-11 153 -83 155 -32 1 -52 -4 -64 -16 -15 -16 -19 -16 -34 -2 -25 23 -80 27
-114 9z"/>
<path d="M17758 29674 c-78 -42 -82 -201 -7 -239 53 -28 159 -16 159 16 0 17
-5 19 -53 13 -64 -8 -91 4 -105 46 l-11 30 90 0 c89 0 89 0 89 25 0 48 -27 95
-64 110 -44 19 -63 18 -98 -1z m87 -49 c38 -37 31 -45 -35 -45 -43 0 -60 4
-60 13 0 25 32 53 63 56 4 1 19 -10 32 -24z"/>
<path d="M16320 29565 c0 -24 3 -25 60 -25 57 0 60 1 60 25 0 24 -3 25 -60 25
-57 0 -60 -1 -60 -25z"/>
<path d="M17740 29005 c0 -153 2 -185 14 -185 8 0 16 6 19 13 3 10 9 10 26 0
33 -20 104 -16 129 7 43 41 51 135 16 202 -20 39 -78 55 -127 34 l-37 -15 0
65 c0 57 -2 64 -20 64 -19 0 -20 -7 -20 -185z m159 20 c22 -21 26 -97 7 -133
-13 -25 -23 -32 -45 -32 -47 0 -60 10 -71 51 -27 98 45 174 109 114z"/>
<path d="M18951 29164 c-12 -15 -21 -39 -21 -54 0 -22 -6 -29 -26 -34 -30 -8
-27 -30 4 -34 21 -3 22 -8 22 -113 0 -102 1 -109 20 -109 19 0 20 7 20 109 l0
110 32 3 c47 4 51 35 6 40 -27 2 -32 7 -30 23 6 39 12 45 47 45 28 0 35 4 35
20 0 17 -7 20 -44 20 -36 0 -48 -5 -65 -26z"/>
<path d="M20080 29126 l0 -64 -43 16 c-75 27 -125 -8 -142 -99 -8 -44 9 -113
36 -140 25 -25 104 -26 131 -2 17 15 18 15 18 0 0 -10 8 -17 20 -17 19 0 20 7
20 185 0 178 -1 185 -20 185 -18 0 -20 -7 -20 -64z m-46 -86 c57 -21 58 -162
1 -176 -58 -14 -95 20 -95 87 0 38 25 86 47 92 10 3 19 5 20 6 1 0 13 -3 27
-9z"/>
<path d="M16630 28995 l0 -175 26 0 26 0 -4 135 c-1 74 -2 135 -1 135 1 0 41
-61 89 -135 78 -121 90 -135 115 -135 l29 0 0 175 0 175 -26 0 -25 0 3 -134
c2 -74 0 -132 -3 -130 -3 2 -44 62 -90 134 -74 115 -87 130 -111 130 l-28 0 0
-175z"/>
<path d="M19447 29111 c-4 -17 -14 -30 -26 -34 -27 -7 -27 -27 -1 -34 18 -5
20 -14 20 -92 0 -110 12 -131 76 -131 37 0 44 3 44 19 0 15 -8 21 -32 23 l-33
3 -3 87 -3 87 33 3 c22 2 34 9 36 21 3 14 -4 17 -32 17 -33 0 -36 2 -36 30 0
41 -35 43 -43 1z"/>
<path d="M20779 29111 c-6 -16 -17 -32 -25 -35 -18 -7 -18 -36 0 -36 11 0 15
-22 18 -96 4 -111 15 -127 83 -122 49 4 57 31 10 36 -16 2 -33 9 -37 15 -4 7
-8 47 -8 90 l0 77 35 0 c28 0 35 4 35 20 0 16 -7 20 -35 20 -32 0 -35 2 -35
30 0 40 -27 40 -41 1z"/>
<path d="M17365 29074 c-19 -10 -31 -11 -33 -5 -2 6 -12 11 -23 11 -18 0 -19
-9 -19 -131 0 -130 0 -130 23 -127 20 3 22 9 25 83 3 106 7 119 38 134 22 10
31 9 50 -4 23 -15 24 -21 24 -115 0 -100 0 -100 25 -100 25 0 25 1 25 89 0 70
4 93 18 109 23 28 54 35 77 18 16 -12 20 -30 23 -115 4 -91 6 -101 23 -101 17
0 19 9 19 106 0 58 -4 114 -10 124 -12 23 -73 44 -102 35 -13 -4 -31 -15 -41
-23 -13 -12 -20 -13 -25 -5 -8 12 -55 33 -75 33 -7 0 -25 -7 -42 -16z"/>
<path d="M18083 29076 c-42 -19 -63 -62 -63 -132 0 -50 3 -59 34 -90 30 -30
40 -34 89 -34 68 0 87 7 87 30 0 16 -7 17 -59 13 -50 -5 -61 -3 -80 16 -11 11
-21 30 -21 41 0 18 7 20 85 20 l85 0 0 30 c0 33 -20 79 -42 97 -23 19 -81 24
-115 9z m87 -46 c37 -37 26 -50 -40 -50 -68 0 -78 14 -34 49 33 26 49 26 74 1z"/>
<path d="M18400 29083 c-8 -3 -23 -12 -32 -21 -16 -13 -18 -13 -24 2 -3 9 -15
16 -25 16 -18 0 -19 -9 -19 -130 l0 -130 25 0 c25 0 25 1 25 84 0 98 18 133
73 138 24 2 32 8 32 23 0 21 -26 29 -55 18z"/>
<path d="M18693 29083 c-57 -11 -97 -114 -73 -187 17 -53 52 -76 114 -76 79 1
116 41 116 128 0 105 -57 154 -157 135z m90 -65 c9 -11 17 -30 18 -42 4 -79
-17 -116 -66 -116 -63 0 -96 80 -60 150 23 44 73 48 108 8z"/>
<path d="M19242 29079 c-38 -11 -58 -46 -48 -84 5 -21 21 -33 72 -56 55 -25
65 -33 62 -52 -3 -20 -8 -22 -70 -21 -58 0 -68 -2 -68 -17 0 -22 20 -29 81
-29 60 0 87 12 99 46 19 48 2 74 -66 105 -47 22 -64 34 -64 49 0 26 39 36 82
21 30 -11 47 -3 48 21 0 19 -83 30 -128 17z"/>
<path d="M20253 29076 c-42 -19 -63 -62 -63 -132 0 -50 3 -59 34 -90 30 -30
40 -34 89 -34 68 0 87 7 87 30 0 16 -7 17 -59 13 -50 -5 -61 -3 -80 16 -11 11
-21 30 -21 41 0 18 7 20 85 20 l85 0 0 30 c0 33 -20 79 -42 97 -23 19 -81 24
-115 9z m87 -46 c37 -37 26 -50 -40 -50 -68 0 -78 14 -34 49 33 26 49 26 74 1z"/>
<path d="M20545 29074 c-19 -10 -31 -11 -33 -5 -2 6 -12 11 -23 11 -18 0 -19
-9 -19 -130 l0 -130 25 0 c25 0 25 1 25 89 0 71 4 93 18 112 21 25 74 31 94
11 7 -7 14 -54 16 -112 4 -90 6 -100 23 -100 17 0 19 9 19 106 0 58 -4 114
-10 124 -10 18 -59 40 -89 40 -9 0 -29 -7 -46 -16z"/>
<path d="M20984 29083 c-48 -9 -73 -73 -44 -108 7 -9 35 -25 61 -36 62 -27 76
-43 58 -65 -11 -13 -26 -15 -76 -11 -47 5 -63 3 -63 -6 0 -25 25 -37 78 -37
82 0 112 21 112 77 0 35 -11 45 -91 86 -24 12 -45 28 -47 34 -6 22 41 36 82
25 31 -9 37 -8 46 8 9 16 5 20 -27 29 -39 11 -51 12 -89 4z"/>
<path d="M16990 28976 c0 -89 3 -107 21 -130 17 -21 29 -26 68 -26 26 0 56 7
69 16 20 14 22 14 22 0 0 -9 9 -16 20 -16 19 0 20 7 20 130 l0 130 -25 0 c-25
0 -25 -1 -25 -88 0 -104 -13 -132 -64 -132 -50 0 -56 13 -56 122 0 98 0 98
-25 98 l-25 0 0 -104z"/>
<path d="M19610 28970 c0 -97 2 -112 20 -130 23 -23 97 -28 133 -9 16 9 22 9
25 0 2 -6 12 -11 23 -11 18 0 19 9 19 130 l0 130 -25 0 c-25 0 -25 -1 -25 -88
0 -104 -13 -132 -63 -132 -57 0 -62 9 -65 120 -4 90 -6 100 -23 100 -18 0 -19
-8 -19 -110z"/>
<path d="M16320 28965 c0 -24 3 -25 60 -25 57 0 60 1 60 25 0 24 -3 25 -60 25
-57 0 -60 -1 -60 -25z"/>
<path d="M17740 28405 c0 -153 2 -185 14 -185 8 0 16 6 19 13 3 10 9 10 26 0
33 -20 104 -16 129 7 43 41 51 135 16 202 -20 39 -78 55 -127 34 l-37 -15 0
65 c0 57 -2 64 -20 64 -19 0 -20 -7 -20 -185z m159 20 c22 -21 26 -97 7 -133
-13 -25 -23 -32 -45 -32 -47 0 -60 10 -71 51 -27 98 45 174 109 114z"/>
<path d="M18951 28564 c-12 -15 -21 -39 -21 -54 0 -22 -6 -29 -26 -34 -30 -8
-27 -30 4 -34 21 -3 22 -8 22 -113 0 -102 1 -109 20 -109 19 0 20 7 20 109 l0
110 32 3 c47 4 51 35 6 40 -27 2 -32 7 -30 23 6 39 12 45 47 45 28 0 35 4 35
20 0 17 -7 20 -44 20 -36 0 -48 -5 -65 -26z"/>
<path d="M20150 28404 l0 -185 23 3 c20 3 22 9 25 83 3 110 7 121 44 134 25 9
36 8 55 -4 22 -14 23 -22 23 -115 0 -100 0 -100 25 -100 l25 0 0 104 c0 88 -3
107 -20 129 -26 33 -81 43 -122 23 -17 -9 -32 -16 -32 -16 -1 0 1 29 2 65 4
64 3 65 -22 65 l-26 0 0 -186z"/>
<path d="M16630 28395 l0 -175 26 0 26 0 -4 135 c-1 74 -2 135 -1 135 1 0 41
-61 89 -135 78 -121 90 -135 115 -135 l29 0 0 175 0 175 -26 0 -25 0 3 -134
c2 -74 0 -132 -3 -130 -3 2 -44 62 -90 134 -74 115 -87 130 -111 130 l-28 0 0
-175z"/>
<path d="M19217 28511 c-4 -17 -14 -30 -26 -34 -27 -7 -27 -27 -1 -34 18 -5
20 -14 20 -92 0 -110 12 -131 76 -131 37 0 44 3 44 19 0 15 -8 21 -32 23 l-33
3 -3 87 -3 87 33 3 c22 2 34 9 36 21 3 14 -4 17 -32 17 -33 0 -36 2 -36 30 0
41 -35 43 -43 1z"/>
<path d="M17365 28474 c-19 -10 -31 -11 -33 -5 -2 6 -12 11 -23 11 -18 0 -19
-9 -19 -131 0 -130 0 -130 23 -127 20 3 22 9 25 83 3 106 7 119 38 134 22 10
31 9 50 -4 23 -15 24 -21 24 -115 0 -100 0 -100 25 -100 25 0 25 1 25 89 0 70
4 93 18 109 23 28 54 35 77 18 16 -12 20 -30 23 -115 4 -91 6 -101 23 -101 17
0 19 9 19 106 0 58 -4 114 -10 124 -12 23 -73 44 -102 35 -13 -4 -31 -15 -41
-23 -13 -12 -20 -13 -25 -5 -8 12 -55 33 -75 33 -7 0 -25 -7 -42 -16z"/>
<path d="M18083 28476 c-42 -19 -63 -62 -63 -132 0 -50 3 -59 34 -90 30 -30
40 -34 89 -34 68 0 87 7 87 30 0 16 -7 17 -59 13 -50 -5 -61 -3 -80 16 -11 11
-21 30 -21 41 0 18 7 20 85 20 l85 0 0 30 c0 33 -20 79 -42 97 -23 19 -81 24
-115 9z m87 -46 c37 -37 26 -50 -40 -50 -68 0 -78 14 -34 49 33 26 49 26 74 1z"/>
<path d="M18400 28483 c-8 -3 -23 -12 -32 -21 -16 -13 -18 -13 -24 2 -3 9 -15
16 -25 16 -18 0 -19 -9 -19 -130 l0 -130 25 0 c25 0 25 1 25 84 0 98 18 133
73 138 24 2 32 8 32 23 0 21 -26 29 -55 18z"/>
<path d="M18693 28483 c-57 -11 -97 -114 -73 -187 17 -53 52 -76 114 -76 79 1
116 41 116 128 0 105 -57 154 -157 135z m90 -65 c9 -11 17 -30 18 -42 4 -79
-17 -116 -66 -116 -63 0 -96 80 -60 150 23 44 73 48 108 8z"/>
<path d="M19428 28474 c-78 -42 -82 -201 -7 -239 53 -28 159 -16 159 16 0 17
-5 19 -53 13 -64 -8 -91 4 -105 46 l-11 30 90 0 c89 0 89 0 89 25 0 48 -27 95
-64 110 -44 19 -63 18 -98 -1z m87 -49 c38 -37 31 -45 -35 -45 -43 0 -60 4
-60 13 0 25 32 53 63 56 4 1 19 -10 32 -24z"/>
<path d="M19698 28478 c-40 -10 -43 -15 -29 -36 7 -11 16 -11 50 -1 36 11 43
10 61 -6 37 -34 26 -52 -36 -58 -68 -7 -100 -27 -109 -68 -11 -50 20 -83 80
-87 33 -2 52 2 65 13 17 15 19 15 28 -1 6 -11 16 -15 27 -10 16 6 17 18 13
112 -4 86 -8 109 -24 124 -24 24 -78 31 -126 18z m97 -167 c-8 -34 -31 -51
-71 -51 -70 0 -47 76 25 82 48 4 54 1 46 -31z"/>
<path d="M19975 28476 c-45 -20 -67 -59 -67 -120 -1 -57 21 -109 52 -126 12
-6 44 -10 73 -8 44 3 52 6 55 24 3 20 -1 21 -45 17 -64 -7 -87 17 -87 87 0 68
23 92 82 89 32 -2 46 1 53 13 11 20 3 26 -47 33 -23 3 -51 0 -69 -9z"/>
<path d="M20504 28481 c-55 -23 -87 -116 -64 -185 17 -53 52 -76 116 -76 65 0
84 7 84 30 0 16 -7 17 -58 13 -55 -5 -60 -4 -80 22 -39 49 -32 55 69 55 l91 0
-7 42 c-8 48 -20 70 -45 86 -26 16 -82 23 -106 13z m73 -46 c11 -8 23 -24 26
-35 5 -19 1 -20 -58 -20 -59 0 -63 1 -58 20 6 21 39 50 58 50 6 0 20 -7 32
-15z"/>
<path d="M20810 28483 c-8 -3 -23 -12 -32 -21 -16 -14 -18 -13 -18 1 0 10 -8
17 -20 17 -19 0 -20 -7 -20 -130 0 -123 1 -130 20 -130 18 0 20 7 20 75 0 108
22 145 87 145 20 0 24 4 21 23 -3 22 -28 31 -58 20z"/>
<path d="M20952 28479 c-38 -11 -58 -46 -48 -84 5 -21 21 -33 72 -56 55 -25
65 -33 62 -52 -3 -20 -8 -22 -70 -21 -58 0 -68 -2 -68 -17 0 -22 20 -29 81
-29 60 0 87 12 99 46 19 48 2 74 -66 105 -47 22 -64 34 -64 49 0 26 39 36 82
21 30 -11 47 -3 48 21 0 19 -83 30 -128 17z"/>
<path d="M16990 28376 c0 -89 3 -107 21 -130 17 -21 29 -26 68 -26 26 0 56 7
69 16 20 14 22 14 22 0 0 -9 9 -16 20 -16 19 0 20 7 20 130 l0 130 -25 0 c-25
0 -25 -1 -25 -88 0 -104 -13 -132 -64 -132 -50 0 -56 13 -56 122 0 98 0 98
-25 98 l-25 0 0 -104z"/>
<path d="M16320 28365 c0 -24 3 -25 60 -25 57 0 60 1 60 25 0 24 -3 25 -60 25
-57 0 -60 -1 -60 -25z"/>
<path d="M6203 18394 c-8 -20 8 -48 30 -52 19 -4 39 30 31 52 -8 21 -53 21
-61 0z"/>
<path d="M6333 18394 c-8 -20 8 -48 30 -52 19 -4 39 30 31 52 -8 21 -53 21
-61 0z"/>
<path d="M4220 18005 l0 -185 24 0 c23 0 24 2 28 95 3 107 15 128 69 128 49 0
59 -22 59 -131 0 -91 1 -93 23 -90 21 3 22 7 21 103 0 58 -5 109 -12 122 -19
34 -79 49 -125 29 l-37 -15 0 65 c0 62 -1 64 -25 64 l-25 0 0 -185z"/>
<path d="M5424 18165 c-8 -21 3 -45 20 -45 20 0 29 16 21 40 -7 23 -33 27 -41
5z"/>
<path d="M2470 17995 c0 -168 1 -175 20 -175 18 0 20 7 20 70 l0 70 35 0 c32
0 37 -5 75 -70 33 -57 46 -70 65 -70 14 0 25 3 25 7 0 4 -18 37 -40 74 l-40
67 30 30 c34 35 39 75 15 122 -18 35 -63 50 -147 50 l-58 0 0 -175z m122 125
c40 -11 54 -35 44 -75 -7 -26 -59 -49 -98 -43 -20 3 -23 10 -26 52 -5 79 4 87
80 66z"/>
<path d="M4650 17995 l0 -175 25 0 c24 0 25 2 25 64 l0 64 47 7 c91 13 123 43
123 113 0 72 -48 101 -167 102 l-53 0 0 -175z m119 125 c40 -11 51 -24 51 -62
0 -35 -33 -58 -82 -58 l-38 0 0 65 c0 72 3 74 69 55z"/>
<path d="M6060 18125 c0 -9 -12 -27 -26 -40 -26 -24 -25 -45 2 -45 11 0 14
-19 14 -93 0 -110 10 -127 78 -127 35 0 42 3 42 20 0 16 -7 20 -30 20 -39 0
-50 23 -50 109 l0 70 37 3 c26 2 39 8 41 20 2 13 -5 17 -35 20 -33 3 -38 7
-41 31 -3 28 -32 39 -32 12z"/>
<path d="M2808 18074 c-78 -42 -82 -201 -7 -239 53 -28 159 -16 159 16 0 17
-5 19 -53 13 -64 -8 -91 4 -105 46 l-11 30 90 0 c89 0 89 0 89 25 0 48 -27 95
-64 110 -44 19 -63 18 -98 -1z m87 -49 c38 -37 31 -45 -35 -45 -43 0 -60 4
-60 13 0 25 32 53 63 56 4 1 19 -10 32 -24z"/>
<path d="M3061 18077 c-23 -8 -38 -21 -44 -40 -13 -40 12 -73 79 -102 46 -21
55 -28 52 -47 -3 -21 -8 -23 -70 -22 -58 0 -68 -2 -68 -17 0 -22 20 -29 84
-29 65 0 106 27 106 69 0 39 -17 57 -82 86 -62 27 -73 48 -35 66 17 8 35 8 61
1 30 -9 38 -8 43 4 3 9 2 19 -3 24 -16 16 -88 20 -123 7z"/>
<path d="M3308 18074 c-78 -42 -82 -201 -7 -239 53 -28 159 -16 159 16 0 17
-5 19 -53 13 -64 -8 -91 4 -105 46 l-11 30 90 0 c89 0 89 0 89 25 0 48 -27 95
-64 110 -44 19 -63 18 -98 -1z m87 -49 c38 -37 31 -45 -35 -45 -43 0 -60 4
-60 13 0 25 32 53 63 56 4 1 19 -10 32 -24z"/>
<path d="M3578 18078 c-40 -10 -43 -15 -29 -36 7 -11 16 -11 50 -1 36 11 43
10 61 -6 37 -34 26 -52 -36 -58 -68 -7 -100 -27 -109 -68 -11 -50 20 -83 80
-87 33 -2 52 2 65 13 17 15 19 15 28 -1 6 -11 16 -15 27 -10 16 6 17 18 13
112 -4 86 -8 109 -24 124 -24 24 -78 31 -126 18z m97 -167 c-8 -34 -31 -51
-71 -51 -70 0 -47 76 25 82 48 4 54 1 46 -31z"/>
<path d="M3873 18070 c-27 -16 -33 -17 -33 -5 0 8 -9 15 -20 15 -19 0 -20 -7
-20 -131 0 -130 0 -130 23 -127 21 3 22 9 27 96 6 103 17 122 72 122 23 0 28
4 28 25 0 32 -31 34 -77 5z"/>
<path d="M4047 18079 c-56 -22 -86 -134 -52 -199 21 -41 53 -60 101 -60 55 0
74 8 74 31 0 16 -6 17 -47 13 -65 -8 -84 8 -91 74 -3 38 0 58 13 78 15 23 22
25 66 22 41 -2 50 0 55 15 3 10 4 20 2 23 -11 10 -96 12 -121 3z"/>
<path d="M5030 18083 c-8 -3 -23 -12 -32 -21 -16 -14 -18 -13 -18 1 0 10 -8
17 -20 17 -19 0 -20 -7 -20 -130 0 -123 1 -130 20 -130 18 0 20 7 20 75 0 108
22 145 87 145 20 0 24 4 21 23 -3 22 -28 31 -58 20z"/>
<path d="M5185 18076 c-43 -19 -66 -58 -67 -115 -2 -63 18 -108 53 -126 33
-17 102 -20 130 -5 50 27 70 149 33 205 -18 28 -69 55 -101 55 -10 -1 -32 -7
-48 -14z m116 -83 c23 -70 -9 -133 -67 -133 -53 0 -83 60 -64 129 8 29 17 42
38 49 42 14 79 -3 93 -45z"/>
<path d="M5597 18079 c-56 -22 -86 -134 -52 -199 23 -44 53 -60 111 -60 65 0
84 7 84 30 0 16 -7 17 -58 13 -55 -5 -60 -4 -80 22 -39 49 -31 55 63 55 l85 0
0 35 c0 41 -15 77 -39 92 -28 18 -83 23 -114 12z m81 -45 c12 -8 22 -24 22
-35 0 -17 -7 -19 -60 -19 -66 0 -73 8 -35 45 28 29 42 31 73 9z"/>
<path d="M5867 18079 c-56 -22 -86 -134 -52 -199 21 -41 53 -60 101 -60 55 0
74 8 74 31 0 16 -6 17 -47 13 -65 -8 -84 8 -91 74 -3 38 0 58 13 78 15 23 22
25 66 22 41 -2 50 0 55 15 3 10 4 20 2 23 -11 10 -96 12 -121 3z"/>
<path d="M5420 17931 c0 -82 -3 -156 -6 -165 -4 -10 -18 -16 -35 -16 -22 0
-29 -5 -29 -20 0 -16 7 -20 38 -20 20 0 43 4 50 8 23 15 32 76 32 219 l0 143
-25 0 -25 0 0 -149z"/>
<path d="M1190 17205 l0 -185 25 0 25 0 0 185 0 185 -25 0 -25 0 0 -185z"/>
<path d="M894 17366 c-9 -24 4 -48 23 -44 12 2 18 12 18 28 0 29 -32 41 -41
16z"/>
<path d="M590 17351 c0 -17 8 -20 53 -23 l52 -3 3 -153 c3 -152 3 -153 25
-150 21 3 22 6 25 156 l3 152 49 0 c43 0 50 3 50 20 0 19 -7 20 -130 20 -122
0 -130 -1 -130 -19z"/>
<path d="M1027 17311 c-4 -17 -14 -30 -26 -34 -27 -7 -27 -27 -1 -34 18 -5 20
-14 20 -92 0 -110 12 -131 76 -131 37 0 44 3 44 19 0 15 -8 21 -32 23 l-33 3
-3 87 -3 87 33 3 c22 2 34 9 36 21 3 14 -4 17 -32 17 -33 0 -36 2 -36 30 0 41
-35 43 -43 1z"/>
<path d="M1367 17279 c-56 -22 -86 -134 -52 -199 23 -44 53 -60 111 -60 65 0
84 7 84 30 0 16 -7 17 -58 13 -55 -5 -60 -4 -80 22 -39 49 -31 55 63 55 l85 0
0 35 c0 41 -15 77 -39 92 -28 18 -83 23 -114 12z m81 -45 c12 -8 22 -24 22
-35 0 -17 -7 -19 -60 -19 -66 0 -73 8 -35 45 28 29 42 31 73 9z"/>
<path d="M890 17150 l0 -130 25 0 25 0 0 130 0 130 -25 0 -25 0 0 -130z"/>
<path d="M320 17165 c0 -24 3 -25 60 -25 57 0 60 1 60 25 0 24 -3 25 -60 25
-57 0 -60 -1 -60 -25z"/>
<path d="M1911 16766 c-13 -16 -4 -46 14 -46 7 0 18 7 25 15 10 12 10 18 0 30
-15 19 -24 19 -39 1z"/>
<path d="M2504 16765 c-8 -21 3 -45 20 -45 20 0 29 16 21 40 -7 23 -33 27 -41
5z"/>
<path d="M630 16595 l0 -177 90 4 c96 4 123 16 164 71 30 41 34 134 7 189 -30
62 -68 81 -173 86 l-88 4 0 -177z m172 114 c58 -26 77 -150 32 -200 -25 -29
-75 -49 -119 -49 l-35 0 0 136 0 137 48 -6 c26 -3 60 -11 74 -18z"/>
<path d="M2337 16711 c-4 -17 -14 -30 -26 -34 -27 -7 -27 -27 -1 -34 18 -5 20
-14 20 -92 0 -110 12 -131 76 -131 37 0 44 3 44 19 0 15 -8 21 -32 23 l-33 3
-3 87 -3 87 33 3 c22 2 34 9 36 21 3 14 -4 17 -32 17 -33 0 -36 2 -36 30 0 41
-35 43 -43 1z"/>
<path d="M1034 16681 c-55 -23 -87 -116 -64 -185 17 -53 52 -76 116 -76 65 0
84 7 84 30 0 16 -7 17 -58 13 -55 -5 -60 -4 -80 22 -39 49 -32 55 69 55 l91 0
-7 42 c-8 48 -20 70 -45 86 -26 16 -82 23 -106 13z m73 -46 c11 -8 23 -24 26
-35 5 -19 1 -20 -58 -20 -59 0 -63 1 -58 20 6 21 39 50 58 50 6 0 20 -7 32
-15z"/>
<path d="M1281 16677 c-23 -8 -38 -21 -44 -40 -13 -40 12 -73 79 -102 46 -21
55 -28 52 -47 -3 -21 -8 -23 -70 -22 -58 0 -68 -2 -68 -17 0 -22 20 -29 84
-29 65 0 106 27 106 69 0 39 -17 57 -82 86 -62 27 -73 48 -35 66 17 8 35 8 61
1 30 -9 38 -8 43 4 3 9 2 19 -3 24 -16 16 -88 20 -123 7z"/>
<path d="M1535 16676 c-45 -20 -67 -59 -67 -120 -1 -57 21 -109 52 -126 12 -6
44 -10 73 -8 44 3 52 6 55 24 3 20 -1 21 -45 17 -64 -7 -87 17 -87 87 0 68 23
92 82 89 32 -2 46 1 53 13 11 20 3 26 -47 33 -23 3 -51 0 -69 -9z"/>
<path d="M1783 16670 c-27 -16 -33 -17 -33 -5 0 8 -9 15 -20 15 -19 0 -20 -7
-20 -131 0 -130 0 -130 23 -127 21 3 22 9 27 96 6 103 17 122 72 122 23 0 28
4 28 25 0 32 -31 34 -77 5z"/>
<path d="M2105 16674 c-19 -10 -31 -11 -33 -5 -2 6 -12 11 -23 11 -18 0 -19
-9 -19 -185 l0 -185 25 0 c24 0 25 2 25 65 0 62 1 65 19 55 25 -13 87 -13 112
0 30 16 49 64 49 122 0 107 -73 165 -155 122z m90 -57 c20 -28 19 -107 -1
-135 -10 -15 -25 -22 -49 -22 -43 0 -65 29 -65 88 0 52 13 80 43 91 29 11 55
3 72 -22z"/>
<path d="M2673 16676 c-46 -21 -66 -66 -61 -139 4 -52 9 -64 36 -88 27 -24 41
-29 83 -29 42 0 55 5 79 28 50 51 49 162 -4 211 -30 28 -91 36 -133 17z m88
-36 c15 0 39 -57 39 -93 0 -75 -86 -119 -124 -65 -18 26 -21 100 -5 129 12 23
47 40 67 33 8 -2 18 -4 23 -4z"/>
<path d="M2993 16676 c-19 -9 -35 -11 -38 -5 -4 5 -15 9 -26 9 -18 0 -19 -8
-19 -130 l0 -130 24 0 c23 0 24 2 28 95 3 107 15 128 69 128 49 0 59 -22 59
-131 0 -91 1 -93 23 -90 19 3 22 10 25 58 5 79 -7 156 -26 179 -23 27 -79 34
-119 17z"/>
<path d="M1910 16550 c0 -123 1 -130 20 -130 19 0 20 7 20 130 0 123 -1 130
-20 130 -19 0 -20 -7 -20 -130z"/>
<path d="M2500 16549 c0 -130 0 -130 23 -127 21 3 22 7 25 131 l3 127 -26 0
-25 0 0 -131z"/>
<path d="M320 16565 c0 -24 3 -25 60 -25 57 0 60 1 60 25 0 24 -3 25 -60 25
-57 0 -60 -1 -60 -25z"/>
<path d="M15830 18382 c0 -34 24 -49 47 -31 23 20 12 54 -19 57 -25 3 -28 0
-28 -26z"/>
<path d="M15960 18382 c0 -34 24 -49 47 -31 23 20 12 54 -19 57 -25 3 -28 0
-28 -26z"/>
<path d="M14615 18156 c-60 -26 -87 -78 -87 -167 0 -114 51 -169 159 -169 74
0 93 6 93 31 0 16 -6 18 -65 12 -63 -6 -65 -5 -100 30 -32 32 -35 40 -35 95 0
105 61 159 151 135 35 -9 41 -8 50 8 8 16 5 21 -16 29 -37 14 -114 12 -150 -4z"/>
<path d="M15417 18111 c-4 -17 -14 -30 -26 -34 -27 -7 -27 -27 -1 -34 18 -5
20 -14 20 -92 0 -110 12 -131 76 -131 37 0 44 3 44 19 0 15 -8 21 -32 23 l-33
3 -3 87 -3 87 33 3 c22 2 34 9 36 21 3 14 -4 17 -32 17 -33 0 -36 2 -36 30 0
41 -35 43 -43 1z"/>
<path d="M14892 18080 c-41 -9 -46 -15 -38 -35 3 -10 13 -14 23 -11 70 21 94
13 108 -31 6 -21 3 -23 -27 -23 -52 0 -106 -19 -123 -43 -21 -30 -19 -73 5
-97 24 -24 95 -27 127 -5 19 13 22 13 27 0 3 -8 12 -15 21 -15 12 0 15 17 15
106 0 58 -5 114 -10 124 -8 16 -71 43 -90 39 -3 -1 -20 -5 -38 -9z m92 -139
c11 -18 -16 -71 -39 -77 -41 -10 -70 -1 -73 25 -5 36 10 45 100 60 4 0 9 -3
12 -8z"/>
<path d="M15185 18074 c-19 -10 -31 -11 -33 -5 -2 6 -12 11 -23 11 -18 0 -19
-9 -19 -131 0 -130 0 -130 23 -127 20 3 22 9 25 83 3 110 7 121 44 134 25 9
36 8 55 -4 22 -14 23 -22 23 -115 0 -100 0 -100 25 -100 25 0 25 0 25 100 0
119 -10 146 -59 160 -47 13 -51 13 -86 -6z"/>
<path d="M15628 18074 c-78 -42 -82 -201 -7 -239 53 -28 159 -16 159 16 0 17
-5 19 -53 13 -64 -8 -91 4 -105 46 l-11 30 90 0 c89 0 89 0 89 25 0 48 -27 95
-64 110 -44 19 -63 18 -98 -1z m87 -49 c38 -37 31 -45 -35 -45 -43 0 -60 4
-60 13 0 25 32 53 63 56 4 1 19 -10 32 -24z"/>
<path d="M15898 18074 c-78 -42 -82 -201 -7 -239 53 -28 159 -16 159 16 0 17
-5 19 -53 13 -64 -8 -91 4 -105 46 l-11 30 90 0 c89 0 89 0 89 25 0 48 -27 95
-64 110 -44 19 -63 18 -98 -1z m87 -49 c38 -37 31 -45 -35 -45 -43 0 -60 4
-60 13 0 25 32 53 63 56 4 1 19 -10 32 -24z"/>
<path d="M16195 18074 c-19 -10 -31 -11 -33 -5 -2 6 -12 11 -23 11 -18 0 -19
-9 -19 -130 l0 -130 25 0 c25 0 25 1 25 89 0 71 4 93 18 112 21 25 74 31 94
11 7 -7 14 -54 16 -112 4 -90 6 -100 23 -100 17 0 19 9 19 106 0 58 -4 114
-10 124 -10 18 -59 40 -89 40 -9 0 -29 -7 -46 -16z"/>
<path d="M11830 17196 l0 -176 25 0 24 0 3 131 3 130 49 -130 c41 -112 51
-131 70 -131 18 0 29 21 73 138 l52 137 0 -137 1 -138 25 0 25 0 0 175 0 175
-34 0 c-38 0 -34 7 -118 -217 -11 -30 -22 -52 -25 -50 -2 3 -26 63 -53 134
l-48 128 -36 3 -36 3 0 -175z"/>
<path d="M12313 17276 c-42 -19 -63 -62 -63 -132 0 -50 3 -59 34 -90 30 -30
40 -34 89 -34 68 0 87 7 87 30 0 16 -7 17 -59 13 -50 -5 -61 -3 -80 16 -11 11
-21 30 -21 41 0 18 7 20 85 20 l85 0 0 30 c0 33 -20 79 -42 97 -23 19 -81 24
-115 9z m87 -46 c37 -37 26 -50 -40 -50 -68 0 -78 14 -34 49 33 26 49 26 74 1z"/>
<path d="M12613 17276 c-19 -9 -35 -11 -38 -5 -4 5 -15 9 -26 9 -18 0 -19 -8
-19 -130 l0 -130 24 0 c23 0 24 2 28 95 3 107 15 128 69 128 49 0 59 -22 59
-131 0 -91 1 -93 23 -90 19 3 22 10 25 58 5 79 -7 156 -26 179 -23 27 -79 34
-119 17z"/>
<path d="M12830 17170 c0 -97 2 -112 20 -130 23 -23 97 -28 133 -9 16 9 22 9
25 0 2 -6 12 -11 23 -11 18 0 19 9 19 130 l0 130 -25 0 c-25 0 -25 -1 -25 -88
0 -104 -13 -132 -63 -132 -57 0 -62 9 -65 120 -4 90 -6 100 -23 100 -18 0 -19
-8 -19 -110z"/>
<path d="M11520 17165 c0 -24 3 -25 60 -25 57 0 60 1 60 25 0 24 -3 25 -60 25
-57 0 -60 -1 -60 -25z"/>
<path d="M13194 16766 c-9 -24 4 -48 23 -44 12 2 18 12 18 28 0 29 -32 41 -41
16z"/>
<path d="M11905 16756 c-60 -26 -87 -78 -87 -167 0 -114 51 -169 159 -169 74
0 93 6 93 31 0 16 -6 18 -65 12 -63 -6 -65 -5 -100 30 -32 32 -35 40 -35 95 0
105 61 159 151 135 35 -9 41 -8 50 8 8 16 5 21 -16 29 -37 14 -114 12 -150 -4z"/>
<path d="M13329 16711 c-6 -16 -17 -32 -25 -35 -18 -7 -18 -36 0 -36 11 0 15
-22 18 -96 4 -111 15 -127 83 -122 49 4 57 31 10 36 -16 2 -33 9 -37 15 -4 7
-8 47 -8 90 l0 77 35 0 c28 0 35 4 35 20 0 16 -7 20 -35 20 -32 0 -35 2 -35
30 0 40 -27 40 -41 1z"/>
<path d="M12182 16680 c-41 -9 -46 -15 -38 -35 3 -10 13 -14 23 -11 70 21 94
13 108 -31 6 -21 3 -23 -27 -23 -52 0 -106 -19 -123 -43 -21 -30 -19 -73 5
-97 24 -24 95 -27 127 -5 19 13 22 13 27 0 3 -8 12 -15 21 -15 12 0 15 17 15
106 0 58 -5 114 -10 124 -8 16 -71 43 -90 39 -3 -1 -20 -5 -38 -9z m92 -139
c11 -18 -16 -71 -39 -77 -41 -10 -70 -1 -73 25 -5 36 10 45 100 60 4 0 9 -3
12 -8z"/>
<path d="M12475 16674 c-19 -10 -31 -11 -33 -5 -2 6 -12 11 -23 11 -18 0 -19
-9 -19 -185 l0 -185 26 0 c26 0 26 1 22 65 -4 60 2 79 17 55 8 -13 91 -13 117
1 47 25 64 147 28 207 -31 51 -81 64 -135 36z m92 -60 c18 -28 14 -114 -7
-139 -19 -23 -76 -19 -94 7 -17 23 -22 113 -8 135 11 17 53 31 75 25 10 -2 25
-15 34 -28z"/>
<path d="M12752 16680 c-42 -10 -54 -21 -43 -39 7 -11 15 -11 41 -2 44 15 56
14 74 -5 26 -25 20 -54 -10 -54 -50 0 -115 -22 -126 -43 -16 -30 -12 -76 8
-98 22 -24 100 -26 132 -3 20 14 22 14 22 0 0 -9 9 -16 20 -16 19 0 20 7 20
94 0 115 -11 151 -52 165 -35 12 -39 12 -86 1z m88 -153 c0 -12 -7 -33 -16
-45 -20 -29 -79 -31 -93 -3 -19 35 12 56 102 70 4 0 7 -9 7 -22z"/>
<path d="M13017 16679 c-56 -22 -86 -134 -52 -199 21 -41 53 -60 101 -60 55 0
74 8 74 31 0 16 -6 17 -47 13 -65 -8 -84 8 -91 74 -3 38 0 58 13 78 15 23 22
25 66 22 41 -2 50 0 55 15 3 10 4 20 2 23 -11 10 -96 12 -121 3z"/>
<path d="M13190 16550 l0 -130 25 0 25 0 0 130 0 130 -25 0 -25 0 0 -130z"/>
<path d="M13471 16628 c89 -223 84 -205 66 -243 -14 -29 -22 -35 -47 -35 -23
0 -30 -4 -30 -20 0 -17 7 -20 39 -20 60 0 70 17 172 293 l29 78 -27 -3 c-23
-3 -30 -13 -61 -101 l-35 -98 -37 98 c-33 88 -39 98 -63 101 l-27 3 21 -53z"/>
<path d="M11520 16565 c0 -24 3 -25 60 -25 57 0 60 1 60 25 0 24 -3 25 -60 25
-57 0 -60 -1 -60 -25z"/>
<path d="M27290 18342 c0 -34 24 -49 47 -31 23 20 12 54 -19 57 -25 3 -28 0
-28 -26z"/>
<path d="M27413 18354 c-8 -20 8 -48 30 -52 19 -4 39 30 31 52 -8 21 -53 21
-61 0z"/>
<path d="M28300 18126 l0 -64 -43 16 c-75 27 -125 -8 -142 -99 -8 -44 9 -113
36 -140 25 -25 104 -26 131 -2 17 15 18 15 18 0 0 -10 8 -17 20 -17 19 0 20 7
20 185 0 178 -1 185 -20 185 -18 0 -20 -7 -20 -64z m-46 -86 c57 -21 58 -162
1 -176 -58 -14 -95 20 -95 87 0 38 25 86 47 92 10 3 19 5 20 6 1 0 13 -3 27
-9z"/>
<path d="M27409 18141 c-56 -56 -34 -118 57 -161 70 -33 91 -58 74 -90 -16
-31 -72 -38 -149 -19 -19 5 -27 -31 -9 -42 22 -14 137 -10 168 6 34 18 55 71
41 106 -12 32 -37 53 -86 73 -73 31 -93 66 -58 101 16 17 74 17 114 1 11 -5
18 -1 22 14 7 27 -24 40 -94 40 -42 0 -55 -5 -80 -29z"/>
<path d="M27667 18111 c-4 -17 -14 -30 -26 -34 -27 -7 -27 -27 -1 -34 18 -5
20 -14 20 -92 0 -110 12 -131 76 -131 37 0 44 3 44 19 0 15 -8 21 -32 23 l-33
3 -3 87 -3 87 33 3 c22 2 34 9 36 21 3 14 -4 17 -32 17 -33 0 -36 2 -36 30 0
41 -35 43 -43 1z"/>
<path d="M28999 18111 c-6 -16 -17 -32 -25 -35 -18 -7 -18 -36 0 -36 11 0 15
-22 18 -96 4 -111 15 -127 83 -122 49 4 57 31 10 36 -16 2 -33 9 -37 15 -4 7
-8 47 -8 90 l0 77 35 0 c28 0 35 4 35 20 0 16 -7 20 -35 20 -32 0 -35 2 -35
30 0 40 -27 40 -41 1z"/>
<path d="M28473 18076 c-42 -19 -63 -62 -63 -132 0 -50 3 -59 34 -90 30 -30
40 -34 89 -34 68 0 87 7 87 30 0 16 -7 17 -59 13 -50 -5 -61 -3 -80 16 -11 11
-21 30 -21 41 0 18 7 20 85 20 l85 0 0 30 c0 33 -20 79 -42 97 -23 19 -81 24
-115 9z m87 -46 c37 -37 26 -50 -40 -50 -68 0 -78 14 -34 49 33 26 49 26 74 1z"/>
<path d="M28765 18074 c-19 -10 -31 -11 -33 -5 -2 6 -12 11 -23 11 -18 0 -19
-9 -19 -130 l0 -130 25 0 c25 0 25 1 25 89 0 71 4 93 18 112 21 25 74 31 94
11 7 -7 14 -54 16 -112 4 -90 6 -100 23 -100 17 0 19 9 19 106 0 58 -4 114
-10 124 -10 18 -59 40 -89 40 -9 0 -29 -7 -46 -16z"/>
<path d="M27830 17970 c0 -97 2 -112 20 -130 23 -23 97 -28 133 -9 16 9 22 9
25 0 2 -6 12 -11 23 -11 18 0 19 9 19 130 l0 130 -25 0 c-25 0 -25 -1 -25 -88
0 -104 -13 -132 -63 -132 -57 0 -62 9 -65 120 -4 90 -6 100 -23 100 -18 0 -19
-8 -19 -110z"/>
<path d="M25530 17326 l0 -65 -27 15 c-34 17 -50 17 -92 3 -48 -17 -67 -67
-62 -166 0 -18 12 -45 27 -62 22 -26 33 -31 71 -31 24 0 54 5 66 11 16 9 22 9
25 0 2 -6 12 -11 23 -11 18 0 19 9 19 185 l0 185 -25 0 c-24 0 -25 -2 -25 -64z
m-21 -101 c8 -8 16 -36 19 -64 6 -67 -15 -101 -62 -101 -56 0 -86 57 -66 129
15 56 69 74 109 36z"/>
<path d="M24654 17351 c-37 -23 -48 -62 -29 -108 11 -25 29 -40 82 -66 50 -25
69 -39 71 -56 8 -52 -54 -75 -136 -52 -30 9 -32 8 -32 -14 0 -29 16 -35 97
-35 58 0 67 3 94 29 31 32 38 75 18 113 -6 11 -39 33 -75 49 -70 32 -91 57
-74 89 14 26 54 35 98 22 37 -12 51 -5 52 24 0 29 -121 32 -166 5z"/>
<path d="M26377 17363 c-12 -12 -7 -22 13 -28 19 -6 20 -15 20 -142 0 -126 -1
-135 -20 -140 -11 -3 -20 -12 -20 -19 0 -11 16 -14 65 -14 50 0 65 3 65 14 0
8 -9 18 -20 21 -19 6 -20 15 -20 140 0 124 1 133 20 138 11 3 20 12 20 21 0
13 -12 16 -58 16 -32 0 -62 -3 -65 -7z"/>
<path d="M26568 17364 c-5 -4 -8 -84 -8 -177 l0 -169 88 4 c140 6 192 54 192
175 0 116 -52 164 -184 171 -45 2 -84 1 -88 -4z m174 -55 c45 -24 64 -130 33
-188 -16 -33 -77 -61 -130 -61 l-35 0 0 128 c0 71 3 132 8 136 9 10 99 -1 124
-15z"/>
<path d="M24904 17315 c-3 -14 -15 -30 -25 -36 -23 -12 -25 -39 -4 -39 12 0
15 -14 15 -68 0 -74 13 -131 32 -144 7 -4 32 -8 56 -8 35 0 42 3 42 20 0 15
-7 20 -28 20 -44 0 -52 16 -52 101 l0 78 37 3 c27 2 39 8 41 21 3 14 -4 17
-37 17 -39 0 -41 2 -41 30 0 38 -27 41 -36 5z"/>
<path d="M26240 17325 c0 -9 -12 -27 -26 -40 -26 -24 -25 -45 2 -45 11 0 14
-19 14 -93 0 -110 10 -127 78 -127 35 0 42 3 42 20 0 16 -7 20 -30 20 -39 0
-50 23 -50 109 l0 70 37 3 c26 2 39 8 41 20 2 13 -5 17 -35 20 -33 3 -38 7
-41 31 -3 28 -32 39 -32 12z"/>
<path d="M25714 17281 c-55 -23 -87 -116 -64 -185 17 -53 52 -76 116 -76 65 0
84 7 84 30 0 16 -7 17 -58 13 -55 -5 -60 -4 -80 22 -39 49 -32 55 69 55 l91 0
-7 42 c-8 48 -20 70 -45 86 -26 16 -82 23 -106 13z m73 -46 c11 -8 23 -24 26
-35 5 -19 1 -20 -58 -20 -59 0 -63 1 -58 20 6 21 39 50 58 50 6 0 20 -7 32
-15z"/>
<path d="M26003 17275 c-18 -8 -33 -10 -33 -5 0 6 -9 10 -20 10 -19 0 -20 -7
-20 -130 0 -123 1 -130 20 -130 18 0 20 7 20 68 0 98 14 138 52 151 25 9 36 8
55 -4 22 -14 23 -22 23 -115 l0 -100 26 0 26 0 -4 110 c-3 93 -6 113 -23 129
-27 27 -83 34 -122 16z"/>
<path d="M25062 17169 c3 -102 5 -112 27 -130 30 -24 107 -26 133 -2 17 15 18
15 18 0 0 -10 8 -17 20 -17 19 0 20 7 20 130 0 120 -1 130 -19 130 -16 0 -19
-11 -23 -90 -6 -104 -21 -130 -73 -130 -49 0 -55 14 -55 122 l0 98 -26 0 -26
0 4 -111z"/>
<path d="M24320 17165 c0 -24 3 -25 60 -25 57 0 60 1 60 25 0 24 -3 25 -60 25
-57 0 -60 -1 -60 -25z"/>
<path d="M37283 18354 c-8 -20 8 -48 30 -52 19 -4 39 30 31 52 -8 21 -53 21
-61 0z"/>
<path d="M37417 18363 c-12 -11 -8 -40 7 -52 22 -18 46 -2 46 30 0 24 -4 29
-23 29 -13 0 -27 -3 -30 -7z"/>
<path d="M38870 18005 c0 -178 1 -185 20 -185 18 0 20 7 20 68 0 98 14 138 52
151 25 9 36 8 55 -4 22 -14 23 -22 23 -115 l0 -100 26 0 26 0 -4 109 c-3 88
-7 113 -21 129 -26 28 -78 36 -121 18 l-36 -15 0 65 c0 57 -2 64 -20 64 -19 0
-20 -7 -20 -185z"/>
<path d="M37810 18151 c0 -17 8 -20 53 -23 l52 -3 3 -153 c3 -152 3 -153 25
-150 21 3 22 6 25 156 l3 152 49 0 c43 0 50 3 50 20 0 19 -7 20 -130 20 -122
0 -130 -1 -130 -19z"/>
<path d="M38154 18081 c-55 -23 -87 -116 -64 -185 17 -53 52 -76 116 -76 65 0
84 7 84 30 0 16 -7 17 -58 13 -55 -5 -60 -4 -80 22 -39 49 -32 55 69 55 l91 0
-7 42 c-8 48 -20 70 -45 86 -26 16 -82 23 -106 13z m73 -46 c11 -8 23 -24 26
-35 5 -19 1 -20 -58 -20 -59 0 -63 1 -58 20 6 21 39 50 58 50 6 0 20 -7 32
-15z"/>
<path d="M38445 18085 c-5 -2 -22 -6 -37 -9 -27 -6 -38 -29 -20 -40 5 -3 25
-1 45 5 46 12 77 -2 77 -35 0 -21 -6 -24 -52 -29 -69 -9 -102 -33 -106 -80 -4
-50 24 -77 81 -77 23 0 53 7 65 16 20 14 22 14 22 0 0 -9 9 -16 20 -16 19 0
20 7 20 108 0 95 -2 111 -20 130 -12 12 -26 22 -33 22 -7 0 -21 2 -32 5 -11 2
-24 2 -30 0z m65 -163 c0 -39 -30 -64 -72 -60 -26 2 -34 8 -36 27 -5 36 13 46
101 60 4 0 7 -12 7 -27z"/>
<path d="M38703 18083 c-56 -11 -94 -104 -73 -181 16 -60 51 -84 119 -80 49 3
56 6 59 25 3 21 1 22 -46 16 -45 -5 -50 -3 -70 22 -24 31 -29 83 -11 118 17
32 29 38 79 35 39 -2 45 0 48 18 2 17 -4 23 -29 28 -33 6 -39 6 -76 -1z"/>
<path d="M39217 18079 c-56 -22 -86 -134 -52 -199 23 -44 53 -60 111 -60 65 0
84 7 84 30 0 16 -7 17 -58 13 -55 -5 -60 -4 -80 22 -39 49 -31 55 63 55 l85 0
0 35 c0 41 -15 77 -39 92 -28 18 -83 23 -114 12z m81 -45 c12 -8 22 -24 22
-35 0 -17 -7 -19 -60 -19 -66 0 -73 8 -35 45 28 29 42 31 73 9z"/>
<path d="M39530 18083 c-8 -3 -23 -12 -32 -21 -16 -13 -18 -13 -24 2 -3 9 -15
16 -25 16 -18 0 -19 -9 -19 -130 l0 -130 25 0 c25 0 25 1 25 84 0 98 18 133
73 138 24 2 32 8 32 23 0 21 -26 29 -55 18z"/>
<path d="M36050 17204 l0 -185 23 3 c20 3 22 9 25 83 3 110 7 121 44 134 25 9
36 8 55 -4 22 -14 23 -22 23 -115 0 -100 0 -100 25 -100 l25 0 0 104 c0 88 -3
107 -20 129 -26 33 -81 43 -122 23 -17 -9 -32 -16 -32 -16 -1 0 1 29 2 65 4
64 3 65 -22 65 l-26 0 0 -186z"/>
<path d="M34990 17351 c0 -17 8 -20 53 -23 l52 -3 3 -153 c3 -152 3 -153 25
-150 21 3 22 6 25 156 l3 152 49 0 c43 0 50 3 50 20 0 19 -7 20 -130 20 -122
0 -130 -1 -130 -19z"/>
<path d="M36790 17354 c0 -9 9 -18 20 -21 19 -5 20 -14 20 -138 0 -125 -1
-134 -20 -140 -11 -3 -20 -13 -20 -21 0 -11 15 -14 65 -14 50 0 65 3 65 14 0
8 -9 18 -20 21 -19 6 -20 15 -20 140 0 124 1 133 20 138 11 3 20 12 20 21 0
13 -12 16 -65 16 -53 0 -65 -3 -65 -16z"/>
<path d="M36980 17195 l0 -177 90 4 c96 4 123 16 164 71 30 41 34 134 7 189
-30 62 -68 81 -173 86 l-88 4 0 -177z m172 114 c58 -26 77 -150 32 -200 -25
-29 -75 -49 -119 -49 l-35 0 0 136 0 137 48 -6 c26 -3 60 -11 74 -18z"/>
<path d="M35334 17281 c-55 -23 -87 -116 -64 -185 17 -53 52 -76 116 -76 65 0
84 7 84 30 0 16 -7 17 -58 13 -55 -5 -60 -4 -80 22 -39 49 -32 55 69 55 l91 0
-7 42 c-8 48 -20 70 -45 86 -26 16 -82 23 -106 13z m73 -46 c11 -8 23 -24 26
-35 5 -19 1 -20 -58 -20 -59 0 -63 1 -58 20 6 21 39 50 58 50 6 0 20 -7 32
-15z"/>
<path d="M35602 17280 c-41 -9 -46 -15 -38 -35 3 -10 13 -14 23 -11 70 21 94
13 108 -31 6 -21 3 -23 -27 -23 -52 0 -106 -19 -123 -43 -21 -30 -19 -73 5
-97 24 -24 95 -27 127 -5 19 13 22 13 27 0 3 -8 12 -15 21 -15 12 0 15 17 15
106 0 58 -5 114 -10 124 -8 16 -71 43 -90 39 -3 -1 -20 -5 -38 -9z m92 -139
c11 -18 -16 -71 -39 -77 -41 -10 -70 -1 -73 25 -5 36 10 45 100 60 4 0 9 -3
12 -8z"/>
<path d="M35883 17283 c-56 -11 -94 -104 -73 -181 16 -60 51 -84 119 -80 49 3
56 6 59 25 3 21 1 22 -46 16 -45 -5 -50 -3 -70 22 -24 31 -29 83 -11 118 17
32 29 38 79 35 39 -2 45 0 48 18 2 17 -4 23 -29 28 -33 6 -39 6 -76 -1z"/>
<path d="M36397 17279 c-56 -22 -86 -134 -52 -199 23 -44 53 -60 111 -60 65 0
84 7 84 30 0 16 -7 17 -58 13 -55 -5 -60 -4 -80 22 -39 49 -31 55 63 55 l85 0
0 35 c0 41 -15 77 -39 92 -28 18 -83 23 -114 12z m81 -45 c12 -8 22 -24 22
-35 0 -17 -7 -19 -60 -19 -66 0 -73 8 -35 45 28 29 42 31 73 9z"/>
<path d="M36710 17283 c-8 -3 -23 -12 -32 -21 -16 -13 -18 -13 -24 2 -3 9 -15
16 -25 16 -18 0 -19 -9 -19 -130 l0 -130 25 0 c25 0 25 1 25 84 0 98 18 133
73 138 24 2 32 8 32 23 0 21 -26 29 -55 18z"/>
<path d="M34720 17165 c0 -24 3 -25 60 -25 57 0 60 1 60 25 0 24 -3 25 -60 25
-57 0 -60 -1 -60 -25z"/>
<path d="M27560 7195 c0 -168 1 -175 20 -175 18 0 20 7 20 64 l0 65 54 6 c74
10 113 35 122 79 17 93 -35 136 -163 136 l-53 0 0 -175z m152 108 c25 -23 23
-68 -4 -87 -12 -9 -42 -16 -65 -16 l-43 0 0 58 c0 32 3 62 8 66 11 12 84 -3
104 -21z"/>
<path d="M27893 7276 c-42 -19 -63 -62 -63 -132 0 -50 3 -59 34 -90 30 -30 40
-34 89 -34 68 0 87 7 87 30 0 16 -7 17 -59 13 -50 -5 -61 -3 -80 16 -11 11
-21 30 -21 41 0 18 7 20 85 20 l85 0 0 30 c0 33 -20 79 -42 97 -23 19 -81 24
-115 9z m87 -46 c37 -37 26 -50 -40 -50 -68 0 -78 14 -34 49 33 26 49 26 74 1z"/>
<path d="M28204 7280 c-12 -5 -25 -13 -29 -19 -9 -16 -25 -13 -25 4 0 8 -9 15
-20 15 -19 0 -20 -7 -20 -130 l0 -130 25 0 c25 0 25 1 25 84 0 97 20 136 70
136 19 0 29 6 33 19 8 32 -14 39 -59 21z"/>
<path d="M28341 7277 c-23 -8 -38 -21 -44 -40 -13 -40 12 -73 79 -102 46 -21
55 -28 52 -47 -3 -21 -8 -23 -70 -22 -58 0 -68 -2 -68 -17 0 -22 20 -29 84
-29 65 0 106 27 106 69 0 39 -17 57 -82 86 -62 27 -73 48 -35 66 17 8 35 8 61
1 30 -9 38 -8 43 4 3 9 2 19 -3 24 -16 16 -88 20 -123 7z"/>
<path d="M28595 7276 c-43 -19 -66 -58 -67 -115 -2 -63 18 -108 53 -126 33
-17 102 -20 130 -5 50 27 70 149 33 205 -18 28 -69 55 -101 55 -10 -1 -32 -7
-48 -14z m116 -83 c23 -70 -9 -133 -67 -133 -53 0 -83 60 -64 129 8 29 17 42
38 49 42 14 79 -3 93 -45z"/>
<path d="M28905 7274 c-19 -10 -31 -11 -33 -5 -2 6 -12 11 -23 11 -18 0 -19
-9 -19 -130 l0 -130 25 0 c25 0 25 1 25 89 0 71 4 93 18 112 21 25 74 31 94
11 7 -7 14 -54 16 -112 4 -90 6 -100 23 -100 17 0 19 9 19 106 0 58 -4 114
-10 124 -10 18 -59 40 -89 40 -9 0 -29 -7 -46 -16z"/>
<path d="M24924 6566 c-9 -24 4 -48 23 -44 12 2 18 12 18 28 0 29 -32 41 -41
16z"/>
<path d="M25860 6395 l0 -175 26 0 26 0 -4 135 c-1 74 -2 135 -1 135 1 0 41
-61 89 -135 78 -121 90 -135 115 -135 l29 0 0 175 0 175 -26 0 -25 0 3 -134
c2 -74 0 -132 -3 -130 -3 2 -44 62 -90 134 -74 115 -87 130 -111 130 l-28 0 0
-175z"/>
<path d="M24675 6476 c-70 -30 -84 -179 -23 -236 25 -23 106 -28 126 -8 17 17
25 4 17 -31 -9 -43 -36 -55 -107 -47 -52 5 -58 4 -58 -13 0 -25 19 -31 94 -31
55 0 67 3 90 26 26 27 26 27 26 185 0 152 -1 159 -20 159 -11 0 -20 -4 -20 -9
0 -6 -16 -3 -35 5 -41 17 -51 17 -90 0z m115 -82 c14 -41 6 -97 -16 -119 -9
-8 -31 -15 -49 -15 -28 0 -37 6 -50 30 -19 37 -19 83 0 120 27 52 96 43 115
-16z"/>
<path d="M25338 6474 c-78 -42 -82 -201 -7 -239 53 -28 159 -16 159 16 0 17
-5 19 -53 13 -64 -8 -91 4 -105 46 l-11 30 90 0 c89 0 89 0 89 25 0 48 -27 95
-64 110 -44 19 -63 18 -98 -1z m87 -49 c38 -37 31 -45 -35 -45 -43 0 -60 4
-60 13 0 25 32 53 63 56 4 1 19 -10 32 -24z"/>
<path d="M25635 6474 c-19 -10 -31 -11 -33 -5 -2 6 -12 11 -23 11 -18 0 -19
-9 -19 -130 l0 -130 25 0 c25 0 25 1 25 89 0 71 4 93 18 112 21 25 74 31 94
11 7 -7 14 -54 16 -112 4 -90 6 -100 23 -100 17 0 19 9 19 106 0 58 -4 114
-10 124 -10 18 -59 40 -89 40 -9 0 -29 -7 -46 -16z"/>
<path d="M26268 6478 c-40 -10 -43 -15 -29 -36 7 -11 16 -11 50 -1 36 11 43
10 61 -6 37 -34 26 -52 -36 -58 -68 -7 -100 -27 -109 -68 -11 -50 20 -83 80
-87 33 -2 52 2 65 13 17 15 19 15 28 -1 6 -11 16 -15 27 -10 16 6 17 18 13
112 -4 86 -8 109 -24 124 -24 24 -78 31 -126 18z m97 -167 c-8 -34 -31 -51
-71 -51 -70 0 -47 76 25 82 48 4 54 1 46 -31z"/>
<path d="M26565 6475 c-19 -10 -31 -12 -33 -6 -2 6 -12 11 -23 11 -18 0 -19
-9 -19 -130 l0 -130 25 0 c25 0 25 1 25 89 0 71 4 93 18 111 21 25 69 30 83 9
5 -8 9 -58 9 -111 0 -98 0 -98 25 -98 25 0 25 1 25 89 0 70 4 93 18 109 27 32
58 36 81 13 18 -18 21 -34 21 -116 0 -88 1 -95 20 -95 19 0 20 7 20 109 0 134
-11 153 -83 155 -32 1 -52 -4 -64 -16 -15 -16 -19 -16 -34 -2 -25 23 -80 27
-114 9z"/>
<path d="M26988 6474 c-78 -42 -82 -201 -7 -239 53 -28 159 -16 159 16 0 17
-5 19 -53 13 -64 -8 -91 4 -105 46 l-11 30 90 0 c89 0 89 0 89 25 0 48 -27 95
-64 110 -44 19 -63 18 -98 -1z m87 -49 c38 -37 31 -45 -35 -45 -43 0 -60 4
-60 13 0 25 32 53 63 56 4 1 19 -10 32 -24z"/>
<path d="M24920 6350 l0 -130 25 0 25 0 0 130 0 130 -25 0 -25 0 0 -130z"/>
<path d="M25010 6473 c0 -5 21 -63 46 -130 44 -115 49 -123 74 -123 25 0 29 8
73 124 26 68 47 127 47 130 0 3 -11 6 -24 6 -21 0 -27 -11 -56 -92 -32 -90
-50 -126 -50 -100 0 7 -14 53 -31 102 -28 79 -34 90 -55 90 -13 0 -24 -3 -24
-7z"/>
<path d="M24320 6365 c0 -24 3 -25 60 -25 57 0 60 1 60 25 0 24 -3 25 -60 25
-57 0 -60 -1 -60 -25z"/>
<path d="M24661 5964 c-12 -15 -21 -39 -21 -54 0 -22 -6 -29 -26 -34 -30 -8
-27 -30 4 -34 21 -3 22 -8 22 -113 0 -102 1 -109 20 -109 19 0 20 7 20 109 l0
110 32 3 c47 4 51 35 6 40 -27 2 -32 7 -30 23 6 39 12 45 47 45 28 0 35 4 35
20 0 17 -7 20 -44 20 -36 0 -48 -5 -65 -26z"/>
<path d="M25630 5805 l0 -185 25 0 25 0 0 185 0 185 -25 0 -25 0 0 -185z"/>
<path d="M25514 5965 c-8 -21 3 -45 20 -45 20 0 29 16 21 40 -7 23 -33 27 -41
5z"/>
<path d="M26010 5796 c0 -168 1 -176 20 -176 18 0 20 8 22 135 l3 135 85 -135
c75 -118 88 -134 113 -135 l27 0 0 175 c0 167 -1 175 -20 175 -18 0 -20 -8
-22 -136 l-3 -136 -85 134 c-72 111 -90 134 -113 136 l-27 3 0 -175z"/>
<path d="M24838 5878 c-40 -10 -43 -15 -29 -36 7 -11 16 -11 50 -1 36 11 43
10 61 -6 37 -34 26 -52 -36 -58 -68 -7 -100 -27 -109 -68 -11 -50 20 -83 80
-87 33 -2 52 2 65 13 17 15 19 15 28 -1 6 -11 16 -15 27 -10 16 6 17 18 13
112 -4 86 -8 109 -24 124 -24 24 -78 31 -126 18z m97 -167 c-8 -34 -31 -51
-71 -51 -70 0 -47 76 25 82 48 4 54 1 46 -31z"/>
<path d="M25135 5875 c-19 -10 -31 -12 -33 -6 -2 6 -12 11 -23 11 -18 0 -19
-9 -19 -130 l0 -130 25 0 c25 0 25 1 25 89 0 71 4 93 18 111 21 25 69 30 83 9
5 -8 9 -58 9 -111 0 -98 0 -98 25 -98 25 0 25 1 25 89 0 70 4 93 18 109 27 32
58 36 81 13 18 -18 21 -34 21 -116 0 -88 1 -95 20 -95 19 0 20 7 20 109 0 134
-11 153 -83 155 -32 1 -52 -4 -64 -16 -15 -16 -19 -16 -34 -2 -25 23 -80 27
-114 9z"/>
<path d="M26445 5885 c-5 -2 -22 -6 -37 -9 -27 -6 -38 -29 -20 -40 5 -3 25 -1
45 5 46 12 77 -2 77 -35 0 -21 -6 -24 -52 -29 -69 -9 -102 -33 -106 -80 -4
-50 24 -77 81 -77 23 0 53 7 65 16 20 14 22 14 22 0 0 -9 9 -16 20 -16 19 0
20 7 20 108 0 95 -2 111 -20 130 -12 12 -26 22 -33 22 -7 0 -21 2 -32 5 -11 2
-24 2 -30 0z m65 -163 c0 -39 -30 -64 -72 -60 -26 2 -34 8 -36 27 -5 36 13 46
101 60 4 0 7 -12 7 -27z"/>
<path d="M26708 5875 c-16 -9 -28 -11 -28 -5 0 5 -9 10 -20 10 -19 0 -20 -7
-20 -130 0 -123 1 -130 20 -130 18 0 20 7 20 75 0 74 19 145 39 145 5 0 16 3
24 6 9 3 25 -4 36 -15 18 -18 21 -33 21 -116 0 -95 0 -95 25 -95 25 0 25 1 25
93 0 50 4 97 8 103 21 32 75 38 94 10 4 -6 8 -55 8 -108 0 -98 0 -98 25 -98
25 0 25 0 25 100 0 119 -10 146 -61 161 -32 10 -44 9 -78 -8 -34 -17 -42 -18
-54 -6 -21 21 -78 25 -109 8z"/>
<path d="M27137 5879 c-56 -22 -86 -134 -52 -199 23 -44 53 -60 111 -60 65 0
84 7 84 30 0 16 -7 17 -58 13 -55 -5 -60 -4 -80 22 -39 49 -31 55 63 55 l85 0
0 35 c0 41 -15 77 -39 92 -28 18 -83 23 -114 12z m81 -45 c12 -8 22 -24 22
-35 0 -17 -7 -19 -60 -19 -66 0 -73 8 -35 45 28 29 42 31 73 9z"/>
<path d="M25510 5749 c0 -130 0 -130 23 -127 21 3 22 7 25 131 l3 127 -26 0
-25 0 0 -131z"/>
<path d="M25720 5872 c0 -5 22 -64 50 -132 l50 -123 -18 -31 c-13 -23 -27 -32
-50 -34 -24 -2 -32 -8 -32 -23 0 -15 7 -19 34 -19 50 0 65 8 86 50 19 38 120
301 120 313 0 4 -11 7 -25 7 -14 0 -25 -1 -25 -3 0 -2 -15 -47 -34 -100 l-33
-97 -38 100 c-33 88 -40 100 -61 100 -13 0 -24 -4 -24 -8z"/>
<path d="M24320 5765 c0 -24 3 -25 60 -25 57 0 60 1 60 25 0 24 -3 25 -60 25
-57 0 -60 -1 -60 -25z"/>
<path d="M38360 7195 c0 -168 1 -175 20 -175 18 0 20 7 20 64 l0 65 54 6 c74
10 113 35 122 79 17 93 -35 136 -163 136 l-53 0 0 -175z m152 108 c25 -23 23
-68 -4 -87 -12 -9 -42 -16 -65 -16 l-43 0 0 58 c0 32 3 62 8 66 11 12 84 -3
104 -21z"/>
<path d="M38693 7276 c-42 -19 -63 -62 -63 -132 0 -50 3 -59 34 -90 30 -30 40
-34 89 -34 68 0 87 7 87 30 0 16 -7 17 -59 13 -50 -5 -61 -3 -80 16 -11 11
-21 30 -21 41 0 18 7 20 85 20 l85 0 0 30 c0 33 -20 79 -42 97 -23 19 -81 24
-115 9z m87 -46 c37 -37 26 -50 -40 -50 -68 0 -78 14 -34 49 33 26 49 26 74 1z"/>
<path d="M39004 7280 c-12 -5 -25 -13 -29 -19 -9 -16 -25 -13 -25 4 0 8 -9 15
-20 15 -19 0 -20 -7 -20 -130 l0 -130 25 0 c25 0 25 1 25 84 0 97 20 136 70
136 19 0 29 6 33 19 8 32 -14 39 -59 21z"/>
<path d="M39141 7277 c-23 -8 -38 -21 -44 -40 -13 -40 12 -73 79 -102 46 -21
55 -28 52 -47 -3 -21 -8 -23 -70 -22 -58 0 -68 -2 -68 -17 0 -22 20 -29 84
-29 65 0 106 27 106 69 0 39 -17 57 -82 86 -62 27 -73 48 -35 66 17 8 35 8 61
1 30 -9 38 -8 43 4 3 9 2 19 -3 24 -16 16 -88 20 -123 7z"/>
<path d="M39395 7276 c-43 -19 -66 -58 -67 -115 -2 -63 18 -108 53 -126 33
-17 102 -20 130 -5 50 27 70 149 33 205 -18 28 -69 55 -101 55 -10 -1 -32 -7
-48 -14z m116 -83 c23 -70 -9 -133 -67 -133 -53 0 -83 60 -64 129 8 29 17 42
38 49 42 14 79 -3 93 -45z"/>
<path d="M39705 7274 c-19 -10 -31 -11 -33 -5 -2 6 -12 11 -23 11 -18 0 -19
-9 -19 -130 l0 -130 25 0 c25 0 25 1 25 89 0 71 4 93 18 112 21 25 74 31 94
11 7 -7 14 -54 16 -112 4 -90 6 -100 23 -100 17 0 19 9 19 106 0 58 -4 114
-10 124 -10 18 -59 40 -89 40 -9 0 -29 -7 -46 -16z"/>
<path d="M35724 6566 c-9 -24 4 -48 23 -44 12 2 18 12 18 28 0 29 -32 41 -41
16z"/>
<path d="M36660 6395 l0 -175 26 0 26 0 -4 135 c-1 74 -2 135 -1 135 1 0 41
-61 89 -135 78 -121 90 -135 115 -135 l29 0 0 175 0 175 -26 0 -25 0 3 -134
c2 -74 0 -132 -3 -130 -3 2 -44 62 -90 134 -74 115 -87 130 -111 130 l-28 0 0
-175z"/>
<path d="M35475 6476 c-70 -30 -84 -179 -23 -236 25 -23 106 -28 126 -8 17 17
25 4 17 -31 -9 -43 -36 -55 -107 -47 -52 5 -58 4 -58 -13 0 -25 19 -31 94 -31
55 0 67 3 90 26 26 27 26 27 26 185 0 152 -1 159 -20 159 -11 0 -20 -4 -20 -9
0 -6 -16 -3 -35 5 -41 17 -51 17 -90 0z m115 -82 c14 -41 6 -97 -16 -119 -9
-8 -31 -15 -49 -15 -28 0 -37 6 -50 30 -19 37 -19 83 0 120 27 52 96 43 115
-16z"/>
<path d="M36138 6474 c-78 -42 -82 -201 -7 -239 53 -28 159 -16 159 16 0 17
-5 19 -53 13 -64 -8 -91 4 -105 46 l-11 30 90 0 c89 0 89 0 89 25 0 48 -27 95
-64 110 -44 19 -63 18 -98 -1z m87 -49 c38 -37 31 -45 -35 -45 -43 0 -60 4
-60 13 0 25 32 53 63 56 4 1 19 -10 32 -24z"/>
<path d="M36435 6474 c-19 -10 -31 -11 -33 -5 -2 6 -12 11 -23 11 -18 0 -19
-9 -19 -130 l0 -130 25 0 c25 0 25 1 25 89 0 71 4 93 18 112 21 25 74 31 94
11 7 -7 14 -54 16 -112 4 -90 6 -100 23 -100 17 0 19 9 19 106 0 58 -4 114
-10 124 -10 18 -59 40 -89 40 -9 0 -29 -7 -46 -16z"/>
<path d="M37068 6478 c-40 -10 -43 -15 -29 -36 7 -11 16 -11 50 -1 36 11 43
10 61 -6 37 -34 26 -52 -36 -58 -68 -7 -100 -27 -109 -68 -11 -50 20 -83 80
-87 33 -2 52 2 65 13 17 15 19 15 28 -1 6 -11 16 -15 27 -10 16 6 17 18 13
112 -4 86 -8 109 -24 124 -24 24 -78 31 -126 18z m97 -167 c-8 -34 -31 -51
-71 -51 -70 0 -47 76 25 82 48 4 54 1 46 -31z"/>
<path d="M37365 6475 c-19 -10 -31 -12 -33 -6 -2 6 -12 11 -23 11 -18 0 -19
-9 -19 -130 l0 -130 25 0 c25 0 25 1 25 89 0 71 4 93 18 111 21 25 69 30 83 9
5 -8 9 -58 9 -111 0 -98 0 -98 25 -98 25 0 25 1 25 89 0 70 4 93 18 109 27 32
58 36 81 13 18 -18 21 -34 21 -116 0 -88 1 -95 20 -95 19 0 20 7 20 109 0 134
-11 153 -83 155 -32 1 -52 -4 -64 -16 -15 -16 -19 -16 -34 -2 -25 23 -80 27
-114 9z"/>
<path d="M37788 6474 c-78 -42 -82 -201 -7 -239 53 -28 159 -16 159 16 0 17
-5 19 -53 13 -64 -8 -91 4 -105 46 l-11 30 90 0 c89 0 89 0 89 25 0 48 -27 95
-64 110 -44 19 -63 18 -98 -1z m87 -49 c38 -37 31 -45 -35 -45 -43 0 -60 4
-60 13 0 25 32 53 63 56 4 1 19 -10 32 -24z"/>
<path d="M35720 6350 l0 -130 25 0 25 0 0 130 0 130 -25 0 -25 0 0 -130z"/>
<path d="M35810 6473 c0 -5 21 -63 46 -130 44 -115 49 -123 74 -123 25 0 29 8
73 124 26 68 47 127 47 130 0 3 -11 6 -24 6 -21 0 -27 -11 -56 -92 -32 -90
-50 -126 -50 -100 0 7 -14 53 -31 102 -28 79 -34 90 -55 90 -13 0 -24 -3 -24
-7z"/>
<path d="M35120 6365 c0 -24 3 -25 60 -25 57 0 60 1 60 25 0 24 -3 25 -60 25
-57 0 -60 -1 -60 -25z"/>
<path d="M35461 5964 c-12 -15 -21 -39 -21 -54 0 -22 -6 -29 -26 -34 -30 -8
-27 -30 4 -34 21 -3 22 -8 22 -113 0 -102 1 -109 20 -109 19 0 20 7 20 109 l0
110 32 3 c47 4 51 35 6 40 -27 2 -32 7 -30 23 6 39 12 45 47 45 28 0 35 4 35
20 0 17 -7 20 -44 20 -36 0 -48 -5 -65 -26z"/>
<path d="M36430 5805 l0 -185 25 0 25 0 0 185 0 185 -25 0 -25 0 0 -185z"/>
<path d="M36314 5965 c-8 -21 3 -45 20 -45 20 0 29 16 21 40 -7 23 -33 27 -41
5z"/>
<path d="M36810 5796 c0 -168 1 -176 20 -176 18 0 20 8 22 135 l3 135 85 -135
c75 -118 88 -134 113 -135 l27 0 0 175 c0 167 -1 175 -20 175 -18 0 -20 -8
-22 -136 l-3 -136 -85 134 c-72 111 -90 134 -113 136 l-27 3 0 -175z"/>
<path d="M35638 5878 c-40 -10 -43 -15 -29 -36 7 -11 16 -11 50 -1 36 11 43
10 61 -6 37 -34 26 -52 -36 -58 -68 -7 -100 -27 -109 -68 -11 -50 20 -83 80
-87 33 -2 52 2 65 13 17 15 19 15 28 -1 6 -11 16 -15 27 -10 16 6 17 18 13
112 -4 86 -8 109 -24 124 -24 24 -78 31 -126 18z m97 -167 c-8 -34 -31 -51
-71 -51 -70 0 -47 76 25 82 48 4 54 1 46 -31z"/>
<path d="M35935 5875 c-19 -10 -31 -12 -33 -6 -2 6 -12 11 -23 11 -18 0 -19
-9 -19 -130 l0 -130 25 0 c25 0 25 1 25 89 0 71 4 93 18 111 21 25 69 30 83 9
5 -8 9 -58 9 -111 0 -98 0 -98 25 -98 25 0 25 1 25 89 0 70 4 93 18 109 27 32
58 36 81 13 18 -18 21 -34 21 -116 0 -88 1 -95 20 -95 19 0 20 7 20 109 0 134
-11 153 -83 155 -32 1 -52 -4 -64 -16 -15 -16 -19 -16 -34 -2 -25 23 -80 27
-114 9z"/>
<path d="M37245 5885 c-5 -2 -22 -6 -37 -9 -27 -6 -38 -29 -20 -40 5 -3 25 -1
45 5 46 12 77 -2 77 -35 0 -21 -6 -24 -52 -29 -69 -9 -102 -33 -106 -80 -4
-50 24 -77 81 -77 23 0 53 7 65 16 20 14 22 14 22 0 0 -9 9 -16 20 -16 19 0
20 7 20 108 0 95 -2 111 -20 130 -12 12 -26 22 -33 22 -7 0 -21 2 -32 5 -11 2
-24 2 -30 0z m65 -163 c0 -39 -30 -64 -72 -60 -26 2 -34 8 -36 27 -5 36 13 46
101 60 4 0 7 -12 7 -27z"/>
<path d="M37508 5875 c-16 -9 -28 -11 -28 -5 0 5 -9 10 -20 10 -19 0 -20 -7
-20 -130 0 -123 1 -130 20 -130 18 0 20 7 20 75 0 74 19 145 39 145 5 0 16 3
24 6 9 3 25 -4 36 -15 18 -18 21 -33 21 -116 0 -95 0 -95 25 -95 25 0 25 1 25
93 0 50 4 97 8 103 21 32 75 38 94 10 4 -6 8 -55 8 -108 0 -98 0 -98 25 -98
25 0 25 0 25 100 0 119 -10 146 -61 161 -32 10 -44 9 -78 -8 -34 -17 -42 -18
-54 -6 -21 21 -78 25 -109 8z"/>
<path d="M37937 5879 c-56 -22 -86 -134 -52 -199 23 -44 53 -60 111 -60 65 0
84 7 84 30 0 16 -7 17 -58 13 -55 -5 -60 -4 -80 22 -39 49 -31 55 63 55 l85 0
0 35 c0 41 -15 77 -39 92 -28 18 -83 23 -114 12z m81 -45 c12 -8 22 -24 22
-35 0 -17 -7 -19 -60 -19 -66 0 -73 8 -35 45 28 29 42 31 73 9z"/>
<path d="M36310 5749 c0 -130 0 -130 23 -127 21 3 22 7 25 131 l3 127 -26 0
-25 0 0 -131z"/>
<path d="M36520 5872 c0 -5 22 -64 50 -132 l50 -123 -18 -31 c-13 -23 -27 -32
-50 -34 -24 -2 -32 -8 -32 -23 0 -15 7 -19 34 -19 50 0 65 8 86 50 19 38 120
301 120 313 0 4 -11 7 -25 7 -14 0 -25 -1 -25 -3 0 -2 -15 -47 -34 -100 l-33
-97 -38 100 c-33 88 -40 100 -61 100 -13 0 -24 -4 -24 -8z"/>
<path d="M35120 5765 c0 -24 3 -25 60 -25 57 0 60 1 60 25 0 24 -3 25 -60 25
-57 0 -60 -1 -60 -25z"/>
<path d="M20746 35294 c-40 -31 -45 -38 -35 -55 l11 -21 22 21 c12 12 25 21
29 21 4 0 7 -63 7 -140 l0 -140 25 0 25 0 0 175 c0 202 -1 203 -84 139z"/>
<path d="M21266 35293 c-42 -33 -45 -38 -32 -52 14 -13 19 -13 46 7 l30 23 0
-146 c0 -138 1 -145 20 -145 19 0 20 7 20 175 0 202 -1 203 -84 138z"/>
<path d="M20967 35034 c-13 -13 -7 -52 8 -58 27 -10 46 5 43 33 -3 26 -35 41
-51 25z"/>
<path d="M21090 35012 c0 -34 24 -49 47 -31 23 20 12 54 -19 57 -25 3 -28 0
-28 -26z"/>
<path d="M21740 33385 l0 -185 25 0 25 0 0 185 0 185 -25 0 -25 0 0 -185z"/>
<path d="M22701 33551 c-11 -11 -23 -35 -26 -55 -5 -22 -14 -36 -26 -39 -25
-7 -25 -37 1 -37 19 0 20 -7 20 -110 l0 -110 25 0 25 0 0 110 0 110 30 0 c23
0 30 4 30 20 0 16 -7 20 -30 20 -25 0 -30 4 -30 24 0 29 16 43 55 48 19 2 31
9 33 21 5 26 -81 24 -107 -2z"/>
<path d="M20707 33543 c-4 -3 -7 -82 -7 -175 l0 -168 25 0 c23 0 24 3 27 73
l3 72 68 3 c59 3 67 5 67 22 0 18 -7 20 -70 20 l-71 0 3 58 3 57 73 3 c64 3
72 5 72 22 0 18 -7 20 -93 20 -52 0 -97 -3 -100 -7z"/>
<path d="M22351 33532 c-49 -27 -73 -79 -73 -156 0 -120 49 -176 156 -176 106
0 157 56 158 171 1 69 -21 125 -60 154 -39 28 -136 32 -181 7z m138 -36 c36
-19 51 -55 51 -122 0 -92 -33 -134 -105 -134 -47 0 -71 13 -90 50 -18 36 -19
136 -1 169 26 48 91 64 145 37z"/>
<path d="M21879 33491 c-6 -16 -17 -32 -25 -35 -18 -7 -18 -36 0 -36 11 0 15
-22 18 -96 4 -111 15 -127 83 -122 49 4 57 31 10 36 -16 2 -33 9 -37 15 -4 7
-8 47 -8 90 l0 77 35 0 c28 0 35 4 35 20 0 16 -7 20 -35 20 -32 0 -35 2 -35
30 0 40 -27 40 -41 1z"/>
<path d="M21002 33460 c-41 -9 -46 -15 -38 -35 3 -10 13 -14 23 -11 70 21 94
13 108 -31 6 -21 3 -23 -27 -23 -52 0 -106 -19 -123 -43 -21 -30 -19 -73 5
-97 24 -24 95 -27 127 -5 19 13 22 13 27 0 3 -8 12 -15 21 -15 12 0 15 17 15
106 0 58 -5 114 -10 124 -8 16 -71 43 -90 39 -3 -1 -20 -5 -38 -9z m92 -139
c11 -18 -16 -71 -39 -77 -41 -10 -70 -1 -73 25 -5 36 10 45 100 60 4 0 9 -3
12 -8z"/>
<path d="M21283 33463 c-56 -11 -94 -104 -73 -181 16 -60 51 -84 119 -80 49 3
56 6 59 25 3 21 1 22 -46 16 -45 -5 -50 -3 -70 22 -24 31 -29 83 -11 118 17
32 29 38 79 35 39 -2 45 0 48 18 2 17 -4 23 -29 28 -33 6 -39 6 -76 -1z"/>
<path d="M21450 33350 c0 -97 2 -112 20 -130 23 -23 97 -28 133 -9 16 9 22 9
25 0 2 -6 12 -11 23 -11 18 0 19 9 19 130 l0 130 -25 0 c-25 0 -25 -1 -25 -88
0 -104 -13 -132 -63 -132 -57 0 -62 9 -65 120 -4 90 -6 100 -23 100 -18 0 -19
-8 -19 -110z"/>
<path d="M22021 33408 c89 -223 84 -205 66 -243 -14 -29 -22 -35 -47 -35 -23
0 -30 -4 -30 -20 0 -17 7 -20 39 -20 60 0 70 17 172 293 l29 78 -27 -3 c-23
-3 -30 -13 -61 -101 l-35 -98 -37 98 c-33 88 -39 98 -63 101 l-27 3 21 -53z"/>
<path d="M21307 31856 l5 -45 -46 14 -47 14 3 -27 c3 -23 8 -27 41 -30 l37 -3
-27 -36 c-26 -34 -26 -36 -8 -49 27 -20 32 -18 45 21 6 19 15 35 19 35 4 0 15
-16 24 -35 15 -31 20 -34 37 -25 25 14 25 16 -6 57 l-25 33 30 0 c46 0 59 8
54 35 -5 23 -6 23 -50 10 l-45 -14 5 45 c4 43 4 44 -23 44 -27 0 -27 -1 -23
-44z"/>
<path d="M20728 31870 c-43 -33 -61 -156 -37 -244 16 -58 49 -86 101 -86 78 1
108 48 108 170 0 89 -15 139 -51 164 -32 22 -91 20 -121 -4z m109 -46 c13 -20
17 -48 17 -109 0 -94 -18 -135 -59 -135 -50 0 -70 52 -63 165 3 44 10 70 22
84 26 29 62 27 83 -5z"/>
<path d="M20967 31594 c-13 -13 -7 -52 8 -58 27 -10 46 5 43 33 -3 26 -35 41
-51 25z"/>
<path d="M21090 31572 c0 -34 24 -49 47 -31 23 20 12 54 -19 57 -25 3 -28 0
-28 -26z"/>
<path d="M25807 27166 l5 -45 -46 14 -47 14 3 -27 c3 -23 8 -27 41 -30 l37 -3
-27 -36 c-26 -34 -26 -36 -8 -49 27 -20 32 -18 45 21 6 19 15 35 19 35 4 0 15
-16 24 -35 15 -31 20 -34 37 -25 25 14 25 16 -6 57 l-25 33 30 0 c46 0 59 8
54 35 -5 23 -6 23 -50 10 l-45 -14 5 45 c4 43 4 44 -23 44 -27 0 -27 -1 -23
-44z"/>
<path d="M25467 26904 c-13 -13 -7 -52 8 -58 27 -10 46 5 43 33 -3 26 -35 41
-51 25z"/>
<path d="M25597 26904 c-13 -13 -7 -52 8 -58 27 -10 46 5 43 33 -3 26 -35 41
-51 25z"/>
<path d="M13978 26723 c-36 -28 -45 -40 -36 -50 15 -18 28 -16 55 9 l23 21 0
-146 c0 -140 1 -147 20 -147 19 0 20 7 20 175 0 201 0 202 -82 138z"/>
<path d="M14498 26723 c-36 -28 -45 -40 -36 -50 15 -18 28 -16 55 9 l23 21 0
-146 c0 -140 1 -147 20 -147 19 0 20 7 20 175 0 201 0 202 -82 138z"/>
<path d="M14197 26463 c-12 -11 -8 -40 7 -52 22 -18 46 -2 46 30 0 24 -4 29
-23 29 -13 0 -27 -3 -30 -7z"/>
<path d="M14327 26463 c-12 -11 -8 -40 7 -52 22 -18 46 -2 46 30 0 24 -4 29
-23 29 -13 0 -27 -3 -30 -7z"/>
<path d="M31350 23444 l0 -185 23 3 c20 3 22 9 25 83 3 110 7 121 44 134 25 9
36 8 55 -4 22 -14 23 -22 23 -115 0 -100 0 -100 25 -100 l25 0 0 104 c0 88 -3
107 -20 129 -26 33 -81 43 -122 23 -17 -9 -32 -16 -32 -16 -1 0 1 29 2 65 4
64 3 65 -22 65 l-26 0 0 -186z"/>
<path d="M30290 23591 c0 -17 8 -20 53 -23 l52 -3 3 -153 c3 -152 3 -153 25
-150 21 3 22 6 25 156 l3 152 49 0 c43 0 50 3 50 20 0 19 -7 20 -130 20 -122
0 -130 -1 -130 -19z"/>
<path d="M32231 23588 c-93 -237 -121 -311 -121 -319 0 -5 10 -9 23 -9 17 0
26 11 42 53 l20 52 65 0 65 0 20 -52 c17 -45 24 -53 47 -53 l26 0 -40 103
c-22 56 -52 134 -66 172 -21 55 -32 71 -50 73 -15 2 -25 -3 -31 -20z m60 -125
l18 -53 -49 0 -50 0 19 48 c10 26 21 56 26 67 8 22 6 27 36 -62z"/>
<path d="M32464 23555 c-3 -14 -15 -30 -25 -36 -23 -12 -25 -39 -4 -39 12 0
15 -14 15 -68 0 -74 13 -131 32 -144 7 -4 32 -8 56 -8 35 0 42 3 42 20 0 15
-7 20 -28 20 -44 0 -52 16 -52 101 l0 78 37 3 c27 2 39 8 41 21 3 14 -4 17
-37 17 -39 0 -41 2 -41 30 0 38 -27 41 -36 5z"/>
<path d="M30628 23514 c-78 -42 -82 -201 -7 -239 53 -28 159 -16 159 16 0 17
-5 19 -53 13 -64 -8 -91 4 -105 46 l-11 30 90 0 c89 0 89 0 89 25 0 48 -27 95
-64 110 -44 19 -63 18 -98 -1z m87 -49 c38 -37 31 -45 -35 -45 -43 0 -60 4
-60 13 0 25 32 53 63 56 4 1 19 -10 32 -24z"/>
<path d="M31697 23519 c-56 -22 -86 -134 -52 -199 23 -44 53 -60 111 -60 65 0
84 7 84 30 0 16 -7 17 -58 13 -55 -5 -60 -4 -80 22 -39 49 -31 55 63 55 l85 0
0 35 c0 41 -15 77 -39 92 -28 18 -83 23 -114 12z m81 -45 c12 -8 22 -24 22
-35 0 -17 -7 -19 -60 -19 -66 0 -73 8 -35 45 28 29 42 31 73 9z"/>
<path d="M31952 23519 c-38 -11 -58 -46 -48 -84 5 -21 21 -33 72 -56 55 -25
65 -33 62 -52 -3 -20 -8 -22 -70 -21 -58 0 -68 -2 -68 -17 0 -22 20 -29 81
-29 60 0 87 12 99 46 19 48 2 74 -66 105 -47 22 -64 34 -64 49 0 26 39 36 82
21 30 -11 47 -3 48 21 0 19 -83 30 -128 17z"/>
<path d="M10190 23245 l0 -185 25 0 25 0 0 185 0 185 -25 0 -25 0 0 -185z"/>
<path d="M10374 23321 c-55 -23 -87 -116 -64 -185 17 -53 52 -76 116 -76 65 0
84 7 84 30 0 16 -7 17 -58 13 -55 -5 -60 -4 -80 22 -39 49 -32 55 69 55 l91 0
-7 42 c-8 48 -20 70 -45 86 -26 16 -82 23 -106 13z m73 -46 c11 -8 23 -24 26
-35 5 -19 1 -20 -58 -20 -59 0 -63 1 -58 20 6 21 39 50 58 50 6 0 20 -7 32
-15z"/>
<path d="M11180 23313 c-31 -16 -35 -22 -35 -58 0 -38 2 -41 55 -68 75 -38 87
-51 69 -73 -11 -13 -25 -15 -71 -11 -51 4 -58 3 -58 -13 0 -23 19 -30 85 -30
67 0 99 22 97 69 -1 42 -15 58 -78 86 -62 27 -74 43 -48 62 18 13 60 12 98 -3
15 -6 31 25 19 37 -20 18 -98 20 -133 2z"/>
<path d="M19528 22723 c-36 -28 -45 -40 -36 -50 15 -18 28 -16 55 9 l23 21 0
-146 c0 -140 1 -147 20 -147 19 0 20 7 20 175 0 201 0 202 -82 138z"/>
<path d="M22260 22482 c0 -34 24 -49 47 -31 23 20 12 54 -19 57 -25 3 -28 0
-28 -26z"/>
<path d="M17460 21245 c0 -178 1 -185 20 -185 19 0 20 7 20 185 0 178 -1 185
-20 185 -19 0 -20 -7 -20 -185z"/>
<path d="M16880 21236 l0 -176 75 0 c121 0 165 28 165 104 0 33 -29 76 -51 76
-5 0 3 11 16 25 34 33 34 83 0 115 -22 21 -38 24 -115 28 l-90 4 0 -176z m167
112 c20 -16 15 -55 -9 -72 -12 -9 -42 -16 -65 -16 l-43 0 0 56 0 57 52 -7 c29
-4 58 -12 65 -18z m1 -144 c26 -18 30 -65 6 -85 -8 -7 -40 -14 -70 -17 l-54
-4 0 61 0 61 48 0 c27 0 57 -7 70 -16z"/>
<path d="M17244 21321 c-55 -23 -87 -116 -64 -185 17 -53 52 -76 116 -76 65 0
84 7 84 30 0 16 -7 17 -58 13 -55 -5 -60 -4 -80 22 -39 49 -32 55 69 55 l91 0
-7 42 c-8 48 -20 70 -45 86 -26 16 -82 23 -106 13z m73 -46 c11 -8 23 -24 26
-35 5 -19 1 -20 -58 -20 -59 0 -63 1 -58 20 6 21 39 50 58 50 6 0 20 -7 32
-15z"/>
<path d="M17633 21316 c-46 -21 -66 -66 -61 -139 4 -52 9 -64 36 -88 27 -24
41 -29 83 -29 42 0 55 5 79 28 50 51 49 162 -4 211 -30 28 -91 36 -133 17z
m88 -36 c15 0 39 -57 39 -93 0 -75 -86 -119 -124 -65 -18 26 -21 100 -5 129
12 23 47 40 67 33 8 -2 18 -4 23 -4z"/>
<path d="M18767 21318 c-56 -20 -86 -133 -52 -198 22 -42 53 -60 105 -60 75 0
120 49 120 130 0 104 -79 163 -173 128z m106 -60 c25 -29 23 -112 -3 -138 -23
-23 -68 -26 -94 -7 -23 17 -33 104 -16 136 23 44 79 48 113 9z"/>
<path d="M24890 20644 l0 -185 23 3 c22 3 22 5 25 186 l2 182 -25 0 -25 0 0
-186z"/>
<path d="M23850 20635 l0 -175 95 0 c88 0 95 2 95 20 0 17 -8 19 -72 22 l-73
3 -3 58 -3 57 71 0 c63 0 70 2 70 20 0 17 -8 19 -67 22 l-68 3 0 50 0 50 73 3
c64 3 72 5 72 22 0 18 -7 20 -95 20 l-95 0 0 -175z"/>
<path d="M25680 20794 c0 -9 9 -18 20 -21 19 -5 20 -14 20 -138 0 -125 -1
-134 -20 -140 -11 -3 -20 -13 -20 -21 0 -11 15 -14 65 -14 50 0 65 3 65 14 0
8 -9 18 -20 21 -19 6 -20 15 -20 140 0 125 1 134 20 140 11 3 20 13 20 21 0
11 -15 14 -65 14 -53 0 -65 -3 -65 -16z"/>
<path d="M24185 20714 c-19 -10 -31 -11 -33 -5 -2 6 -12 11 -23 11 -18 0 -19
-9 -19 -131 0 -130 0 -130 23 -127 20 3 22 9 25 83 3 110 7 121 44 134 25 9
36 8 55 -4 22 -14 23 -22 23 -115 0 -100 0 -100 25 -100 25 0 25 0 25 100 0
119 -10 146 -59 160 -47 13 -51 13 -86 -6z"/>
<path d="M24500 20723 c-8 -3 -23 -12 -32 -21 -16 -13 -18 -13 -24 2 -3 9 -15
16 -25 16 -18 0 -19 -9 -19 -130 l0 -130 25 0 c25 0 25 1 25 84 0 98 18 133
73 138 24 2 32 8 32 23 0 21 -26 29 -55 18z"/>
<path d="M24655 20716 c-43 -19 -66 -58 -67 -115 -2 -63 18 -108 53 -126 33
-17 102 -20 130 -5 50 27 70 149 33 205 -18 28 -69 55 -101 55 -10 -1 -32 -7
-48 -14z m116 -83 c23 -70 -9 -133 -67 -133 -53 0 -83 60 -64 129 8 29 17 42
38 49 42 14 79 -3 93 -45z"/>
<path d="M25943 20716 c-19 -9 -35 -11 -38 -5 -4 5 -15 9 -26 9 -18 0 -19 -8
-19 -130 l0 -130 24 0 c23 0 24 2 28 95 3 107 15 128 69 128 49 0 59 -22 59
-131 0 -91 1 -93 23 -90 19 3 22 10 25 58 5 79 -7 156 -26 179 -23 27 -79 34
-119 17z"/>
</g>
</svg>
